SplineFontDB: 3.2
FontName: Inconsolata-UltraCondensed
FullName: Inconsolata Ultra Condensed
FamilyName: Inconsolata Ultra Condensed
Weight: Book
Copyright: Copyright 2006 The Inconsolata Project Authors (https://github.com/cyrealtype/Inconsolata)
Version: 3.000; ttfautohint (v1.8.3)
ItalicAngle: -9
UnderlinePosition: -297
UnderlineWidth: 102
Ascent: 1802
Descent: 246
InvalidEm: 0
sfntRevision: 0x00030000
LayerCount: 2
Layer: 0 1 "Back" 1
Layer: 1 1 "Fore" 0
XUID: [1021 737 -42707792 7084]
StyleMap: 0x0040
FSType: 0
OS2Version: 4
OS2_WeightWidthSlopeOnly: 0
OS2_UseTypoMetrics: 1
CreationTime: 1576097233
ModificationTime: 1732402469
PfmFamily: 81
TTFWeight: 400
TTFWidth: 1
LineGap: 0
VLineGap: 0
Panose: 0 0 0 0 0 0 0 0 0 0
OS2TypoAscent: 1759
OS2TypoAOffset: 0
OS2TypoDescent: -389
OS2TypoDOffset: 0
OS2TypoLinegap: 0
OS2WinAscent: 2056
OS2WinAOffset: 0
OS2WinDescent: 930
OS2WinDOffset: 0
HheadAscent: 1759
HheadAOffset: 0
HheadDescent: -389
HheadDOffset: 0
OS2SubXSize: 1331
OS2SubYSize: 1229
OS2SubXOff: 0
OS2SubYOff: 154
OS2SupXSize: 1331
OS2SupYSize: 1229
OS2SupXOff: 0
OS2SupYOff: 717
OS2StrikeYSize: 102
OS2StrikeYPos: 561
OS2CapHeight: 1276
OS2XHeight: 936
OS2Vendor: 'CYRE'
OS2CodePages: 60000193.cdd40000
OS2UnicodeRanges: a00000ff.0000f9eb.00000020.00000000
Lookup: 1 0 0 "'aalt' Access All Alternates in Latin lookup 0" { "'aalt' Access All Alternates in Latin lookup 0 subtable"  } ['aalt' ('DFLT' <'dflt' > 'latn' <'AZE ' 'CAT ' 'CRT ' 'KAZ ' 'MOL ' 'ROM ' 'TAT ' 'TRK ' 'dflt' > ) ]
Lookup: 3 0 0 "'aalt' Access All Alternates in Latin lookup 1" { "'aalt' Access All Alternates in Latin lookup 1 subtable"  } ['aalt' ('DFLT' <'dflt' > 'latn' <'AZE ' 'CAT ' 'CRT ' 'KAZ ' 'MOL ' 'ROM ' 'TAT ' 'TRK ' 'dflt' > ) ]

StartChar: A
Encoding: 65 65 1
Width: 459
VWidth: 2441
GlyphClass: 2
Flags: HW
AnchorPoint: "Anchor-3" 276 0 basechar 0
AnchorPoint: "Anchor-2" 127 0 basechar 0
AnchorPoint: "Anchor-0" 367.902 1521 basechar 0
LayerCount: 2
Fore
SplineSet
297.421875 1076 m 1,0,-1
 159.229492188 576 l 1,1,-1
 275.229492188 576 l 1,2,-1
 297.421875 1076 l 1,0,-1
251 0 m 1,3,-1
 270.481445312 445 l 1,4,-1
 122.481445312 445 l 1,5,-1
 1 0 l 1,6,-1
 -97 0 l 1,7,-1
 349.020507812 1547 l 1,8,-1
 395.020507812 1547 l 1,9,-1
 351 0 l 1,10,-1
 251 0 l 1,3,-1
EndSplineSet
Substitution2: "Single Substitution lookup 29 subtable" ordfeminine
Substitution2: "'aalt' Access All Alternates in Latin lookup 0 subtable" ordfeminine
EndChar

StartChar: AE
Encoding: 198 198 26
Width: 435
VWidth: 2441
GlyphClass: 1
Flags: HW
LayerCount: 2
Fore
SplineSet
138.63671875 547 m 1,0,-1
 203.63671875 547 l 1,1,-1
 367.095703125 1377 l 1,2,-1
 359.095703125 1377 l 1,3,-1
 138.63671875 547 l 1,0,-1
-109 0 m 1,4,-1
 315.219726562 1523 l 1,5,-1
 580.219726562 1523 l 1,6,-1
 558.520507812 1386 l 1,7,-1
 441.520507812 1386 l 1,8,-1
 358.84375 864 l 1,9,-1
 450.84375 864 l 1,10,-1
 428.353515625 722 l 1,11,-1
 336.353515625 722 l 1,12,-1
 243.698242188 137 l 1,13,-1
 358.698242188 137 l 1,14,-1
 337 0 l 1,15,-1
 117 0 l 1,16,-1
 183.521484375 420 l 1,17,-1
 105.521484375 420 l 1,18,-1
 -12 0 l 1,19,-1
 -109 0 l 1,4,-1
EndSplineSet
EndChar

StartChar: B
Encoding: 66 66 28
Width: 512
VWidth: 2441
GlyphClass: 2
Flags: HW
AnchorPoint: "Anchor-2" 159 0 basechar 0
AnchorPoint: "Anchor-0" 399.902 1521 basechar 0
LayerCount: 2
Fore
SplineSet
71.6982421875 137 m 1,0,-1
 165.698242188 137 l 2,1,2
 228.698242188 137 228.698242188 137 273.865234375 207.5 c 128,-1,3
 319.03125 278 319.03125 278 344.213867188 437 c 0,4,5
 365.913085938 574 365.913085938 574 340.508789062 663 c 128,-1,6
 315.10546875 752 315.10546875 752 245.10546875 752 c 2,7,-1
 169.10546875 752 l 1,8,-1
 71.6982421875 137 l 1,0,-1
190.329101562 886 m 1,9,-1
 261.329101562 886 l 2,10,11
 342.329101562 886 342.329101562 886 378.07421875 957 c 128,-1,12
 413.819335938 1028 413.819335938 1028 430.291015625 1132 c 0,13,14
 446.129882812 1232 446.129882812 1232 431.825195312 1309 c 128,-1,15
 417.520507812 1386 417.520507812 1386 351.520507812 1386 c 2,16,-1
 269.520507812 1386 l 1,17,-1
 190.329101562 886 l 1,9,-1
-62 0 m 1,18,-1
 178.90234375 1521 l 1,19,-1
 372.90234375 1521 l 2,20,21
 431.90234375 1521 431.90234375 1521 478.254882812 1488.5 c 128,-1,22
 524.607421875 1456 524.607421875 1456 543.436523438 1376 c 128,-1,23
 562.266601562 1296 562.266601562 1296 539.6171875 1153 c 0,24,25
 513.80078125 990 513.80078125 990 479.713867188 920 c 128,-1,26
 445.626953125 850 445.626953125 850 384.083007812 815 c 1,27,28
 430.540039062 780 430.540039062 780 455.072265625 685.5 c 128,-1,29
 479.60546875 591 479.60546875 591 453.629882812 427 c 0,30,31
 419.260742188 210 419.260742188 210 341.129882812 105 c 128,-1,32
 263 0 263 0 130 0 c 2,33,-1
 -62 0 l 1,18,-1
EndSplineSet
EndChar

StartChar: C
Encoding: 67 67 29
Width: 524
VWidth: 2441
GlyphClass: 2
Flags: HW
AnchorPoint: "Anchor-2" 190 0 basechar 0
AnchorPoint: "Anchor-0" 419.902 1521 basechar 0
LayerCount: 2
Fore
SplineSet
190.19921875 -24 m 0,0,1
 120.19921875 -24 120.19921875 -24 73.5234375 47.5 c 128,-1,2
 26.84765625 119 26.84765625 119 19.7734375 289 c 128,-1,3
 12.6982421875 459 12.6982421875 459 57.10546875 752 c 0,4,5
 95.4345703125 994 95.4345703125 994 142.825195312 1148 c 128,-1,6
 190.216796875 1302 190.216796875 1302 241.520507812 1386 c 128,-1,7
 292.825195312 1470 292.825195312 1470 343.814453125 1501.5 c 128,-1,8
 394.803710938 1533 394.803710938 1533 438.803710938 1533 c 0,9,10
 510.803710938 1533 510.803710938 1533 550.93359375 1477 c 128,-1,11
 591.064453125 1421 591.064453125 1421 592.216796875 1302 c 1,12,-1
 514.595703125 1216 l 1,13,-1
 495.5859375 1197 l 1,14,-1
 487.486328125 1209 l 1,15,16
 488.49609375 1228 488.49609375 1228 495.376953125 1252.5 c 128,-1,17
 502.256835938 1277 502.256835938 1277 496.1171875 1314 c 0,18,19
 483.877929688 1363 483.877929688 1363 462.095703125 1377 c 128,-1,20
 440.3125 1391 440.3125 1391 414.3125 1391 c 0,21,22
 350.3125 1391 350.3125 1391 284.188476562 1245 c 128,-1,23
 218.064453125 1099 218.064453125 1099 165.005859375 764 c 0,24,25
 113.689453125 440 113.689453125 440 133.610351562 278.5 c 128,-1,26
 153.53125 117 153.53125 117 216.53125 117 c 0,27,28
 256.53125 117 256.53125 117 289.549804688 155 c 128,-1,29
 322.568359375 193 322.568359375 193 355.129882812 266 c 1,30,-1
 403.18359375 159 l 1,31,32
 354.13671875 64 354.13671875 64 304.16796875 20 c 128,-1,33
 254.19921875 -24 254.19921875 -24 190.19921875 -24 c 0,0,1
EndSplineSet
EndChar

StartChar: D
Encoding: 68 68 36
Width: 512
VWidth: 2441
GlyphClass: 2
Flags: HW
AnchorPoint: "Anchor-4" 275.688 762 basechar 0
AnchorPoint: "Anchor-2" 155 0 basechar 0
AnchorPoint: "Anchor-0" 362.902 1521 basechar 0
LayerCount: 2
Fore
SplineSet
78.3818359375 135 m 1,0,-1
 104.381835938 135 l 2,1,2
 203.381835938 135 203.381835938 135 277.436523438 299.5 c 128,-1,3
 351.490234375 464 351.490234375 464 395.6796875 743 c 0,4,5
 425.456054688 931 425.456054688 931 431.68359375 1074.5 c 128,-1,6
 437.912109375 1218 437.912109375 1218 411.05859375 1301 c 128,-1,7
 384.204101562 1384 384.204101562 1384 315.204101562 1384 c 2,8,-1
 276.204101562 1384 l 1,9,-1
 78.3818359375 135 l 1,0,-1
-62.31640625 -2 m 1,10,-1
 178.90234375 1521 l 1,11,-1
 341.90234375 1521 l 2,12,13
 428.90234375 1521 428.90234375 1521 473.879882812 1473.5 c 128,-1,14
 518.856445312 1426 518.856445312 1426 536.017578125 1326 c 128,-1,15
 553.1796875 1226 553.1796875 1226 545.376953125 1091.5 c 128,-1,16
 537.57421875 957 537.57421875 957 505.10546875 752 c 0,17,18
 448.245117188 393 448.245117188 393 346.463867188 195.5 c 128,-1,19
 244.68359375 -2 244.68359375 -2 87.68359375 -2 c 2,20,-1
 -62.31640625 -2 l 1,10,-1
EndSplineSet
EndChar

StartChar: Eth
Encoding: 208 208 37
Width: 483
VWidth: 2441
GlyphClass: 1
Flags: HW
LayerCount: 2
Fore
SplineSet
89.3818359375 135 m 1,0,-1
 117.381835938 135 l 2,1,2
 210.381835938 135 210.381835938 135 277.040039062 297 c 128,-1,3
 343.698242188 459 343.698242188 459 389.313476562 747 c 0,4,5
 435.719726562 1040 435.719726562 1040 421.803710938 1211 c 128,-1,6
 407.887695312 1382 407.887695312 1382 324.887695312 1382 c 2,7,-1
 286.887695312 1382 l 1,8,-1
 206.745117188 876 l 1,9,-1
 278.745117188 876 l 1,10,-1
 256.25390625 734 l 1,11,-1
 184.25390625 734 l 1,12,-1
 89.3818359375 135 l 1,0,-1
-35.31640625 -2 m 1,13,-1
 81.25390625 734 l 1,14,-1
 39.25390625 734 l 1,15,-1
 61.7451171875 876 l 1,16,-1
 103.745117188 876 l 1,17,-1
 205.90234375 1521 l 1,18,-1
 350.90234375 1521 l 2,19,20
 411.90234375 1521 411.90234375 1521 448.330078125 1479.5 c 128,-1,21
 484.756835938 1438 484.756835938 1438 501.541015625 1373.5 c 128,-1,22
 518.325195312 1309 518.325195312 1309 521.921875 1237 c 0,23,24
 526.735351562 1179 526.735351562 1179 524.100585938 1064.5 c 128,-1,25
 521.46484375 950 521.46484375 950 490.580078125 755 c 0,26,27
 425.642578125 345 425.642578125 345 326.163085938 171.5 c 128,-1,28
 226.68359375 -2 226.68359375 -2 97.68359375 -2 c 2,29,-1
 -35.31640625 -2 l 1,13,-1
EndSplineSet
EndChar

StartChar: E
Encoding: 69 69 42
Width: 512
VWidth: 2441
GlyphClass: 2
Flags: HW
AnchorPoint: "Anchor-3" 396.801 24 basechar 0
AnchorPoint: "Anchor-2" 163 0 basechar 0
AnchorPoint: "Anchor-0" 419.902 1521 basechar 0
LayerCount: 2
Fore
SplineSet
-62 0 m 1,0,-1
 179.219726562 1523 l 1,1,-1
 627.219726562 1523 l 1,2,-1
 605.520507812 1386 l 1,3,-1
 275.520507812 1386 l 1,4,-1
 192.52734375 862 l 1,5,-1
 459.52734375 862 l 1,6,-1
 437.829101562 725 l 1,7,-1
 170.829101562 725 l 1,8,-1
 77.6982421875 137 l 1,9,-1
 405.698242188 137 l 1,10,-1
 384 0 l 1,11,-1
 -62 0 l 1,0,-1
EndSplineSet
EndChar

StartChar: uni01B8
Encoding: 440 440 65
Width: 512
VWidth: 2441
GlyphClass: 1
Flags: HW
LayerCount: 2
Fore
SplineSet
184.723632812 -27 m 0,0,1
 65.7236328125 -27 65.7236328125 -27 18.0966796875 89 c 128,-1,2
 -29.53125 205 -29.53125 205 4.521484375 420 c 0,3,4
 38.890625 637 38.890625 637 121.872070312 760 c 128,-1,5
 204.853515625 883 204.853515625 883 306.1796875 904 c 1,6,-1
 189.204101562 1384 l 1,7,-1
 210.90234375 1521 l 1,8,-1
 582.90234375 1521 l 1,9,-1
 561.204101562 1384 l 1,10,-1
 308.204101562 1384 l 1,11,-1
 417.813476562 908 l 1,12,-1
 397.698242188 781 l 1,13,14
 381.3515625 782.661132812 381.3515625 782.661132812 366.0078125 782.661132812 c 0,15,16
 316.690429688 782.661132812 316.690429688 782.661132812 277.743164062 765.5 c 0,17,18
 226.6796875 743 226.6796875 743 191.484375 666 c 128,-1,19
 156.288085938 589 156.288085938 589 131.421875 432 c 0,20,21
 103.705078125 257 103.705078125 257 124.721679688 184.5 c 128,-1,22
 145.739257812 112 145.739257812 112 216.739257812 112 c 0,23,24
 272.739257812 112 272.739257812 112 314.5 161 c 1,25,26
 339.04296875 196 339.04296875 196 345.131835938 215.5 c 128,-1,27
 351.220703125 235 351.220703125 235 348.913085938 252 c 1,28,-1
 358.447265625 268 l 1,29,-1
 377.546875 256 l 1,30,-1
 404.84765625 119 l 1,31,32
 352.2265625 33 352.2265625 33 297.475585938 3 c 128,-1,33
 242.723632812 -27 242.723632812 -27 184.723632812 -27 c 0,0,1
EndSplineSet
EndChar

StartChar: F
Encoding: 70 70 66
Width: 504
VWidth: 2441
GlyphClass: 2
Flags: HW
AnchorPoint: "Anchor-2" 148 0 basechar 0
AnchorPoint: "Anchor-0" 388.902 1521 basechar 0
LayerCount: 2
Fore
SplineSet
-62 0 m 1,0,-1
 179.219726562 1523 l 1,1,-1
 619.219726562 1523 l 1,2,-1
 597.520507812 1386 l 1,3,-1
 281.520507812 1386 l 1,4,-1
 202.645507812 888 l 1,5,-1
 449.645507812 888 l 1,6,-1
 428.580078125 755 l 1,7,-1
 181.580078125 755 l 1,8,-1
 62 0 l 1,9,-1
 -62 0 l 1,0,-1
EndSplineSet
EndChar

StartChar: G
Encoding: 71 71 67
Width: 512
VWidth: 2441
GlyphClass: 2
Flags: HW
AnchorPoint: "Anchor-2" 181 0 basechar 0
AnchorPoint: "Anchor-0" 430.902 1521 basechar 0
LayerCount: 2
Fore
SplineSet
188.19921875 -24 m 0,0,1
 71.19921875 -24 71.19921875 -24 32.474609375 164 c 128,-1,2
 -6.2490234375 352 -6.2490234375 352 55.6796875 743 c 0,3,4
 59.00390625 765.086914062 59.00390625 765.086914062 62.3857421875 786.440429688 c 0,5,6
 97.8974609375 1010.65234375 97.8974609375 1010.65234375 139.775390625 1154 c 0,7,8
 185.641601562 1311 185.641601562 1311 237.288085938 1394 c 128,-1,9
 288.93359375 1477 288.93359375 1477 339.264648438 1507.5 c 128,-1,10
 389.595703125 1538 389.595703125 1538 433.595703125 1538 c 0,11,12
 509.595703125 1538 509.595703125 1538 549.879882812 1473.5 c 128,-1,13
 590.1640625 1409 590.1640625 1409 592.1171875 1314 c 1,14,-1
 518.921875 1237 l 1,15,-1
 500.912109375 1218 l 1,16,-1
 491.8125 1230 l 1,17,18
 493.138671875 1251 493.138671875 1251 496.702148438 1273.5 c 128,-1,19
 500.266601562 1296 500.266601562 1296 489.651367188 1330 c 0,20,21
 466.421875 1398 466.421875 1398 409.73828125 1400 c 0,22,23
 369.73828125 1400 369.73828125 1400 327.551757812 1342 c 128,-1,24
 285.365234375 1284 285.365234375 1284 244.404296875 1148.5 c 128,-1,25
 203.443359375 1013 203.443359375 1013 166.22265625 778 c 0,26,27
 116.015625 461 116.015625 461 129.876953125 286.5 c 128,-1,28
 143.739257812 112 143.739257812 112 202.739257812 112 c 0,29,30
 228.739257812 112 228.739257812 112 255.2734375 128 c 128,-1,31
 281.807617188 144 281.807617188 144 307.66796875 181 c 1,32,-1
 372.288085938 589 l 1,33,-1
 270.288085938 589 l 1,34,-1
 291.037109375 720 l 1,35,-1
 500.037109375 720 l 1,36,-1
 405.323242188 122 l 1,37,38
 346.810546875 43 346.810546875 43 293.004882812 9.5 c 128,-1,39
 239.19921875 -24 239.19921875 -24 188.19921875 -24 c 0,0,1
EndSplineSet
EndChar

StartChar: H
Encoding: 72 72 74
Width: 512
VWidth: 2441
GlyphClass: 2
Flags: HW
AnchorPoint: "Anchor-4" 562.688 762 basechar 0
AnchorPoint: "Anchor-2" 442 0 basechar 0
AnchorPoint: "Anchor-0" 682.902 1521 basechar 0
LayerCount: 2
Fore
SplineSet
178.90234375 1521 m 1,0,-1
 304.90234375 1521 l 1,1,-1
 302.209960938 1504 l 1,2,3
 292.993164062 1490 292.993164062 1490 288.299804688 1473 c 128,-1,4
 283.607421875 1456 283.607421875 1456 276.956054688 1414 c 2,5,-1
 190.319335938 867 l 1,6,-1
 395.319335938 867 l 1,7,-1
 498.90234375 1521 l 1,8,-1
 626.90234375 1521 l 1,9,-1
 624.209960938 1504 l 1,10,11
 614.993164062 1490 614.993164062 1490 610.299804688 1473 c 128,-1,12
 605.607421875 1456 605.607421875 1456 598.956054688 1414 c 2,13,-1
 375 0 l 1,14,-1
 258 0 l 1,15,-1
 373.62109375 730 l 1,16,-1
 168.62109375 730 l 1,17,-1
 53 0 l 1,18,-1
 -62 0 l 1,19,-1
 178.90234375 1521 l 1,0,-1
EndSplineSet
EndChar

StartChar: Hbar
Encoding: 294 294 75
Width: 442
VWidth: 2441
GlyphClass: 2
Flags: HW
AnchorPoint: "Anchor-4" 469.688 762 basechar 0
AnchorPoint: "Anchor-2" 349 0 basechar 0
AnchorPoint: "Anchor-0" 589.902 1521 basechar 0
LayerCount: 2
Fore
SplineSet
163.319335938 867 m 1,0,-1
 334.319335938 867 l 1,1,-1
 389.278320312 1214 l 1,2,-1
 218.278320312 1214 l 1,3,-1
 163.319335938 867 l 1,0,-1
82.2783203125 1214 m 1,4,-1
 103.977539062 1351 l 1,5,-1
 144.977539062 1351 l 1,6,-1
 171.90234375 1521 l 1,7,-1
 275.90234375 1521 l 1,8,-1
 273.209960938 1504 l 1,9,10
 265.993164062 1490 265.993164062 1490 261.299804688 1473 c 128,-1,11
 256.607421875 1456 256.607421875 1456 249.956054688 1414 c 2,12,-1
 239.977539062 1351 l 1,13,-1
 410.977539062 1351 l 1,14,-1
 437.90234375 1521 l 1,15,-1
 543.90234375 1521 l 1,16,-1
 541.209960938 1504 l 1,17,18
 533.993164062 1490 533.993164062 1490 529.299804688 1473 c 128,-1,19
 524.607421875 1456 524.607421875 1456 517.956054688 1414 c 2,20,-1
 507.977539062 1351 l 1,21,-1
 551.977539062 1351 l 1,22,-1
 530.278320312 1214 l 1,23,-1
 486.278320312 1214 l 1,24,-1
 294 0 l 1,25,-1
 197 0 l 1,26,-1
 312.62109375 730 l 1,27,-1
 141.62109375 730 l 1,28,-1
 26 0 l 1,29,-1
 -69 0 l 1,30,-1
 123.278320312 1214 l 1,31,-1
 82.2783203125 1214 l 1,4,-1
EndSplineSet
EndChar

StartChar: I
Encoding: 73 73 79
Width: 457
VWidth: 2441
GlyphClass: 2
Flags: HW
AnchorPoint: "Anchor-3" 269 0 basechar 0
AnchorPoint: "Anchor-2" 145 0 basechar 0
AnchorPoint: "Anchor-0" 371.902 1521 basechar 0
LayerCount: 2
Fore
SplineSet
-62 0 m 1,0,-1
 -40.3017578125 137 l 1,1,-1
 91.6982421875 137 l 1,2,-1
 289.204101562 1384 l 1,3,-1
 159.204101562 1384 l 1,4,-1
 180.90234375 1521 l 1,5,-1
 564.90234375 1521 l 1,6,-1
 543.204101562 1384 l 1,7,-1
 413.204101562 1384 l 1,8,-1
 215.381835938 135 l 1,9,-1
 352.381835938 135 l 1,10,-1
 331 0 l 1,11,-1
 -62 0 l 1,0,-1
EndSplineSet
EndChar

StartChar: J
Encoding: 74 74 94
Width: 512
VWidth: 2441
GlyphClass: 2
Flags: HW
AnchorPoint: "Anchor-2" 156 0 basechar 0
AnchorPoint: "Anchor-0" 482.902 1521 basechar 0
LayerCount: 2
Fore
SplineSet
92.7236328125 -27 m 0,0,1
 -10.2763671875 -27 -10.2763671875 -27 -46.478515625 98 c 1,2,-1
 24.6552734375 263 l 1,3,-1
 35.6142578125 288 l 1,4,-1
 46.9814453125 284 l 1,5,6
 54.8994140625 267.795898438 54.8994140625 267.795898438 49.5654296875 234.1171875 c 0,7,8
 44.7861328125 203.939453125 44.7861328125 203.939453125 54.92578125 170 c 1,9,10
 78.927734375 116.981445312 78.927734375 116.981445312 114.219726562 116.981445312 c 0,11,12
 114.874023438 116.981445312 114.874023438 116.981445312 115.53125 117 c 0,13,14
 152.53125 117 152.53125 117 190.206054688 206.5 c 128,-1,15
 227.881835938 296 227.881835938 296 261.458984375 508 c 2,16,-1
 400.204101562 1384 l 1,17,-1
 278.204101562 1384 l 1,18,-1
 299.90234375 1521 l 1,19,-1
 626.90234375 1521 l 1,20,-1
 605.204101562 1384 l 1,21,-1
 510.204101562 1384 l 1,22,-1
 371.776367188 510 l 2,23,24
 338.990234375 303 338.990234375 303 295.879882812 185.5 c 128,-1,25
 252.770507812 68 252.770507812 68 200.747070312 20.5 c 128,-1,26
 148.723632812 -27 148.723632812 -27 92.7236328125 -27 c 0,0,1
EndSplineSet
EndChar

StartChar: K
Encoding: 75 75 96
Width: 528
VWidth: 2441
GlyphClass: 1
Flags: HW
LayerCount: 2
Fore
SplineSet
201.829101562 725 m 1,0,-1
 139.713867188 598 l 1,1,-1
 45 0 l 1,2,-1
 -62 0 l 1,3,-1
 178.90234375 1521 l 1,4,-1
 303.90234375 1521 l 1,5,-1
 301.209960938 1504 l 1,6,7
 286.993164062 1490 286.993164062 1490 281.299804688 1473 c 128,-1,8
 275.607421875 1456 275.607421875 1456 268.956054688 1414 c 2,9,-1
 176.458984375 830 l 1,10,-1
 504.803710938 1533 l 1,11,12
 514.01171875 1528 514.01171875 1528 541.45703125 1524.5 c 128,-1,13
 568.90234375 1521 568.90234375 1521 582.90234375 1521 c 2,14,-1
 610.90234375 1521 l 1,15,-1
 292.834960938 845 l 1,16,-1
 386 0 l 1,17,-1
 268.416015625 -10 l 1,18,-1
 201.829101562 725 l 1,0,-1
EndSplineSet
EndChar

StartChar: uni0198
Encoding: 408 408 98
Width: 532
VWidth: 2441
GlyphClass: 1
Flags: HW
LayerCount: 2
Fore
SplineSet
178.90234375 1521 m 1,0,-1
 303.90234375 1521 l 1,1,-1
 301.209960938 1504 l 1,2,3
 286.993164062 1490 286.993164062 1490 281.299804688 1473 c 128,-1,4
 275.607421875 1456 275.607421875 1456 268.956054688 1414 c 2,5,-1
 178.834960938 845 l 1,6,7
 289.390625 1120 289.390625 1120 363.331054688 1268 c 128,-1,8
 437.272460938 1416 437.272460938 1416 490.379882812 1473.5 c 128,-1,9
 543.486328125 1531 543.486328125 1531 586.486328125 1531 c 0,10,11
 606.486328125 1531 606.486328125 1531 619.90234375 1521 c 1,12,-1
 588.225585938 1321 l 1,13,-1
 582.225585938 1321 l 1,14,15
 578.443359375 1335 578.443359375 1335 572.52734375 1345 c 128,-1,16
 566.611328125 1355 566.611328125 1355 550.0859375 1358 c 2,17,-1
 544.0859375 1358 l 2,18,19
 530.0859375 1358 530.0859375 1358 504.780273438 1324.5 c 128,-1,20
 479.474609375 1291 479.474609375 1291 427.740234375 1188.5 c 128,-1,21
 376.005859375 1086 376.005859375 1086 283.537109375 881 c 1,22,-1
 386 0 l 1,23,-1
 267.416015625 -10 l 1,24,-1
 200.235351562 696 l 1,25,26
 168.356445312 621 168.356445312 621 129.260742188 532 c 1,27,-1
 45 0 l 1,28,-1
 -62 0 l 1,29,-1
 178.90234375 1521 l 1,0,-1
EndSplineSet
EndChar

StartChar: L
Encoding: 76 76 99
Width: 512
VWidth: 2441
GlyphClass: 2
Flags: HW
AnchorPoint: "Anchor-4" 116.688 762 basechar 0
AnchorPoint: "Anchor-2" 159 0 basechar 0
AnchorPoint: "Anchor-1" 254.757 1116 basechar 0
AnchorPoint: "Anchor-0" 342.902 1521 basechar 0
LayerCount: 2
Fore
SplineSet
178.90234375 1521 m 1,0,-1
 316.90234375 1521 l 1,1,-1
 314.209960938 1504 l 1,2,3
 298.993164062 1490 298.993164062 1490 292.799804688 1473 c 128,-1,4
 286.607421875 1456 286.607421875 1456 279.956054688 1414 c 2,5,-1
 79.916015625 151 l 1,6,-1
 409.916015625 151 l 1,7,-1
 386 0 l 1,8,-1
 -62 0 l 1,9,-1
 178.90234375 1521 l 1,0,-1
EndSplineSet
EndChar

StartChar: uni01C7
Encoding: 455 455 100
Width: 512
VWidth: 2380
GlyphClass: 1
Flags: HW
LayerCount: 2
Fore
SplineSet
-46.478515625 98 m 1,0,-1
 178.90234375 1521 l 1,1,-1
 308.90234375 1521 l 1,2,3
 306.52734375 1506 306.52734375 1506 301.893554688 1502 c 0,4,5
 297.259765625 1498 297.259765625 1498 292.833984375 1489 c 0,6,7
 287.409179688 1480 287.409179688 1480 281.548828125 1443 c 2,8,-1
 88.953125 227 l 1,9,-1
 231.953125 227 l 1,10,11
 231.794921875 226 231.794921875 226 211.521484375 98 c 1,12,-1
 -46.478515625 98 l 1,0,-1
161.037109375 -246 m 0,13,14
 105.037109375 -246 105.037109375 -246 63.47265625 -218 c 0,15,16
 21.9072265625 -190 21.9072265625 -190 -8.015625 -139 c 1,17,-1
 90.0498046875 -6 l 1,18,19
 100.515625 -22 100.515625 -22 92.45703125 -35 c 0,20,21
 84.3974609375 -48 84.3974609375 -48 108.646484375 -78 c 0,22,23
 118.0625 -88 118.0625 -88 130.794921875 -96 c 0,24,25
 143.528320312 -104 143.528320312 -104 170.528320312 -104 c 0,26,27
 213.528320312 -104 213.528320312 -104 247.19921875 -24 c 0,28,29
 280.869140625 56 280.869140625 56 312.071289062 253 c 2,30,-1
 492.629882812 1393 l 1,31,-1
 382.629882812 1393 l 1,32,-1
 402.90234375 1521 l 1,33,-1
 626.90234375 1521 l 1,34,-1
 426.546875 256 l 1,35,36
 423.732421875 236.428710938 423.732421875 236.428710938 420.76171875 217.673828125 c 0,0,0
 382.145507812 -26.142578125 382.145507812 -26.142578125 317.092773438 -132 c 0,1,2
 247.037109375 -246 247.037109375 -246 161.037109375 -246 c 0,13,14
EndSplineSet
EndChar

StartChar: Lcaron
Encoding: 317 317 102
Width: 512
VWidth: 2441
GlyphClass: 2
Flags: HW
AnchorPoint: "Anchor-4" 116.688 762 basechar 0
AnchorPoint: "Anchor-2" 159 0 basechar 0
AnchorPoint: "Anchor-1" 254.757 1116 basechar 0
AnchorPoint: "Anchor-0" 342.902 1521 basechar 0
LayerCount: 2
Fore
SplineSet
419.918945312 1016 m 1,0,-1
 385.412109375 1057 l 1,1,2
 419.490234375 1108 419.490234375 1108 443.592773438 1156 c 128,-1,3
 467.6953125 1204 467.6953125 1204 473.396484375 1240 c 0,4,5
 480.048828125 1282 480.048828125 1282 462.24609375 1308.5 c 128,-1,6
 444.443359375 1335 444.443359375 1335 452.99609375 1389 c 0,7,8
 460.756835938 1438 460.756835938 1438 482.69140625 1466 c 128,-1,9
 504.625976562 1494 504.625976562 1494 532.625976562 1494 c 0,10,11
 552.625976562 1494 552.625976562 1494 572.454101562 1464.5 c 128,-1,12
 592.28125 1435 592.28125 1435 581.194335938 1365 c 0,13,14
 568.682617188 1286 568.682617188 1286 526.774414062 1204.5 c 128,-1,15
 484.866210938 1123 484.866210938 1123 419.918945312 1016 c 1,0,-1
178.90234375 1521 m 1,16,-1
 316.90234375 1521 l 1,17,-1
 314.209960938 1504 l 1,18,19
 298.993164062 1490 298.993164062 1490 292.799804688 1473 c 128,-1,20
 286.607421875 1456 286.607421875 1456 279.956054688 1414 c 2,21,-1
 79.916015625 151 l 1,22,-1
 409.916015625 151 l 1,23,-1
 386 0 l 1,24,-1
 -62 0 l 1,25,-1
 178.90234375 1521 l 1,16,-1
EndSplineSet
EndChar

StartChar: uni01C8
Encoding: 456 456 106
Width: 511
VWidth: 2362
GlyphClass: 1
Flags: HW
LayerCount: 2
Fore
SplineSet
108.037109375 -246 m 0,0,1
 44.037109375 -246 44.037109375 -246 8.134765625 -207.5 c 128,-1,2
 -27.7666015625 -169 -27.7666015625 -169 -51.373046875 -116 c 1,3,-1
 48.384765625 34 l 1,4,5
 57.009765625 19 57.009765625 19 54.158203125 1 c 128,-1,6
 51.3076171875 -17 51.3076171875 -17 54.3232421875 -39 c 128,-1,7
 57.3388671875 -61 57.3388671875 -61 84.2705078125 -93 c 0,8,9
 96.89453125 -108 96.89453125 -108 108.39453125 -108 c 128,-1,10
 119.89453125 -108 119.89453125 -108 136.89453125 -108 c 0,11,12
 161.89453125 -108 161.89453125 -108 193.270507812 -93 c 128,-1,13
 224.646484375 -78 224.646484375 -78 254.38671875 -16.5 c 128,-1,14
 284.126953125 45 284.126953125 45 305.66796875 181 c 2,15,-1
 441.0859375 1036 l 1,16,-1
 282.0859375 1036 l 1,17,-1
 301.092773438 1156 l 1,18,-1
 560.092773438 1156 l 1,19,-1
 406.934570312 189 l 2,20,21
 369.239257812 -49 369.239257812 -49 286.638671875 -147.5 c 128,-1,22
 204.037109375 -246 204.037109375 -246 108.037109375 -246 c 0,0,1
-39.826171875 140 m 1,23,-1
 179.536132812 1525 l 1,24,-1
 302.536132812 1525 l 1,25,26
 299.051757812 1503 299.051757812 1503 291.938476562 1486.5 c 128,-1,27
 284.825195312 1470 284.825195312 1470 281.499023438 1449 c 2,28,-1
 95.7138671875 276 l 1,29,-1
 257.713867188 276 l 1,30,-1
 236.173828125 140 l 1,31,-1
 -39.826171875 140 l 1,23,-1
531.788085938 1394 m 128,-1,33
 502.788085938 1394 502.788085938 1394 486.327148438 1419.5 c 128,-1,34
 469.865234375 1445 469.865234375 1445 475.567382812 1481 c 0,35,36
 481.5859375 1519 481.5859375 1519 505.625 1544.5 c 128,-1,37
 529.663085938 1570 529.663085938 1570 559.663085938 1570 c 0,38,39
 588.663085938 1570 588.663085938 1570 607.125 1544.5 c 128,-1,40
 625.5859375 1519 625.5859375 1519 619.567382812 1481 c 0,41,42
 613.865234375 1445 613.865234375 1445 587.327148438 1419.5 c 128,-1,32
 560.788085938 1394 560.788085938 1394 531.788085938 1394 c 128,-1,33
EndSplineSet
EndChar

StartChar: Lslash
Encoding: 321 321 108
Width: 521
VWidth: 2441
GlyphClass: 1
Flags: HW
LayerCount: 2
Fore
SplineSet
-29 0 m 1,0,-1
 64.2880859375 589 l 1,1,-1
 14.111328125 550 l 1,2,-1
 38.8193359375 706 l 1,3,-1
 89.3134765625 747 l 1,4,-1
 211.90234375 1521 l 1,5,-1
 326.90234375 1521 l 2,6,7
 334.90234375 1521 334.90234375 1521 335.110351562 1516 c 0,8,9
 333.52734375 1506 333.52734375 1506 323.333984375 1489 c 128,-1,10
 313.141601562 1472 313.141601562 1472 305.756835938 1438 c 2,11,-1
 205.658203125 806 l 1,12,-1
 381.40625 937 l 2,13,14
 401.624023438 951 401.624023438 951 413.366210938 962 c 1,15,-1
 387.548828125 799 l 1,16,-1
 180.950195312 650 l 1,17,-1
 101.916015625 151 l 1,18,-1
 398.916015625 151 l 1,19,-1
 375 0 l 1,20,-1
 -29 0 l 1,0,-1
EndSplineSet
EndChar

StartChar: M
Encoding: 77 77 109
Width: 512
VWidth: 2441
GlyphClass: 2
Flags: HW
AnchorPoint: "Anchor-2" 162 0 basechar 0
AnchorPoint: "Anchor-0" 402.902 1521 basechar 0
LayerCount: 2
Fore
SplineSet
-62 0 m 1,0,-1
 178.90234375 1521 l 1,1,-1
 262.90234375 1521 l 1,2,-1
 296.626953125 850 l 1,3,-1
 545.219726562 1523 l 1,4,-1
 627.219726562 1523 l 1,5,-1
 386 0 l 1,6,-1
 292 0 l 1,7,-1
 462.104492188 1074 l 1,8,-1
 254.735351562 535 l 1,9,-1
 228.735351562 535 l 1,10,-1
 200.99609375 1067 l 1,11,-1
 32 0 l 1,12,-1
 -62 0 l 1,0,-1
EndSplineSet
EndChar

StartChar: N
Encoding: 78 78 111
Width: 529
VWidth: 2441
GlyphClass: 2
Flags: HW
AnchorPoint: "Anchor-2" 154 0 basechar 0
AnchorPoint: "Anchor-0" 394.902 1521 basechar 0
LayerCount: 2
Fore
SplineSet
178.90234375 1521 m 1,0,-1
 277.90234375 1521 l 1,1,-1
 345.807617188 466 l 1,2,-1
 512.90234375 1521 l 1,3,-1
 626.90234375 1521 l 1,4,-1
 624.209960938 1504 l 1,5,6
 609.993164062 1490 609.993164062 1490 603.799804688 1473 c 128,-1,7
 597.607421875 1456 597.607421875 1456 590.956054688 1414 c 2,8,-1
 367 0 l 1,9,-1
 281 0 l 1,10,-1
 210.866210938 1123 l 1,11,-1
 33 0 l 1,12,-1
 -62 0 l 1,13,-1
 178.90234375 1521 l 1,0,-1
EndSplineSet
EndChar

StartChar: Eng
Encoding: 330 330 117
Width: 512
VWidth: 2344
GlyphClass: 2
Flags: HW
AnchorPoint: "Anchor-2" 181.184 159 basechar 0
AnchorPoint: "Anchor-0" 396.902 1521 basechar 0
LayerCount: 2
Fore
SplineSet
524.90234375 1521 m 1,0,-1
 626.90234375 1521 l 1,1,2
 624.84375 1508 624.84375 1508 620.1015625 1497 c 128,-1,3
 615.359375 1486 615.359375 1486 611.557617188 1462 c 2,4,-1
 405.18359375 159 l 2,5,6
 380.950195312 6 380.950195312 6 344.43359375 -82.5 c 128,-1,7
 307.916015625 -171 307.916015625 -171 261.4765625 -208.5 c 128,-1,8
 215.037109375 -246 215.037109375 -246 166.037109375 -246 c 0,9,10
 115.037109375 -246 115.037109375 -246 80.58984375 -192 c 1,11,-1
 140.130859375 -56 l 1,12,13
 151.705078125 -65 151.705078125 -65 153.299804688 -86.5 c 128,-1,14
 154.89453125 -108 154.89453125 -108 189.89453125 -108 c 0,15,16
 238.89453125 -108 238.89453125 -108 264.010742188 -31.5 c 128,-1,17
 289.126953125 45 289.126953125 45 316.78515625 207 c 1,18,-1
 220.359375 1164 l 1,19,-1
 61.18359375 159 l 1,20,-1
 -36.81640625 159 l 1,21,-1
 178.90234375 1521 l 1,22,-1
 282.90234375 1521 l 1,23,-1
 375.229492188 576 l 1,24,-1
 524.90234375 1521 l 1,0,-1
EndSplineSet
EndChar

StartChar: O
Encoding: 79 79 120
Width: 497
VWidth: 2441
GlyphClass: 2
Flags: HW
AnchorPoint: "Anchor-4" 273.688 762 basechar 0
AnchorPoint: "Anchor-3" 192.801 24 basechar 0
AnchorPoint: "Anchor-2" 153 0 basechar 0
AnchorPoint: "Anchor-1" 507.856 1426 basechar 0
AnchorPoint: "Anchor-0" 393.902 1521 basechar 0
LayerCount: 2
Fore
SplineSet
170.421875 110 m 0,0,1
 206.421875 110 206.421875 110 241.5 161 c 128,-1,2
 276.577148438 212 276.577148438 212 315.013671875 350.5 c 128,-1,3
 353.450195312 489 353.450195312 489 395.10546875 752 c 0,4,5
 435.334960938 1006 435.334960938 1006 440.850585938 1145 c 128,-1,6
 446.365234375 1284 446.365234375 1284 428.077148438 1339 c 128,-1,7
 409.788085938 1394 409.788085938 1394 373.788085938 1394 c 0,8,9
 339.788085938 1394 339.788085938 1394 302.077148438 1339 c 128,-1,10
 264.365234375 1284 264.365234375 1284 225.850585938 1145 c 128,-1,11
 187.334960938 1006 187.334960938 1006 147.10546875 752 c 0,12,13
 105.450195312 489 105.450195312 489 100.013671875 350.5 c 128,-1,14
 94.5771484375 212 94.5771484375 212 115.5 161 c 128,-1,15
 136.421875 110 136.421875 110 170.421875 110 c 0,0,1
148.723632812 -27 m 128,-1,17
 75.7236328125 -27 75.7236328125 -27 36.8896484375 43.5 c 128,-1,18
 -1.9443359375 114 -1.9443359375 114 -1.0185546875 284 c 128,-1,19
 -0.09375 454 -0.09375 454 47.10546875 752 c 0,20,21
 93.1953125 1043 93.1953125 1043 146.041015625 1212.5 c 128,-1,22
 198.887695312 1382 198.887695312 1382 260.686523438 1456.5 c 128,-1,23
 322.486328125 1531 322.486328125 1531 395.486328125 1531 c 128,-1,24
 468.486328125 1531 468.486328125 1531 505.686523438 1456.5 c 128,-1,25
 542.887695312 1382 542.887695312 1382 541.961914062 1212 c 128,-1,26
 541.036132812 1042 541.036132812 1042 495.10546875 752 c 0,27,28
 447.90625 454 447.90625 454 394.981445312 284 c 128,-1,29
 342.055664062 114 342.055664062 114 281.889648438 43.5 c 128,-1,16
 221.723632812 -27 221.723632812 -27 148.723632812 -27 c 128,-1,17
EndSplineSet
Substitution2: "Single Substitution lookup 29 subtable" ordmasculine
Substitution2: "'aalt' Access All Alternates in Latin lookup 0 subtable" ordmasculine
EndChar

StartChar: Oslash
Encoding: 216 216 148
Width: 497
VWidth: 2441
GlyphClass: 2
Flags: HW
AnchorPoint: "Anchor-4" 273.688 762 basechar 0
AnchorPoint: "Anchor-3" 192.801 24 basechar 0
AnchorPoint: "Anchor-2" 153 0 basechar 0
AnchorPoint: "Anchor-1" 507.856 1426 basechar 0
AnchorPoint: "Anchor-0" 393.902 1521 basechar 0
LayerCount: 2
Fore
SplineSet
170.421875 110 m 0,0,1
 206.421875 110 206.421875 110 241.5 161 c 128,-1,2
 276.577148438 212 276.577148438 212 315.013671875 350.5 c 128,-1,3
 353.450195312 489 353.450195312 489 395.10546875 752 c 0,4,5
 413.953125 871 413.953125 871 424.919921875 965.5 c 128,-1,6
 435.887695312 1060 435.887695312 1060 440.657226562 1128 c 1,7,-1
 102.46875 205 l 1,8,9
 111.916015625 151 111.916015625 151 128.668945312 130.5 c 128,-1,10
 145.421875 110 145.421875 110 170.421875 110 c 0,0,1
147.10546875 752 m 0,11,12
 129.682617188 642 129.682617188 642 118.903320312 555 c 128,-1,13
 108.124023438 468 108.124023438 468 103.829101562 403 c 1,14,-1
 435.641601562 1311 l 1,15,16
 426.927734375 1357 426.927734375 1357 411.857421875 1375.5 c 128,-1,17
 396.788085938 1394 396.788085938 1394 373.788085938 1394 c 0,18,19
 339.788085938 1394 339.788085938 1394 302.077148438 1339 c 128,-1,20
 264.365234375 1284 264.365234375 1284 225.850585938 1145 c 128,-1,21
 187.334960938 1006 187.334960938 1006 147.10546875 752 c 0,11,12
-7.3134765625 -103 m 1,22,-1
 -65.978515625 -63 l 1,23,-1
 8.015625 139 l 1,24,25
 -5.5712890625 230 -5.5712890625 230 3.1064453125 379.5 c 128,-1,26
 11.78515625 529 11.78515625 529 47.10546875 752 c 0,27,28
 93.1953125 1043 93.1953125 1043 146.041015625 1212.5 c 128,-1,29
 198.887695312 1382 198.887695312 1382 260.686523438 1456.5 c 128,-1,30
 322.486328125 1531 322.486328125 1531 395.486328125 1531 c 0,31,32
 460.486328125 1531 460.486328125 1531 495.93359375 1477 c 1,33,-1
 563.709960938 1665 l 1,34,-1
 618.741210938 1621 l 1,35,-1
 530.095703125 1377 l 1,36,37
 547.682617188 1286 547.682617188 1286 539.528320312 1133.5 c 128,-1,38
 531.375 981 531.375 981 495.10546875 752 c 0,39,40
 447.90625 454 447.90625 454 394.981445312 284 c 128,-1,41
 342.055664062 114 342.055664062 114 281.889648438 43.5 c 128,-1,42
 221.723632812 -27 221.723632812 -27 148.723632812 -27 c 0,43,44
 77.7236328125 -27 77.7236328125 -27 41.54296875 35 c 1,45,-1
 -7.3134765625 -103 l 1,22,-1
EndSplineSet
EndChar

StartChar: OE
Encoding: 338 338 154
Width: 452
VWidth: 2441
GlyphClass: 1
Flags: HW
LayerCount: 2
Fore
SplineSet
76.9560546875 126 m 0,0,1
 97.9560546875 126 97.9560546875 126 118.088867188 180.5 c 128,-1,2
 138.220703125 235 138.220703125 235 156.890625 315 c 1,3,-1
 294.52734375 1184 l 1,4,5
 306.840820312 1287 306.840820312 1287 304.34375 1347 c 128,-1,6
 301.846679688 1407 301.846679688 1407 272.846679688 1407 c 0,7,8
 255.846679688 1407 255.846679688 1407 234.66015625 1349 c 128,-1,9
 213.474609375 1291 213.474609375 1291 184.80078125 1151 c 128,-1,10
 156.126953125 1011 156.126953125 1011 117.005859375 764 c 0,11,12
 69.490234375 464 69.490234375 464 56.2236328125 295 c 128,-1,13
 42.9560546875 126 42.9560546875 126 76.9560546875 126 c 0,0,1
32.3076171875 -17 m 0,14,15
 2.3076171875 -17 2.3076171875 -17 -16.8076171875 17 c 128,-1,16
 -35.9228515625 51 -35.9228515625 51 -41.380859375 136.5 c 128,-1,17
 -46.8388671875 222 -46.8388671875 222 -33.1845703125 374.5 c 128,-1,18
 -19.53125 527 -19.53125 527 17.6884765625 762 c 0,19,20
 64.8876953125 1060 64.8876953125 1060 108.8125 1230 c 128,-1,21
 152.73828125 1400 152.73828125 1400 195.5625 1471.5 c 128,-1,22
 238.38671875 1543 238.38671875 1543 283.38671875 1543 c 0,23,24
 304.38671875 1543 304.38671875 1543 317.932617188 1527.5 c 128,-1,25
 331.477539062 1512 331.477539062 1512 340.716796875 1463 c 1,26,-1
 350.219726562 1523 l 1,27,-1
 586.219726562 1523 l 1,28,-1
 564.520507812 1386 l 1,29,-1
 424.520507812 1386 l 1,30,-1
 341.84375 864 l 1,31,-1
 463.84375 864 l 1,32,-1
 441.353515625 722 l 1,33,-1
 319.353515625 722 l 1,34,-1
 226.381835938 135 l 1,35,-1
 364.381835938 135 l 1,36,-1
 343 0 l 1,37,-1
 107 0 l 1,38,-1
 117.453125 66 l 1,39,40
 95.16796875 20 95.16796875 20 75.2373046875 1.5 c 128,-1,41
 55.3076171875 -17 55.3076171875 -17 32.3076171875 -17 c 0,14,15
EndSplineSet
EndChar

StartChar: P
Encoding: 80 80 155
Width: 512
VWidth: 2441
GlyphClass: 2
Flags: HW
AnchorPoint: "Anchor-2" -18 0 basechar 0
AnchorPoint: "Anchor-0" 394.902 1521 basechar 0
LayerCount: 2
Fore
SplineSet
176.658203125 806 m 1,0,-1
 266.658203125 806 l 2,1,2
 336.658203125 806 336.658203125 806 383.908203125 886.5 c 128,-1,3
 431.158203125 967 431.158203125 967 451.272460938 1094 c 0,4,5
 475.188476562 1245 475.188476562 1245 450.196289062 1314.5 c 128,-1,6
 425.204101562 1384 425.204101562 1384 358.204101562 1384 c 2,7,-1
 268.204101562 1384 l 1,8,-1
 176.658203125 806 l 1,0,-1
-62 0 m 1,9,-1
 178.90234375 1521 l 1,10,-1
 381.90234375 1521 l 2,11,12
 626.90234375 1521 626.90234375 1521 560.064453125 1099 c 0,13,14
 526.01171875 884 526.01171875 884 441.485351562 776.5 c 128,-1,15
 356.958984375 669 356.958984375 669 252.958984375 669 c 2,16,-1
 154.958984375 669 l 1,17,-1
 49 0 l 1,18,-1
 -62 0 l 1,9,-1
EndSplineSet
EndChar

StartChar: Thorn
Encoding: 222 222 156
Width: 532
VWidth: 2441
GlyphClass: 1
Flags: HW
LayerCount: 2
Fore
SplineSet
127.676757812 522 m 1,0,-1
 230.676757812 522 l 2,1,2
 303.676757812 522 303.676757812 522 345.901367188 605.5 c 128,-1,3
 388.126953125 689 388.126953125 689 405.866210938 801 c 128,-1,4
 423.60546875 913 423.60546875 913 406.305664062 999.5 c 128,-1,5
 389.005859375 1086 389.005859375 1086 312.005859375 1086 c 2,6,-1
 217.005859375 1086 l 1,7,-1
 127.676757812 522 l 1,0,-1
-62 0 m 1,8,-1
 178.90234375 1521 l 1,9,-1
 295.90234375 1521 l 2,10,11
 297.5859375 1519 297.5859375 1519 296.793945312 1514 c 0,12,13
 295.685546875 1507 295.685546875 1507 287.151367188 1491 c 128,-1,14
 278.6171875 1475 278.6171875 1475 275.1328125 1453 c 2,15,-1
 238.704101562 1223 l 1,16,-1
 356.704101562 1223 l 2,17,18
 429.704101562 1223 429.704101562 1223 469.493164062 1168 c 128,-1,19
 509.282226562 1113 509.282226562 1113 520.735351562 1018 c 128,-1,20
 532.188476562 923 532.188476562 923 513.658203125 806 c 0,21,22
 485.940429688 631 485.940429688 631 406.989257812 514.5 c 128,-1,23
 328.037109375 398 328.037109375 398 211.037109375 398 c 2,24,-1
 108.037109375 398 l 1,25,-1
 45 0 l 1,26,-1
 -62 0 l 1,8,-1
EndSplineSet
EndChar

StartChar: Q
Encoding: 81 81 157
Width: 505
VWidth: 2391
GlyphClass: 2
Flags: HW
AnchorPoint: "Anchor-2" 171.146 83 basechar 0
AnchorPoint: "Anchor-0" 399.062 1522 basechar 0
LayerCount: 2
Fore
SplineSet
195.360351562 198 m 0,0,1
 251.360351562 198 251.360351562 198 303.950195312 328 c 128,-1,2
 356.540039062 458 356.540039062 458 404.688476562 762 c 0,3,4
 443.017578125 1004 443.017578125 1004 448.087890625 1146.5 c 128,-1,5
 453.157226562 1289 453.157226562 1289 434.66015625 1349 c 128,-1,6
 416.1640625 1409 416.1640625 1409 383.1640625 1409 c 0,7,8
 338.1640625 1409 338.1640625 1409 277.598632812 1276 c 128,-1,9
 217.033203125 1143 217.033203125 1143 167.458984375 830 c 0,10,11
 130.080078125 594 130.080078125 594 124.64453125 455.5 c 128,-1,12
 119.208007812 317 119.208007812 317 138.784179688 257.5 c 128,-1,13
 158.360351562 198 158.360351562 198 195.360351562 198 c 0,0,1
272.196289062 -245 m 1,14,15
 260.967773438 -246.005859375 260.967773438 -246.005859375 250.555664062 -246.005859375 c 0,16,17
 167.837890625 -246.005859375 167.837890625 -246.005859375 136.594726562 -182.5 c 0,18,19
 101.418945312 -111 101.418945312 -111 129.611328125 67 c 1,20,21
 78.046875 95 78.046875 95 48.583984375 171 c 128,-1,22
 19.12109375 247 19.12109375 247 19.220703125 396 c 128,-1,23
 19.3193359375 545 19.3193359375 545 58.916015625 795 c 0,24,25
 105.322265625 1088 105.322265625 1088 161.901367188 1249.5 c 128,-1,26
 218.48046875 1411 218.48046875 1411 280.038085938 1474.5 c 128,-1,27
 341.595703125 1538 341.595703125 1538 401.595703125 1538 c 0,28,29
 463.595703125 1538 463.595703125 1538 503.720703125 1472.5 c 128,-1,30
 543.846679688 1407 543.846679688 1407 548.584960938 1247.5 c 128,-1,31
 553.322265625 1088 553.322265625 1088 507.866210938 801 c 0,32,33
 468.111328125 550 468.111328125 550 424.37890625 397 c 128,-1,34
 380.645507812 244 380.645507812 244 331.608398438 168 c 128,-1,35
 282.571289062 92 282.571289062 92 219.611328125 67 c 1,36,37
 211.416015625 -10 211.416015625 -10 210.41796875 -60.5 c 128,-1,38
 209.418945312 -111 209.418945312 -111 252.418945312 -111 c 2,39,-1
 336.2109375 -106 l 1,40,-1
 312.196289062 -245 l 1,41,-1
 272.196289062 -245 l 1,14,15
EndSplineSet
EndChar

StartChar: R
Encoding: 82 82 158
Width: 512
VWidth: 2441
GlyphClass: 2
Flags: HW
AnchorPoint: "Anchor-2" 151 0 basechar 0
AnchorPoint: "Anchor-0" 391.902 1521 basechar 0
LayerCount: 2
Fore
SplineSet
180.083007812 815 m 1,0,-1
 265.083007812 815 l 2,1,2
 315.083007812 815 315.083007812 815 361.56640625 887.5 c 128,-1,3
 408.048828125 960 408.048828125 960 430.380859375 1101 c 0,4,5
 454.296875 1252 454.296875 1252 430.250976562 1318 c 128,-1,6
 406.204101562 1384 406.204101562 1384 355.204101562 1384 c 2,7,-1
 270.204101562 1384 l 1,8,-1
 180.083007812 815 l 1,0,-1
-62 0 m 1,9,-1
 178.90234375 1521 l 1,10,-1
 367.90234375 1521 l 2,11,12
 488.90234375 1521 488.90234375 1521 530.584960938 1408.5 c 128,-1,13
 572.266601562 1296 572.266601562 1296 541.380859375 1101 c 0,14,15
 515.881835938 940 515.881835938 940 460.80078125 829 c 128,-1,16
 405.719726562 718 405.719726562 718 335.443359375 691 c 1,17,-1
 386 0 l 1,18,-1
 272 0 l 1,19,-1
 214.384765625 678 l 1,20,-1
 158.384765625 678 l 1,21,-1
 51 0 l 1,22,-1
 -62 0 l 1,9,-1
EndSplineSet
EndChar

StartChar: S
Encoding: 83 83 166
Width: 512
VWidth: 2441
GlyphClass: 2
Flags: HW
AnchorPoint: "Anchor-2" 154 0 basechar 0
AnchorPoint: "Anchor-0" 410.902 1521 basechar 0
LayerCount: 2
Fore
SplineSet
150.19921875 -24 m 0,0,1
 84.19921875 -24 84.19921875 -24 35.5341796875 16 c 128,-1,2
 -13.130859375 56 -13.130859375 56 -39.1923828125 144 c 1,3,-1
 29 322 l 1,4,-1
 37.958984375 347 l 1,5,-1
 53.1669921875 342 l 1,6,7
 61.474609375 325 61.474609375 325 53.0654296875 294 c 0,8,9
 51.4736328125 288.134765625 51.4736328125 288.134765625 50.5107421875 282.055664062 c 0,10,11
 46.3837890625 256 46.3837890625 256 53.794921875 226 c 0,12,13
 70.716796875 175 70.716796875 175 100.228515625 143.5 c 128,-1,14
 129.739257812 112 129.739257812 112 174.739257812 112 c 0,15,16
 236.739257812 112 236.739257812 112 277.4296875 179.5 c 128,-1,17
 318.12109375 247 318.12109375 247 340.928710938 391 c 0,18,19
 350.114257812 449 350.114257812 449 353.61328125 499.5 c 128,-1,20
 357.111328125 550 357.111328125 550 338.584960938 603.5 c 128,-1,21
 320.05859375 657 320.05859375 657 263.719726562 718 c 0,22,23
 169.450195312 811 169.450195312 811 147.743164062 926.5 c 128,-1,24
 126.036132812 1042 126.036132812 1042 145.517578125 1165 c 0,25,26
 177.986328125 1370 177.986328125 1370 247.94921875 1455 c 128,-1,27
 317.912109375 1540 317.912109375 1540 415.912109375 1540 c 0,28,29
 536.912109375 1540 536.912109375 1540 580.620117188 1374 c 1,30,-1
 512.704101562 1223 l 1,31,-1
 501.903320312 1199 l 1,32,-1
 490.01171875 1206 l 1,33,34
 484.020507812 1225 484.020507812 1225 491.956054688 1253 c 0,35,36
 493.247070312 1257.55859375 493.247070312 1257.55859375 494.006835938 1262.35449219 c 0,37,38
 497.9140625 1287.0234375 497.9140625 1287.0234375 487.750976562 1318 c 0,39,40
 456.372070312 1404 456.372070312 1404 387.372070312 1404 c 0,41,42
 332.372070312 1404 332.372070312 1404 304.452148438 1354 c 128,-1,43
 276.533203125 1304 276.533203125 1304 256.418945312 1177 c 0,44,45
 241.372070312 1082 241.372070312 1082 254.725585938 999 c 128,-1,46
 268.080078125 916 268.080078125 916 344.092773438 834 c 0,47,48
 431.6796875 743 431.6796875 743 451.4453125 640.5 c 128,-1,49
 471.2109375 538 471.2109375 538 451.729492188 415 c 0,50,51
 421.161132812 222 421.161132812 222 347.1796875 99 c 128,-1,52
 273.19921875 -24 273.19921875 -24 150.19921875 -24 c 0,0,1
EndSplineSet
EndChar

StartChar: uni1E9E
Encoding: 7838 7838 177
Width: 531
VWidth: 2441
GlyphClass: 1
Flags: HW
LayerCount: 2
Fore
SplineSet
184.19921875 -24 m 0,0,1
 119.19921875 -24 119.19921875 -24 80.8603515625 37 c 1,2,-1
 135.92578125 170 l 1,3,4
 163.055664062 114 163.055664062 114 200.055664062 114 c 0,5,6
 253.055664062 114 253.055664062 114 288.28125 197.5 c 128,-1,7
 323.505859375 281 323.505859375 281 352.490234375 464 c 0,8,9
 377.673828125 623 377.673828125 623 368.715820312 708.5 c 128,-1,10
 359.756835938 794 359.756835938 794 273.756835938 794 c 2,11,-1
 241.756835938 794 l 1,12,-1
 262.505859375 925 l 1,13,-1
 438.704101562 1223 l 1,14,15
 449.791015625 1293 449.791015625 1293 453.5859375 1358 c 128,-1,16
 457.380859375 1423 457.380859375 1423 444.033203125 1465 c 128,-1,17
 430.685546875 1507 430.685546875 1507 388.685546875 1507 c 0,18,19
 339.685546875 1507 339.685546875 1507 299.356445312 1426 c 128,-1,20
 259.02734375 1345 259.02734375 1345 229.725585938 1160 c 2,21,-1
 46 0 l 1,22,-1
 -62 0 l 1,23,-1
 116.657226562 1128 l 2,24,25
 149.91796875 1338 149.91796875 1338 195.682617188 1447 c 128,-1,26
 241.446289062 1556 241.446289062 1556 296.543945312 1594.5 c 128,-1,27
 351.641601562 1633 351.641601562 1633 408.641601562 1633 c 0,28,29
 507.641601562 1633 507.641601562 1633 540.90234375 1521 c 128,-1,30
 574.1640625 1409 574.1640625 1409 541.6953125 1204 c 1,31,-1
 349.396484375 918 l 1,32,33
 446.595703125 894 446.595703125 894 468.485351562 776.5 c 128,-1,34
 490.375 659 490.375 659 456.005859375 442 c 0,35,36
 416.884765625 195 416.884765625 195 347.041992188 85.5 c 128,-1,37
 277.19921875 -24 277.19921875 -24 184.19921875 -24 c 0,0,1
EndSplineSet
EndChar

StartChar: T
Encoding: 84 84 179
Width: 512
VWidth: 2441
GlyphClass: 2
Flags: HW
AnchorPoint: "Anchor-4" 278.688 762 basechar 0
AnchorPoint: "Anchor-2" 164 0 basechar 0
AnchorPoint: "Anchor-0" 404.902 1521 basechar 0
LayerCount: 2
Fore
SplineSet
106 0 m 1,0,-1
 325.520507812 1386 l 1,1,-1
 157.520507812 1386 l 1,2,-1
 179.219726562 1523 l 1,3,-1
 627.219726562 1523 l 1,4,-1
 605.520507812 1386 l 1,5,-1
 431.520507812 1386 l 1,6,-1
 212 0 l 1,7,-1
 106 0 l 1,0,-1
EndSplineSet
EndChar

StartChar: Tbar
Encoding: 358 358 180
Width: 512
VWidth: 2441
GlyphClass: 2
Flags: HW
AnchorPoint: "Anchor-4" 278.688 762 basechar 0
AnchorPoint: "Anchor-2" 164 0 basechar 0
AnchorPoint: "Anchor-0" 404.902 1521 basechar 0
LayerCount: 2
Fore
SplineSet
106 0 m 1,0,-1
 215.918945312 694 l 1,1,-1
 105.918945312 694 l 1,2,-1
 127.458984375 830 l 1,3,-1
 237.458984375 830 l 1,4,-1
 325.520507812 1386 l 1,5,-1
 157.520507812 1386 l 1,6,-1
 179.219726562 1523 l 1,7,-1
 627.219726562 1523 l 1,8,-1
 605.520507812 1386 l 1,9,-1
 431.520507812 1386 l 1,10,-1
 343.458984375 830 l 1,11,-1
 463.458984375 830 l 1,12,-1
 441.918945312 694 l 1,13,-1
 321.918945312 694 l 1,14,-1
 212 0 l 1,15,-1
 106 0 l 1,0,-1
EndSplineSet
EndChar

StartChar: U
Encoding: 85 85 186
Width: 512
VWidth: 2441
GlyphClass: 2
Flags: HW
AnchorPoint: "Anchor-3" 220.801 24 basechar 0
AnchorPoint: "Anchor-2" 160 0 basechar 0
AnchorPoint: "Anchor-1" 626.902 1521 basechar 0
AnchorPoint: "Anchor-0" 400.902 1521 basechar 0
LayerCount: 2
Fore
SplineSet
157.723632812 -27 m 0,0,1
 22.7236328125 -27 22.7236328125 -27 -2.294921875 96 c 128,-1,2
 -27.3134765625 219 -27.3134765625 219 13.390625 476 c 2,3,-1
 178.90234375 1521 l 1,4,-1
 311.90234375 1521 l 1,5,-1
 309.209960938 1504 l 1,6,7
 293.993164062 1490 293.993164062 1490 288.299804688 1473 c 128,-1,8
 282.607421875 1456 282.607421875 1456 275.956054688 1414 c 2,9,-1
 126.916015625 473 l 2,10,11
 97.1396484375 285 97.1396484375 285 106.7265625 194 c 0,12,13
 116.107421875 104.95703125 116.107421875 104.95703125 175.974609375 104.95703125 c 0,14,15
 177.290039062 104.95703125 177.290039062 104.95703125 178.629882812 105 c 0,16,17
 242.947265625 107 242.947265625 107 281.626953125 206 c 128,-1,18
 320.307617188 305 320.307617188 305 348.024414062 480 c 2,19,-1
 512.90234375 1521 l 1,20,-1
 626.90234375 1521 l 1,21,-1
 462.658203125 484 l 2,22,23
 418.15234375 203 418.15234375 203 347.9375 88 c 128,-1,24
 277.723632812 -27 277.723632812 -27 157.723632812 -27 c 0,0,1
EndSplineSet
EndChar

StartChar: V
Encoding: 86 86 209
Width: 479
VWidth: 2441
GlyphClass: 2
Flags: HW
AnchorPoint: "Anchor-2" 142 0 basechar 0
AnchorPoint: "Anchor-0" 382.902 1521 basechar 0
LayerCount: 2
Fore
SplineSet
114.416015625 -10 m 1,0,-1
 160.219726562 1523 l 1,1,-1
 260.219726562 1523 l 1,2,-1
 220.58984375 452 l 1,3,-1
 510.90234375 1521 l 1,4,-1
 607.90234375 1521 l 1,5,-1
 171.416015625 -10 l 1,6,-1
 114.416015625 -10 l 1,0,-1
EndSplineSet
EndChar

StartChar: W
Encoding: 87 87 210
Width: 449
VWidth: 2441
GlyphClass: 2
Flags: HW
AnchorPoint: "Anchor-2" 125 0 basechar 0
AnchorPoint: "Anchor-0" 370.902 1521 basechar 0
LayerCount: 2
Fore
SplineSet
-8 0 m 1,0,-1
 139.90234375 1521 l 1,1,-1
 225.90234375 1521 l 1,2,-1
 126.40625 615 l 1,3,-1
 333.1640625 1409 l 1,4,-1
 373.1640625 1409 l 1,5,-1
 325.40625 615 l 1,6,-1
 507.90234375 1521 l 1,7,-1
 587.90234375 1521 l 1,8,-1
 254 0 l 1,9,-1
 210 0 l 1,10,-1
 270.713867188 920 l 1,11,-1
 40 0 l 1,12,-1
 -8 0 l 1,0,-1
EndSplineSet
EndChar

StartChar: X
Encoding: 88 88 215
Width: 524
VWidth: 2441
GlyphClass: 2
Flags: HW
AnchorPoint: "Anchor-2" 158 0 basechar 0
AnchorPoint: "Anchor-0" 398.902 1521 basechar 0
LayerCount: 2
Fore
SplineSet
-62 0 m 1,0,-1
 222.90625 776 l 1,1,-1
 183.219726562 1523 l 1,2,-1
 288.219726562 1523 l 1,3,-1
 315.434570312 994 l 1,4,-1
 512.219726562 1523 l 1,5,-1
 607.219726562 1523 l 1,6,-1
 339.22265625 778 l 1,7,-1
 386 0 l 1,8,-1
 282 0 l 1,9,-1
 245.745117188 554 l 1,10,-1
 38 0 l 1,11,-1
 -62 0 l 1,0,-1
EndSplineSet
EndChar

StartChar: Y
Encoding: 89 89 216
Width: 495
VWidth: 2441
GlyphClass: 2
Flags: HW
AnchorPoint: "Anchor-2" 159 0 basechar 0
AnchorPoint: "Anchor-0" 391.902 1521 basechar 0
LayerCount: 2
Fore
SplineSet
107 0 m 1,0,-1
 198.229492188 576 l 1,1,-1
 168.90234375 1521 l 1,2,-1
 272.90234375 1521 l 1,3,-1
 289.984375 827 l 1,4,-1
 518.90234375 1521 l 1,5,-1
 616.90234375 1521 l 1,6,-1
 300.229492188 576 l 1,7,-1
 209 0 l 1,8,-1
 107 0 l 1,0,-1
EndSplineSet
EndChar

StartChar: Z
Encoding: 90 90 226
Width: 512
VWidth: 2441
GlyphClass: 2
Flags: HW
AnchorPoint: "Anchor-2" 176 0 basechar 0
AnchorPoint: "Anchor-0" 405.902 1521 basechar 0
LayerCount: 2
Fore
SplineSet
-44.578125 110 m 1,0,-1
 475.204101562 1384 l 1,1,-1
 170.204101562 1384 l 1,2,-1
 191.90234375 1521 l 1,3,-1
 609.90234375 1521 l 1,4,-1
 592.48046875 1411 l 1,5,-1
 76.6982421875 137 l 1,6,-1
 312.698242188 137 l 2,7,8
 349.698242188 137 349.698242188 137 365.990234375 142 c 128,-1,9
 382.282226562 147 382.282226562 147 396.5 161 c 1,10,-1
 411.5 161 l 1,11,-1
 386 0 l 1,12,-1
 -62 0 l 1,13,-1
 -44.578125 110 l 1,0,-1
EndSplineSet
EndChar

StartChar: a
Encoding: 97 97 232
Width: 512
VWidth: 2441
GlyphClass: 2
Flags: HW
AnchorPoint: "Anchor-3" 352 0 basechar 0
AnchorPoint: "Anchor-2" 130 0 basechar 0
AnchorPoint: "Anchor-0" 339.748 1097 basechar 0
LayerCount: 2
Fore
SplineSet
82.515625 300 m 0,0,1
 66.994140625 202 66.994140625 202 86.8662109375 157 c 128,-1,2
 106.739257812 112 106.739257812 112 147.739257812 112 c 0,3,4
 217.739257812 112 217.739257812 112 275.265625 219.5 c 128,-1,5
 332.791992188 327 332.791992188 327 370.735351562 535 c 1,6,7
 325.319335938 545 325.319335938 545 291.319335938 545 c 0,8,9
 209.319335938 545 209.319335938 545 156.924804688 492 c 128,-1,10
 104.53125 439 104.53125 439 82.515625 300 c 0,0,1
116.723632812 -27 m 0,11,12
 28.7236328125 -27 28.7236328125 -27 -3.7294921875 68 c 128,-1,13
 -36.18359375 163 -36.18359375 163 -14.8017578125 298 c 0,14,15
 9.1142578125 449 9.1142578125 449 53.7607421875 532 c 128,-1,16
 98.40625 615 98.40625 615 162.395507812 646.5 c 128,-1,17
 226.384765625 678 226.384765625 678 305.384765625 678 c 0,18,19
 325.384765625 678 325.384765625 678 346.330078125 674.5 c 128,-1,20
 367.276367188 671 367.276367188 671 391.166992188 664 c 1,21,22
 409.756835938 794 409.756835938 794 411.08203125 865.5 c 128,-1,23
 412.40625 937 412.40625 937 388.658203125 967 c 128,-1,24
 364.909179688 997 364.909179688 997 310.909179688 997 c 0,25,26
 245.909179688 997 245.909179688 997 165.813476562 908 c 1,27,-1
 136.34375 1025 l 1,28,29
 236.399414062 1139 236.399414062 1139 340.55859375 1140 c 0,30,31
 424.55859375 1140 424.55859375 1140 465.930664062 1095 c 128,-1,32
 507.303710938 1050 507.303710938 1050 511.03515625 931.5 c 128,-1,33
 514.766601562 813 514.766601562 813 480.080078125 594 c 2,34,-1
 386 0 l 1,35,-1
 289 0 l 1,36,-1
 315.92578125 170 l 1,37,38
 266.602539062 48 266.602539062 48 214.163085938 10.5 c 128,-1,39
 161.723632812 -27 161.723632812 -27 116.723632812 -27 c 0,11,12
EndSplineSet
Substitution2: "Single Substitution lookup 29 subtable" ordfeminine
Substitution2: "'aalt' Access All Alternates in Latin lookup 0 subtable" ordfeminine
EndChar

StartChar: ae
Encoding: 230 230 257
Width: 434
VWidth: 2441
GlyphClass: 1
Flags: HW
LayerCount: 2
Fore
SplineSet
39.947265625 107 m 0,0,1
 63.947265625 107 63.947265625 107 81.87109375 166.5 c 128,-1,2
 99.794921875 226 99.794921875 226 116.158203125 323 c 128,-1,3
 132.521484375 420 132.521484375 420 150.260742188 532 c 1,4,5
 98.6767578125 522 98.6767578125 522 75.6533203125 474.5 c 128,-1,6
 52.6298828125 427 52.6298828125 427 32.1982421875 298 c 0,7,8
 15.884765625 195 15.884765625 195 17.416015625 151 c 128,-1,9
 18.947265625 107 18.947265625 107 39.947265625 107 c 0,0,1
265.384765625 678 m 1,10,-1
 350.126953125 689 l 1,11,12
 374.518554688 843 374.518554688 843 381.767578125 923.5 c 128,-1,13
 389.017578125 1004 389.017578125 1004 369.017578125 1004 c 0,14,15
 339.017578125 1004 339.017578125 1004 314.555664062 919 c 128,-1,16
 290.092773438 834 290.092773438 834 265.384765625 678 c 1,10,-1
5.7236328125 -27 m 0,17,18
 -59.2763671875 -27 -59.2763671875 -27 -72.7294921875 68 c 128,-1,19
 -86.18359375 163 -86.18359375 163 -64.484375 300 c 0,20,21
 -43.578125 432 -43.578125 432 -15.7783203125 506.5 c 128,-1,22
 12.021484375 581 12.021484375 581 56.302734375 617.5 c 128,-1,23
 100.583007812 654 100.583007812 654 171.958984375 669 c 1,24,25
 197.142578125 828 197.142578125 828 202.580078125 916 c 128,-1,26
 208.017578125 1004 208.017578125 1004 169.017578125 1004 c 0,27,28
 148.017578125 1004 148.017578125 1004 130.192382812 983 c 128,-1,29
 112.366210938 962 112.366210938 962 92.505859375 925 c 1,30,-1
 74.1357421875 1030 l 1,31,32
 97.896484375 1079 97.896484375 1079 129.727539062 1109.5 c 128,-1,33
 161.55859375 1140 161.55859375 1140 196.55859375 1140 c 0,34,35
 229.55859375 1140 229.55859375 1140 249.985351562 1098.5 c 128,-1,36
 270.412109375 1057 270.412109375 1057 275.334960938 1006 c 1,37,38
 293.204101562 1062 293.204101562 1062 329.880859375 1101 c 128,-1,39
 366.55859375 1140 366.55859375 1140 394.55859375 1140 c 0,40,41
 457.55859375 1140 457.55859375 1140 467.08203125 1026.5 c 128,-1,42
 476.60546875 913 476.60546875 913 435.583007812 654 c 2,43,-1
 421.645507812 566 l 1,44,-1
 245.427734375 552 l 1,45,-1
 225.629882812 427 l 2,46,47
 203.139648438 285 203.139648438 285 203.489257812 192.5 c 128,-1,48
 203.838867188 100 203.838867188 100 244.838867188 100 c 0,49,50
 267.838867188 100 267.838867188 100 288.876953125 125.5 c 128,-1,51
 309.916015625 151 309.916015625 151 326.142578125 184 c 1,52,-1
 348.512695312 79 l 1,53,54
 325.2265625 33 325.2265625 33 292.475585938 3 c 128,-1,55
 259.723632812 -27 259.723632812 -27 225.723632812 -27 c 0,56,57
 190.723632812 -27 190.723632812 -27 159.504882812 9.5 c 128,-1,58
 128.286132812 46 128.286132812 46 126.947265625 107 c 1,59,60
 104.286132812 46 104.286132812 46 71.5048828125 9.5 c 128,-1,61
 38.7236328125 -27 38.7236328125 -27 5.7236328125 -27 c 0,17,18
EndSplineSet
EndChar

StartChar: b
Encoding: 98 98 259
Width: 542
VWidth: 2441
GlyphClass: 2
Flags: HW
AnchorPoint: "Anchor-2" 412 0 basechar 0
AnchorPoint: "Anchor-0" 588.757 1116 basechar 0
LayerCount: 2
Fore
SplineSet
179.84765625 119 m 0,0,1
 205.84765625 119 205.84765625 119 230.168945312 130.5 c 128,-1,2
 254.490234375 142 254.490234375 142 277.642578125 184 c 128,-1,3
 300.794921875 226 300.794921875 226 323.970703125 315.5 c 128,-1,4
 347.145507812 405 347.145507812 405 371.537109375 559 c 0,5,6
 400.99609375 745 400.99609375 745 401.805664062 838.5 c 128,-1,7
 402.614257812 932 402.614257812 932 383.578125 966.5 c 128,-1,8
 364.54296875 1001 364.54296875 1001 328.54296875 1001 c 0,9,10
 293.54296875 1001 293.54296875 1001 258.866210938 962 c 128,-1,11
 224.188476562 923 224.188476562 923 190.666992188 825 c 128,-1,12
 157.145507812 727 157.145507812 727 129.745117188 554 c 0,13,14
 93 322 93 322 105.423828125 220.5 c 128,-1,15
 117.84765625 119 117.84765625 119 179.84765625 119 c 0,0,1
174.723632812 -27 m 0,16,17
 131.723632812 -27 131.723632812 -27 96.8505859375 18 c 128,-1,18
 61.978515625 63 61.978515625 63 63.2822265625 147 c 1,19,-1
 28 0 l 1,20,-1
 -62 0 l 1,21,-1
 195.216796875 1624 l 1,22,-1
 309.216796875 1624 l 1,23,-1
 306.5234375 1607 l 1,24,25
 298.306640625 1593 298.306640625 1593 293.53515625 1575.5 c 128,-1,26
 288.762695312 1558 288.762695312 1558 282.110351562 1516 c 2,27,-1
 191.672851562 945 l 1,28,29
 232.620117188 1052 232.620117188 1052 287.248046875 1097 c 128,-1,30
 341.875 1142 341.875 1142 375.875 1142 c 0,31,32
 435.875 1142 435.875 1142 470.985351562 1098.5 c 128,-1,33
 506.095703125 1055 506.095703125 1055 510.03515625 931.5 c 128,-1,34
 513.974609375 808 513.974609375 808 476.12109375 569 c 0,35,36
 437.474609375 325 437.474609375 325 387.122070312 196.5 c 128,-1,37
 336.770507812 68 336.770507812 68 281.247070312 20.5 c 128,-1,38
 225.723632812 -27 225.723632812 -27 174.723632812 -27 c 0,16,17
EndSplineSet
EndChar

StartChar: c
Encoding: 99 99 261
Width: 512
VWidth: 2441
GlyphClass: 2
Flags: HW
AnchorPoint: "Anchor-2" 197 0 basechar 0
AnchorPoint: "Anchor-0" 373.757 1116 basechar 0
LayerCount: 2
Fore
SplineSet
190.723632812 -27 m 0,0,1
 -66.2763671875 -27 -66.2763671875 -27 26.2197265625 557 c 0,2,3
 61.6982421875 781 61.6982421875 781 119.575195312 906.5 c 128,-1,4
 177.453125 1032 177.453125 1032 244.767578125 1084.5 c 128,-1,5
 312.083007812 1137 312.083007812 1137 372.083007812 1137 c 0,6,7
 517.083007812 1137 517.083007812 1137 540.583007812 976 c 1,8,-1
 472.635742188 869 l 1,9,-1
 460.309570312 848 l 1,10,-1
 447.418945312 855 l 1,11,12
 443.427734375 874 443.427734375 874 446.466796875 899.5 c 128,-1,13
 449.505859375 925 449.505859375 925 436.048828125 960 c 1,14,15
 405.809570312 1009 405.809570312 1009 349.809570312 1009 c 0,16,17
 320.809570312 1009 320.809570312 1009 280.211914062 970.5 c 128,-1,18
 239.614257812 932 239.614257812 932 201.171875 834.5 c 128,-1,19
 162.729492188 737 162.729492188 737 134.219726562 557 c 0,20,21
 93.673828125 301 93.673828125 301 116.65234375 203 c 128,-1,22
 139.629882812 105 139.629882812 105 215.629882812 105 c 0,23,24
 253.629882812 105 253.629882812 105 292.407226562 132 c 128,-1,25
 331.18359375 159 331.18359375 159 369.686523438 219 c 1,26,-1
 391.413085938 91 l 1,27,28
 347.751953125 30 347.751953125 30 295.737304688 1.5 c 128,-1,29
 243.723632812 -27 243.723632812 -27 190.723632812 -27 c 0,0,1
EndSplineSet
EndChar

StartChar: d
Encoding: 100 100 268
Width: 512
VWidth: 2441
GlyphClass: 2
Flags: HW
AnchorPoint: "Anchor-4" 495.235 1340 basechar 0
AnchorPoint: "Anchor-2" 164 0 basechar 0
AnchorPoint: "Anchor-1" 577.757 1116 basechar 0
AnchorPoint: "Anchor-0" 340.757 1116 basechar 0
LayerCount: 2
Fore
SplineSet
167.055664062 114 m 0,0,1
 200.055664062 114 200.055664062 114 232.549804688 155 c 128,-1,2
 265.04296875 196 265.04296875 196 294.985351562 293.5 c 128,-1,3
 324.928710938 391 324.928710938 391 352.329101562 564 c 0,4,5
 391.450195312 811 391.450195312 811 373.337890625 905 c 128,-1,6
 355.225585938 999 355.225585938 999 312.225585938 999 c 0,7,8
 273.225585938 999 273.225585938 999 242.158203125 967 c 128,-1,9
 211.08984375 935 211.08984375 935 184.389648438 848.5 c 128,-1,10
 157.688476562 762 157.688476562 762 131.397460938 596 c 0,11,12
 98.13671875 386 98.13671875 386 97.7431640625 282.5 c 128,-1,13
 97.3505859375 179 97.3505859375 179 118.203125 146.5 c 128,-1,14
 139.055664062 114 139.055664062 114 167.055664062 114 c 0,0,1
123.19921875 -24 m 0,15,16
 84.19921875 -24 84.19921875 -24 53.7626953125 -1.5 c 128,-1,17
 23.326171875 21 23.326171875 21 7.462890625 85 c 128,-1,18
 -8.400390625 149 -8.400390625 149 -4.791015625 266.5 c 128,-1,19
 -1.1806640625 384 -1.1806640625 384 28.12109375 569 c 0,20,21
 66.1328125 809 66.1328125 809 111.614257812 932 c 128,-1,22
 157.095703125 1055 157.095703125 1055 208.985351562 1098.5 c 128,-1,23
 260.875 1142 260.875 1142 318.875 1142 c 0,24,25
 423.875 1142 423.875 1142 416.474609375 969 c 1,26,-1
 520.216796875 1624 l 1,27,-1
 643.216796875 1624 l 1,28,-1
 640.5234375 1607 l 1,29,30
 625.306640625 1593 625.306640625 1593 619.53515625 1575.5 c 128,-1,31
 613.762695312 1558 613.762695312 1558 607.110351562 1516 c 2,32,-1
 394.400390625 173 l 2,33,34
 387.431640625 129 387.431640625 129 381.700195312 86.5 c 128,-1,35
 375.96875 44 375.96875 44 378 0 c 1,36,-1
 279 0 l 1,37,38
 275.751953125 30 275.751953125 30 275.532226562 66.5 c 128,-1,39
 275.313476562 103 275.313476562 103 282.282226562 147 c 1,40,41
 254.1953125 77 254.1953125 77 212.197265625 26.5 c 128,-1,42
 170.19921875 -24 170.19921875 -24 123.19921875 -24 c 0,15,16
EndSplineSet
EndChar

StartChar: eth
Encoding: 240 240 269
Width: 512
VWidth: 2441
GlyphClass: 1
Flags: HW
LayerCount: 2
Fore
SplineSet
183.838867188 100 m 0,0,1
 219.838867188 100 219.838867188 100 253.065429688 133 c 128,-1,2
 286.291992188 166 286.291992188 166 317.129882812 266 c 128,-1,3
 347.96875 366 347.96875 366 379.645507812 566 c 0,4,5
 417.182617188 803 417.182617188 803 396.55078125 909.5 c 128,-1,6
 376.483398438 1013.08203125 376.483398438 1013.08203125 329.1328125 1013.08203125 c 0,0,0
 327.798828125 1013.08203125 327.798828125 1013.08203125 326.443359375 1013 c 0,7,8
 283.443359375 1013 283.443359375 1013 247.529296875 972.5 c 128,-1,9
 211.614257812 932 211.614257812 932 181.409179688 836 c 128,-1,10
 151.204101562 740 151.204101562 740 123.645507812 566 c 0,11,12
 94.5029296875 382 94.5029296875 382 95.5849609375 281.5 c 128,-1,13
 96.66796875 181 96.66796875 181 119.752929688 140.5 c 128,-1,14
 142.838867188 100 142.838867188 100 183.838867188 100 c 0,0,1
163.248046875 -30 m 0,15,16
 102.248046875 -30 102.248046875 -30 57.9052734375 21.5 c 128,-1,17
 13.5625 73 13.5625 73 1.439453125 198.5 c 128,-1,18
 -10.68359375 324 -10.68359375 324 24.3193359375 545 c 0,19,20
 60.1142578125 771 60.1142578125 771 107.283203125 901.5 c 128,-1,21
 154.453125 1032 154.453125 1032 212.005859375 1086 c 128,-1,22
 269.55859375 1140 269.55859375 1140 334.55859375 1140 c 0,23,24
 370.55859375 1140 370.55859375 1140 397.866210938 1123 c 128,-1,25
 425.172851562 1106 425.172851562 1106 435.095703125 1055 c 1,26,27
 433.182617188 1125 433.182617188 1125 426.377929688 1202 c 128,-1,28
 419.573242188 1279 419.573242188 1279 399.34375 1347 c 1,29,-1
 273.46484375 1272 l 1,30,-1
 252.095703125 1377 l 1,31,-1
 369.865234375 1445 l 1,32,33
 353.151367188 1491 353.151367188 1491 333.907226562 1530.5 c 128,-1,34
 314.663085938 1570 314.663085938 1570 289.573242188 1601 c 1,35,-1
 400.75 1640 l 1,36,37
 439.772460938 1577 439.772460938 1577 468.833984375 1489 c 1,38,-1
 586.080078125 1560 l 1,39,-1
 601.1328125 1453 l 1,40,-1
 497.73828125 1400 l 1,41,42
 522.424804688 1297 522.424804688 1297 527.606445312 1184.5 c 128,-1,43
 532.788085938 1072 532.788085938 1072 522.668945312 935.5 c 128,-1,44
 512.548828125 799 512.548828125 799 483.723632812 617 c 0,45,46
 443.176757812 361 443.176757812 361 396.502929688 221 c 128,-1,47
 349.829101562 81 349.829101562 81 292.0390625 25.5 c 128,-1,48
 234.248046875 -30 234.248046875 -30 163.248046875 -30 c 0,15,16
EndSplineSet
EndChar

StartChar: dcaron
Encoding: 271 271 270
Width: 468
VWidth: 2441
GlyphClass: 1
Flags: HW
LayerCount: 2
Fore
SplineSet
87.0556640625 114 m 0,0,1
 104.055664062 114 104.055664062 114 127.916015625 151 c 128,-1,2
 151.776367188 188 151.776367188 188 178.797851562 286 c 128,-1,3
 205.819335938 384 205.819335938 384 234.329101562 564 c 0,4,5
 261.25390625 734 261.25390625 734 264.721679688 828.5 c 128,-1,6
 268.188476562 923 268.188476562 923 258.70703125 961 c 128,-1,7
 249.225585938 999 249.225585938 999 235.225585938 999 c 0,8,9
 207.225585938 999 207.225585938 999 185.291015625 971 c 128,-1,10
 163.356445312 943 163.356445312 943 142.235351562 857 c 128,-1,11
 121.114257812 771 121.114257812 771 93.3974609375 596 c 0,12,13
 67.10546875 430 67.10546875 430 58.1630859375 332.5 c 128,-1,14
 49.220703125 235 49.220703125 235 52.85546875 188.5 c 128,-1,15
 56.490234375 142 56.490234375 142 66.7734375 128 c 128,-1,16
 77.0556640625 114 77.0556640625 114 87.0556640625 114 c 0,0,1
45.19921875 -24 m 0,17,18
 15.19921875 -24 15.19921875 -24 -5.5546875 -3.5 c 128,-1,19
 -26.3076171875 17 -26.3076171875 17 -34.646484375 78 c 128,-1,20
 -42.984375 139 -42.984375 139 -33.7158203125 257.5 c 128,-1,21
 -24.447265625 376 -24.447265625 376 6.12109375 569 c 0,22,23
 35.580078125 755 35.580078125 755 61.9775390625 868 c 128,-1,24
 88.375 981 88.375 981 115.877929688 1041 c 128,-1,25
 143.380859375 1101 143.380859375 1101 173.127929688 1121.5 c 128,-1,26
 202.875 1142 202.875 1142 237.875 1142 c 0,27,28
 316.875 1142 316.875 1142 297.266601562 974 c 1,29,-1
 400.216796875 1624 l 1,30,-1
 507.216796875 1624 l 1,31,-1
 504.5234375 1607 l 1,32,33
 490.306640625 1593 490.306640625 1593 484.53515625 1575.5 c 128,-1,34
 478.762695312 1558 478.762695312 1558 472.110351562 1516 c 2,35,-1
 259.400390625 173 l 2,36,37
 252.431640625 129 252.431640625 129 246.700195312 86.5 c 128,-1,38
 240.96875 44 240.96875 44 240 0 c 1,39,-1
 158 0 l 1,40,41
 156.276367188 27 156.276367188 27 155.899414062 62.5 c 128,-1,42
 155.521484375 98 155.521484375 98 162.490234375 142 c 1,43,44
 139.720703125 74 139.720703125 74 109.459960938 25 c 128,-1,45
 79.19921875 -24 79.19921875 -24 45.19921875 -24 c 0,17,18
577.325195312 1631 m 0,46,47
 594.325195312 1631 594.325195312 1631 603.3359375 1599.5 c 128,-1,48
 612.346679688 1568 612.346679688 1568 602.209960938 1504 c 0,49,50
 590.331054688 1429 590.331054688 1429 560.759765625 1337 c 128,-1,51
 531.188476562 1245 531.188476562 1245 475.55859375 1140 c 1,52,-1
 442.418945312 1177 l 1,53,54
 464.0703125 1219 464.0703125 1219 488.861328125 1274.5 c 128,-1,55
 513.651367188 1330 513.651367188 1330 521.887695312 1382 c 0,56,57
 527.747070312 1419 527.747070312 1419 514.944335938 1445.5 c 128,-1,58
 503.489257812 1469.2109375 503.489257812 1469.2109375 511.619140625 1520.54003906 c 0,0,0
 512.576171875 1526.57910156 512.576171875 1526.57910156 513.803710938 1533 c 0,59,60
 522.772460938 1577 522.772460938 1577 540.548828125 1604 c 128,-1,61
 558.325195312 1631 558.325195312 1631 577.325195312 1631 c 0,46,47
EndSplineSet
EndChar

StartChar: e
Encoding: 101 101 274
Width: 512
VWidth: 2441
GlyphClass: 2
Flags: HW
AnchorPoint: "Anchor-3" 262.801 24 basechar 0
AnchorPoint: "Anchor-2" 218 0 basechar 0
AnchorPoint: "Anchor-0" 349.757 1116 basechar 0
LayerCount: 2
Fore
SplineSet
153.166992188 664 m 1,0,-1
 380.166992188 664 l 1,1,2
 410.735351562 857 410.735351562 857 403.985351562 937.5 c 128,-1,3
 397.235351562 1018 397.235351562 1018 332.235351562 1018 c 0,4,5
 291.235351562 1018 291.235351562 1018 263.142578125 989 c 128,-1,6
 235.048828125 960 235.048828125 960 209.853515625 883 c 128,-1,7
 184.658203125 806 184.658203125 806 153.166992188 664 c 1,0,-1
187.19921875 -24 m 0,8,9
 56.19921875 -24 56.19921875 -24 15.8681640625 106.5 c 128,-1,10
 -24.462890625 237 -24.462890625 237 25.7451171875 554 c 0,11,12
 76.26953125 873 76.26953125 873 154.572265625 1007.5 c 128,-1,13
 232.875 1142 232.875 1142 355.875 1142 c 0,14,15
 425.875 1142 425.875 1142 465.588867188 1096 c 128,-1,16
 505.303710938 1050 505.303710938 1050 510.58984375 935 c 128,-1,17
 515.875 820 515.875 820 483.08984375 613 c 0,18,19
 479.288085938 589 479.288085938 589 476.75390625 573 c 128,-1,20
 474.219726562 557 474.219726562 557 469.2109375 538 c 1,21,-1
 131.2109375 538 l 1,22,23
 106.602539062 370 106.602539062 370 105.634765625 275.5 c 128,-1,24
 104.66796875 181 104.66796875 181 130.307617188 144 c 128,-1,25
 155.947265625 107 155.947265625 107 210.947265625 107 c 0,26,27
 257.947265625 107 257.947265625 107 288.381835938 135 c 128,-1,28
 318.81640625 163 318.81640625 163 341.46875 205 c 1,29,-1
 391.323242188 122 l 1,30,31
 348.869140625 56 348.869140625 56 297.034179688 16 c 128,-1,32
 245.19921875 -24 245.19921875 -24 187.19921875 -24 c 0,8,9
EndSplineSet
EndChar

StartChar: uni029A
Encoding: 666 666 296
Width: 512
VWidth: 2441
GlyphClass: 1
Flags: HW
LayerCount: 2
Fore
SplineSet
167.739257812 112 m 0,0,1
 215.739257812 112 215.739257812 112 249.995117188 151.5 c 128,-1,2
 284.250976562 191 284.250976562 191 313.694335938 288.5 c 128,-1,3
 343.13671875 386 343.13671875 386 370.853515625 561 c 128,-1,4
 398.571289062 736 398.571289062 736 399.092773438 834 c 128,-1,5
 399.614257812 932 399.614257812 932 378.711914062 970.5 c 128,-1,6
 357.809570312 1009 357.809570312 1009 316.809570312 1009 c 0,7,8
 231.809570312 1009 231.809570312 1009 202.984375 827 c 0,9,10
 192.213867188 759 192.213867188 759 206.690429688 711.5 c 128,-1,11
 221.166992188 664 221.166992188 664 262.166992188 664 c 0,12,13
 268.166992188 664 268.166992188 664 274.666992188 664 c 128,-1,14
 281.166992188 664 281.166992188 664 287.484375 666 c 1,15,-1
 265.46875 527 l 1,16,17
 254.78515625 529 254.78515625 529 247.260742188 532 c 128,-1,18
 239.735351562 535 239.735351562 535 228.735351562 535 c 0,19,20
 187.735351562 535 187.735351562 535 149.840820312 482 c 128,-1,21
 111.947265625 429 111.947265625 429 97.05859375 335 c 0,22,23
 61.7392578125 112 61.7392578125 112 167.739257812 112 c 0,0,1
146.990234375 -19 m 0,24,25
 54.3076171875 -17 54.3076171875 -17 10.3291015625 81 c 128,-1,26
 -33.6494140625 179 -33.6494140625 179 -6.7236328125 349 c 0,27,28
 9.58984375 452 9.58984375 452 49.8349609375 523 c 128,-1,29
 90.080078125 594 90.080078125 594 136.40625 615 c 1,30,31
 110.05859375 657 110.05859375 657 100.586914062 714 c 128,-1,32
 91.1142578125 771 91.1142578125 771 102.04296875 840 c 0,33,34
 125.958984375 991 125.958984375 991 193.758789062 1065.5 c 128,-1,35
 261.55859375 1140 261.55859375 1140 339.55859375 1140 c 0,36,37
 461.55859375 1140 461.55859375 1140 492.59765625 1004.5 c 128,-1,38
 523.635742188 869 523.635742188 869 474.537109375 559 c 128,-1,39
 425.4375 249 425.4375 249 345.555664062 114 c 128,-1,40
 266.83984375 -19.029296875 266.83984375 -19.029296875 150.447265625 -19.029296875 c 0,0,0
 148.723632812 -19.029296875 148.723632812 -19.029296875 146.990234375 -19 c 0,24,25
EndSplineSet
EndChar

StartChar: f
Encoding: 102 102 300
Width: 501
VWidth: 2441
GlyphClass: 1
Flags: HW
LayerCount: 2
Fore
SplineSet
183.54296875 1001 m 1,0,-1
 93.54296875 1001 l 1,1,-1
 111.756835938 1116 l 1,2,-1
 201.756835938 1116 l 1,3,-1
 216.486328125 1209 l 2,4,5
 251.96484375 1433 251.96484375 1433 327.19921875 1535.5 c 128,-1,6
 402.43359375 1638 402.43359375 1638 478.43359375 1638 c 0,7,8
 521.43359375 1638 521.43359375 1638 563.994140625 1600.5 c 128,-1,9
 606.5546875 1563 606.5546875 1563 618.04296875 1484 c 1,10,-1
 552.887695312 1382 l 1,11,-1
 537.403320312 1360 l 1,12,-1
 526.986328125 1370 l 1,13,14
 527.99609375 1389 527.99609375 1389 532.03515625 1414.5 c 128,-1,15
 536.073242188 1440 536.073242188 1440 524.6171875 1475 c 1,16,17
 500.90234375 1521 500.90234375 1521 461.90234375 1521 c 0,18,19
 416.90234375 1521 416.90234375 1521 375.70703125 1444 c 128,-1,20
 334.51171875 1367 334.51171875 1367 309.486328125 1209 c 2,21,-1
 294.756835938 1116 l 1,22,-1
 435.756835938 1116 l 1,23,-1
 417.54296875 1001 l 1,24,-1
 276.54296875 1001 l 1,25,-1
 118 0 l 1,26,-1
 25 0 l 1,27,-1
 183.54296875 1001 l 1,0,-1
EndSplineSet
EndChar

StartChar: g
Encoding: 103 103 301
Width: 489
VWidth: 2298
GlyphClass: 2
Flags: HW
AnchorPoint: "Anchor-2" 120.363 -225 basechar 0
AnchorPoint: "Anchor-0" 305.391 1120 basechar 0
LayerCount: 2
Fore
SplineSet
37.4345703125 28 m 0,0,1
 25.7138671875 -46 25.7138671875 -46 52.8544921875 -83 c 128,-1,2
 79.994140625 -120 79.994140625 -120 130.994140625 -120 c 0,3,4
 193.994140625 -120 193.994140625 -120 220.829101562 -80 c 128,-1,5
 247.665039062 -40 247.665039062 -40 258.751953125 30 c 0,6,7
 270.155273438 102 270.155273438 102 258.278320312 137.5 c 128,-1,8
 246.400390625 173 246.400390625 173 191.400390625 173 c 0,9,10
 130.400390625 173 130.400390625 173 92.0927734375 190 c 1,11,12
 71.18359375 159 71.18359375 159 59.060546875 123.5 c 128,-1,13
 46.9375 88 46.9375 88 37.4345703125 28 c 0,0,1
220.813476562 586 m 128,-1,15
 265.813476562 586 265.813476562 586 287.81640625 646 c 128,-1,16
 309.819335938 706 309.819335938 706 326.608398438 812 c 128,-1,17
 343.396484375 918 343.396484375 918 339.900390625 978 c 128,-1,18
 336.403320312 1038 336.403320312 1038 292.403320312 1038 c 0,19,20
 247.403320312 1038 247.403320312 1038 224.400390625 978 c 128,-1,21
 201.396484375 918 201.396484375 918 184.608398438 812 c 128,-1,22
 167.819335938 706 167.819335938 706 171.81640625 646 c 128,-1,14
 175.813476562 586 175.813476562 586 220.813476562 586 c 128,-1,15
201.490234375 464 m 0,23,24
 168.490234375 464 168.490234375 464 144.340820312 482 c 1,25,26
 124.481445312 445 124.481445312 445 117.829101562 403 c 0,27,28
 109.592773438 351 109.592773438 351 128.133789062 326 c 128,-1,29
 146.673828125 301 146.673828125 301 227.673828125 301 c 0,30,31
 321.673828125 301 321.673828125 301 349.666015625 231.5 c 128,-1,32
 377.658203125 162 377.658203125 162 360.39453125 53 c 0,33,34
 348.357421875 -23 348.357421875 -23 317.928710938 -92 c 128,-1,35
 287.5 -161 287.5 -161 236.768554688 -203.5 c 128,-1,36
 186.037109375 -246 186.037109375 -246 111.037109375 -246 c 0,37,38
 13.037109375 -246 13.037109375 -246 -35.326171875 -182 c 128,-1,39
 -83.689453125 -118 -83.689453125 -118 -63.416015625 10 c 0,40,41
 -50.5869140625 91 -50.5869140625 91 -21.138671875 147.5 c 128,-1,42
 8.310546875 204 8.310546875 204 43.5869140625 231 c 1,43,44
 10.189453125 279 10.189453125 279 23.96875 366 c 0,45,46
 31.5712890625 414 31.5712890625 414 53.119140625 458.5 c 128,-1,47
 74.6669921875 503 74.6669921875 503 101.161132812 544 c 1,48,49
 64.890625 637 64.890625 637 92.6083984375 812 c 0,50,51
 118.108398438 973 118.108398438 973 176.758789062 1065.5 c 128,-1,52
 235.409179688 1158 235.409179688 1158 311.409179688 1158 c 0,53,54
 389.409179688 1158 389.409179688 1158 417.887695312 1060 c 1,55,56
 477.696289062 1148.11035156 477.696289062 1148.11035156 539.715820312 1148.11035156 c 0,57,58
 546.677734375 1148.11035156 546.677734375 1148.11035156 553.666992188 1147 c 1,59,-1
 544.393554688 1019 l 1,60,61
 514.34375 1025 514.34375 1025 486.418945312 1016 c 128,-1,62
 458.493164062 1007 458.493164062 1007 430.741210938 977 c 1,63,64
 433.337890625 905 433.337890625 905 419.608398438 812 c 0,65,66
 394.108398438 651 394.108398438 651 336.799804688 557.5 c 128,-1,67
 279.490234375 464 279.490234375 464 201.490234375 464 c 0,23,24
EndSplineSet
EndChar

StartChar: h
Encoding: 104 104 308
Width: 512
VWidth: 2441
GlyphClass: 2
Flags: HW
AnchorPoint: "Anchor-4" 230.235 1340 basechar 0
AnchorPoint: "Anchor-2" 160 0 basechar 0
AnchorPoint: "Anchor-0" 262.217 1624 basechar 0
LayerCount: 2
Fore
SplineSet
195.216796875 1624 m 1,0,-1
 323.216796875 1624 l 1,1,-1
 320.5234375 1607 l 1,2,3
 304.306640625 1593 304.306640625 1593 298.03515625 1575.5 c 128,-1,4
 291.762695312 1558 291.762695312 1558 285.110351562 1516 c 2,5,-1
 194.356445312 943 l 1,6,7
 286.572265625 1142.00488281 286.572265625 1142.00488281 388.8515625 1142.00488281 c 0,8,9
 389.36328125 1142.00488281 389.36328125 1142.00488281 389.875 1142 c 0,10,11
 450.875 1142 450.875 1142 483.380859375 1101 c 128,-1,12
 515.887695312 1060 515.887695312 1060 518.811523438 958.5 c 128,-1,13
 521.735351562 857 521.735351562 857 493.068359375 676 c 2,14,-1
 386 0 l 1,15,-1
 279 0 l 1,16,-1
 385.276367188 671 l 2,17,18
 412.993164062 846 412.993164062 846 406.559570312 928.5 c 128,-1,19
 400.126953125 1011 400.126953125 1011 353.126953125 1011 c 0,20,21
 299.126953125 1011 299.126953125 1011 235.892578125 908.5 c 128,-1,22
 172.658203125 806 172.658203125 806 146.840820312 643 c 2,23,-1
 45 0 l 1,24,-1
 -62 0 l 1,25,-1
 195.216796875 1624 l 1,0,-1
EndSplineSet
EndChar

StartChar: i
Encoding: 105 105 313
Width: 450
VWidth: 2441
GlyphClass: 2
Flags: HW
AnchorPoint: "Anchor-3" 250 0 basechar 0
AnchorPoint: "Anchor-2" 134 0 basechar 0
AnchorPoint: "Anchor-0" 367.934 1477 basechar 0
LayerCount: 2
Fore
SplineSet
-62 0 m 1,0,-1
 -41.0927734375 132 l 1,1,-1
 102.907226562 132 l 1,2,-1
 237.692382812 983 l 1,3,-1
 100.692382812 983 l 1,4,-1
 121.756835938 1116 l 1,5,-1
 370.756835938 1116 l 1,6,-1
 214.907226562 132 l 1,7,-1
 344.907226562 132 l 1,8,-1
 324 0 l 1,9,-1
 -62 0 l 1,0,-1
349.412109375 1379 m 0,10,11
 317.412109375 1379 317.412109375 1379 298.346679688 1407 c 128,-1,12
 279.28125 1435 279.28125 1435 285.6171875 1475 c 0,13,14
 292.26953125 1517 292.26953125 1517 320.125 1544.5 c 128,-1,15
 347.98046875 1572 347.98046875 1572 379.98046875 1572 c 0,16,17
 414.98046875 1572 414.98046875 1572 433.545898438 1544 c 128,-1,18
 452.110351562 1516 452.110351562 1516 445.6171875 1475 c 0,19,20
 439.440429688 1436 439.440429688 1436 411.92578125 1407.5 c 128,-1,21
 384.412109375 1379 384.412109375 1379 349.412109375 1379 c 0,10,11
EndSplineSet
Substitution2: "'locl' Localized Forms in Latin lookup 18 subtable" i.loclTRK
Substitution2: "'locl' Localized Forms in Latin lookup 17 subtable" i.loclTRK
Substitution2: "'locl' Localized Forms in Latin lookup 16 subtable" i.loclTRK
Substitution2: "'locl' Localized Forms in Latin lookup 15 subtable" i.loclTRK
Substitution2: "'locl' Localized Forms in Latin lookup 14 subtable" i.loclTRK
Substitution2: "Single Substitution lookup 4 subtable" dotlessi
Substitution2: "Single Substitution lookup 3 subtable" dotlessi
AlternateSubs2: "'aalt' Access All Alternates in Latin lookup 1 subtable" dotlessi i.loclTRK
EndChar

StartChar: dotlessi
Encoding: 305 305 314
Width: 450
VWidth: 2441
GlyphClass: 2
Flags: HW
AnchorPoint: "Anchor-3" 250 0 basechar 0
AnchorPoint: "Anchor-2" 134 0 basechar 0
AnchorPoint: "Anchor-0" 310.757 1116 basechar 0
LayerCount: 2
Fore
SplineSet
-62 0 m 1,0,-1
 -41.0927734375 132 l 1,1,-1
 102.907226562 132 l 1,2,-1
 237.692382812 983 l 1,3,-1
 100.692382812 983 l 1,4,-1
 121.756835938 1116 l 1,5,-1
 370.756835938 1116 l 1,6,-1
 214.907226562 132 l 1,7,-1
 344.907226562 132 l 1,8,-1
 324 0 l 1,9,-1
 -62 0 l 1,0,-1
EndSplineSet
EndChar

StartChar: j
Encoding: 106 106 329
Width: 486
VWidth: 2362
GlyphClass: 2
Flags: HW
AnchorPoint: "Anchor-2" 158.336 -282 basechar 0
AnchorPoint: "Anchor-0" 525.359 1486 basechar 0
LayerCount: 2
Fore
SplineSet
79.037109375 -246 m 0,0,1
 30.037109375 -246 30.037109375 -246 -14.58203125 -221.5 c 128,-1,2
 -59.2021484375 -197 -59.2021484375 -197 -85.4404296875 -148 c 1,3,-1
 -6.2763671875 -27 l 1,4,-1
 5.0498046875 -6 l 1,5,-1
 18.94140625 -13 l 1,6,7
 23.248046875 -30 23.248046875 -30 21.3427734375 -51.5 c 128,-1,8
 19.4375 -73 19.4375 -73 36.5283203125 -104 c 1,9,10
 58.0439453125 -126 58.0439453125 -126 99.884765625 -127 c 0,11,12
 201.884765625 -127 201.884765625 -127 250.66796875 181 c 2,13,-1
 386.0859375 1036 l 1,14,-1
 185.0859375 1036 l 1,15,-1
 204.250976562 1157 l 1,16,-1
 505.250976562 1157 l 1,17,-1
 351.934570312 189 l 2,18,19
 325.16796875 20 325.16796875 20 287.200195312 -74.5 c 128,-1,20
 249.233398438 -169 249.233398438 -169 198.134765625 -207.5 c 128,-1,21
 147.037109375 -246 147.037109375 -246 79.037109375 -246 c 0,0,1
507.104492188 1396 m 0,22,23
 478.104492188 1396 478.104492188 1396 461.72265625 1422 c 128,-1,24
 445.340820312 1448 445.340820312 1448 450.883789062 1483 c 0,25,26
 456.90234375 1521 456.90234375 1521 481.94140625 1546.5 c 128,-1,27
 506.98046875 1572 506.98046875 1572 534.98046875 1572 c 0,28,29
 565.98046875 1572 565.98046875 1572 583.44140625 1546.5 c 128,-1,30
 600.90234375 1521 600.90234375 1521 594.883789062 1483 c 0,31,32
 589.182617188 1447 589.182617188 1447 563.643554688 1421.5 c 128,-1,33
 538.104492188 1396 538.104492188 1396 507.104492188 1396 c 0,22,23
EndSplineSet
Substitution2: "Single Substitution lookup 4 subtable" uni0237
Substitution2: "Single Substitution lookup 3 subtable" uni0237
Substitution2: "'aalt' Access All Alternates in Latin lookup 0 subtable" uni0237
EndChar

StartChar: uni0237
Encoding: 567 567 330
Width: 437
VWidth: 2286
GlyphClass: 2
Flags: HW
AnchorPoint: "Anchor-2" 150.494 -281 basechar 0
AnchorPoint: "Anchor-0" 456.757 1116 basechar 0
LayerCount: 2
Fore
SplineSet
74.037109375 -246 m 0,0,1
 27.037109375 -246 27.037109375 -246 -16.740234375 -222.5 c 128,-1,2
 -60.5185546875 -199 -60.5185546875 -199 -85.916015625 -151 c 1,3,-1
 -9.2265625 -33 l 1,4,-1
 1.94140625 -13 l 1,5,-1
 14.990234375 -19 l 1,6,7
 18.2978515625 -36 18.2978515625 -36 17.4716796875 -57 c 128,-1,8
 16.646484375 -78 16.646484375 -78 32.89453125 -108 c 1,9,10
 53.568359375 -129 53.568359375 -129 94.41015625 -130 c 0,11,12
 193.41015625 -130 193.41015625 -130 240.608398438 168 c 2,13,-1
 372.225585938 999 l 1,14,-1
 176.225585938 999 l 1,15,-1
 194.756835938 1116 l 1,16,-1
 487.756835938 1116 l 1,17,-1
 339.034179688 177 l 2,18,19
 313.05859375 13 313.05859375 13 275.987304688 -79 c 128,-1,20
 238.916015625 -171 238.916015625 -171 189.4765625 -208.5 c 128,-1,21
 140.037109375 -246 140.037109375 -246 74.037109375 -246 c 0,0,1
EndSplineSet
EndChar

StartChar: k
Encoding: 107 107 332
Width: 535
VWidth: 2441
GlyphClass: 2
Flags: HW
AnchorPoint: "Anchor-2" 142 0 basechar 0
AnchorPoint: "Anchor-0" 244.217 1624 basechar 0
LayerCount: 2
Fore
SplineSet
172.78515625 529 m 1,0,-1
 102.037109375 398 l 1,1,-1
 33 0 l 1,2,-1
 -62 0 l 1,3,-1
 195.216796875 1624 l 1,4,-1
 310.216796875 1624 l 1,5,-1
 307.5234375 1607 l 1,6,7
 293.306640625 1593 293.306640625 1593 286.53515625 1575.5 c 128,-1,8
 279.762695312 1558 279.762695312 1558 273.110351562 1516 c 2,9,-1
 128.189453125 601 l 1,10,-1
 431.548828125 1121 l 1,11,12
 442.756835938 1116 442.756835938 1116 464.203125 1112.5 c 128,-1,13
 485.6484375 1109 485.6484375 1109 500.6484375 1109 c 2,14,-1
 528.6484375 1109 l 1,15,-1
 255.474609375 647 l 1,16,-1
 386 0 l 1,17,-1
 284.416015625 -10 l 1,18,-1
 172.78515625 529 l 1,0,-1
EndSplineSet
EndChar

StartChar: kgreenlandic
Encoding: 312 312 334
Width: 535
VWidth: 2441
GlyphClass: 2
Flags: HW
AnchorPoint: "Anchor-2" 149 0 basechar 0
AnchorPoint: "Anchor-0" 169.757 1116 basechar 0
LayerCount: 2
Fore
SplineSet
172.78515625 529 m 1,0,-1
 102.037109375 398 l 1,1,-1
 33 0 l 1,2,-1
 -62 0 l 1,3,-1
 114.756835938 1116 l 1,4,-1
 229.756835938 1116 l 1,5,-1
 227.064453125 1099 l 1,6,7
 212.846679688 1085 212.846679688 1085 206.075195312 1067.5 c 128,-1,8
 199.303710938 1050 199.303710938 1050 192.809570312 1009 c 2,9,-1
 128.189453125 601 l 1,10,-1
 431.548828125 1121 l 1,11,12
 442.756835938 1116 442.756835938 1116 464.203125 1112.5 c 128,-1,13
 485.6484375 1109 485.6484375 1109 500.6484375 1109 c 2,14,-1
 528.6484375 1109 l 1,15,-1
 255.474609375 647 l 1,16,-1
 386 0 l 1,17,-1
 284.416015625 -10 l 1,18,-1
 172.78515625 529 l 1,0,-1
EndSplineSet
EndChar

StartChar: l
Encoding: 108 108 335
Width: 481
VWidth: 2441
GlyphClass: 2
Flags: HW
AnchorPoint: "Anchor-4" 236.537 559 basechar 0
AnchorPoint: "Anchor-2" 148 0 basechar 0
AnchorPoint: "Anchor-1" 605.757 1116 basechar 0
AnchorPoint: "Anchor-0" 405.217 1624 basechar 0
LayerCount: 2
Fore
SplineSet
-62 0 m 1,0,-1
 -41.0927734375 132 l 1,1,-1
 114.907226562 132 l 1,2,-1
 330.151367188 1491 l 1,3,-1
 181.151367188 1491 l 1,4,-1
 202.216796875 1624 l 1,5,-1
 461.216796875 1624 l 1,6,-1
 224.907226562 132 l 1,7,-1
 375.907226562 132 l 1,8,-1
 355 0 l 1,9,-1
 -62 0 l 1,0,-1
EndSplineSet
EndChar

StartChar: ldot
Encoding: 320 320 339
Width: 512
VWidth: 2441
GlyphClass: 1
Flags: HW
LayerCount: 2
Fore
SplineSet
415.344726562 703 m 128,-1,1
 381.344726562 703 381.344726562 703 362.912109375 735 c 128,-1,2
 344.48046875 767 344.48046875 767 351.450195312 811 c 128,-1,3
 358.418945312 855 358.418945312 855 386.908203125 886.5 c 128,-1,4
 415.396484375 918 415.396484375 918 449.396484375 918 c 128,-1,5
 483.396484375 918 483.396484375 918 502.408203125 886.5 c 128,-1,6
 521.418945312 855 521.418945312 855 514.450195312 811 c 128,-1,7
 507.48046875 767 507.48046875 767 478.412109375 735 c 128,-1,0
 449.344726562 703 449.344726562 703 415.344726562 703 c 128,-1,1
-62 0 m 1,8,-1
 -41.0927734375 132 l 1,9,-1
 87.9072265625 132 l 1,10,-1
 303.151367188 1491 l 1,11,-1
 181.151367188 1491 l 1,12,-1
 202.216796875 1624 l 1,13,-1
 427.216796875 1624 l 1,14,-1
 190.907226562 132 l 1,15,-1
 347.907226562 132 l 1,16,-1
 327 0 l 1,17,-1
 -62 0 l 1,8,-1
EndSplineSet
EndChar

StartChar: uni01C9
Encoding: 457 457 341
Width: 520
VWidth: 2368
GlyphClass: 1
Flags: HW
LayerCount: 2
Fore
SplineSet
124.037109375 -246 m 0,0,1
 78.037109375 -246 78.037109375 -246 44.630859375 -217 c 128,-1,2
 11.2236328125 -188 11.2236328125 -188 -5.1240234375 -146 c 1,3,-1
 70.099609375 -12 l 1,4,5
 75.7236328125 -27 75.7236328125 -27 74.060546875 -37.5 c 128,-1,6
 72.3974609375 -48 72.3974609375 -48 77.259765625 -61.5 c 128,-1,7
 82.12109375 -75 82.12109375 -75 103.002929688 -101 c 0,8,9
 113.260742188 -112 113.260742188 -112 124.626953125 -116 c 128,-1,10
 135.994140625 -120 135.994140625 -120 149.994140625 -120 c 0,11,12
 203.994140625 -120 203.994140625 -120 240.447265625 -54 c 128,-1,13
 276.900390625 12 276.900390625 12 303.826171875 182 c 2,14,-1
 439.561523438 1039 l 1,15,-1
 293.561523438 1039 l 1,16,-1
 312.725585938 1160 l 1,17,-1
 551.725585938 1160 l 1,18,-1
 398.092773438 190 l 2,19,20
 371.16796875 20 371.16796875 20 331.700195312 -74.5 c 128,-1,21
 292.233398438 -169 292.233398438 -169 240.293945312 -206.5 c 128,-1,22
 188.354492188 -244 188.354492188 -244 124.037109375 -246 c 0,0,1
526.896484375 1401 m 0,23,24
 499.896484375 1401 499.896484375 1401 484.935546875 1426.5 c 128,-1,25
 469.974609375 1452 469.974609375 1452 475.67578125 1488 c 0,26,27
 481.694335938 1526 481.694335938 1526 505.233398438 1551.5 c 128,-1,28
 528.772460938 1577 528.772460938 1577 554.772460938 1577 c 0,29,30
 583.772460938 1577 583.772460938 1577 599.733398438 1551.5 c 128,-1,31
 615.694335938 1526 615.694335938 1526 609.67578125 1488 c 0,32,33
 603.974609375 1452 603.974609375 1452 579.935546875 1426.5 c 128,-1,34
 555.896484375 1401 555.896484375 1401 526.896484375 1401 c 0,23,24
-51.66796875 141 m 1,35,-1
 -32.5029296875 262 l 1,36,-1
 28.4970703125 262 l 1,37,-1
 225.051757812 1503 l 1,38,-1
 171.051757812 1503 l 1,39,-1
 190.216796875 1624 l 1,40,-1
 337.216796875 1624 l 1,41,-1
 121.497070312 262 l 1,42,-1
 239.497070312 262 l 1,43,-1
 220.33203125 141 l 1,44,-1
 -51.66796875 141 l 1,35,-1
EndSplineSet
EndChar

StartChar: lslash
Encoding: 322 322 343
Width: 481
VWidth: 2441
GlyphClass: 1
Flags: HW
LayerCount: 2
Fore
SplineSet
-62 0 m 1,0,-1
 -41.0927734375 132 l 1,1,-1
 109.907226562 132 l 1,2,-1
 197.493164062 685 l 1,3,-1
 104.198242188 620 l 1,4,-1
 129.22265625 778 l 1,5,-1
 222.834960938 845 l 1,6,-1
 325.151367188 1491 l 1,7,-1
 181.151367188 1491 l 1,8,-1
 202.216796875 1624 l 1,9,-1
 461.216796875 1624 l 1,10,-1
 347.49609375 906 l 1,11,-1
 458.166992188 986 l 1,12,-1
 431.875 820 l 1,13,-1
 321.99609375 745 l 1,14,-1
 224.907226562 132 l 1,15,-1
 375.907226562 132 l 1,16,-1
 355 0 l 1,17,-1
 -62 0 l 1,0,-1
EndSplineSet
EndChar

StartChar: m
Encoding: 109 109 344
Width: 501
VWidth: 2441
GlyphClass: 2
Flags: HW
AnchorPoint: "Anchor-2" 159 0 basechar 0
AnchorPoint: "Anchor-0" 584.757 1116 basechar 0
LayerCount: 2
Fore
SplineSet
-64 0 m 1,0,-1
 112.756835938 1116 l 1,1,-1
 208.756835938 1116 l 1,2,-1
 191.334960938 1006 l 1,3,4
 212.99609375 1067 212.99609375 1067 237.435546875 1104.5 c 128,-1,5
 261.875 1142 261.875 1142 288.875 1142 c 0,6,7
 319.875 1142 319.875 1142 333.088867188 1096 c 128,-1,8
 346.303710938 1050 346.303710938 1050 341.05859375 979 c 1,9,10
 364.620117188 1052 364.620117188 1052 400.748046875 1097 c 128,-1,11
 436.875 1142 436.875 1142 469.875 1142 c 0,12,13
 516.875 1142 516.875 1142 530.6796875 1065 c 0,14,15
 542.256835938 1000.41894531 542.256835938 1000.41894531 526.012695312 897.853515625 c 0,16,17
 522.888671875 878.12890625 522.888671875 878.12890625 518.735351562 857 c 1,18,-1
 383 0 l 1,19,-1
 287 0 l 1,20,-1
 412.440429688 792 l 2,21,22
 428.75390625 895 428.75390625 895 435.356445312 943 c 128,-1,23
 441.958984375 991 441.958984375 991 439.493164062 1007 c 128,-1,24
 437.02734375 1023 437.02734375 1023 425.02734375 1023 c 0,25,26
 407.02734375 1023 407.02734375 1023 387.3203125 977.5 c 128,-1,27
 367.614257812 932 367.614257812 932 351.240234375 866.5 c 128,-1,28
 334.866210938 801 334.866210938 801 324.729492188 737 c 2,29,-1
 208 0 l 1,30,-1
 112 0 l 1,31,-1
 234.90625 776 l 2,32,33
 256.921875 915 256.921875 915 262.078125 966.5 c 128,-1,34
 267.235351562 1018 267.235351562 1018 246.235351562 1018 c 0,35,36
 232.235351562 1018 232.235351562 1018 200.935546875 943.5 c 128,-1,37
 169.635742188 869 169.635742188 869 149.99609375 745 c 2,38,-1
 32 0 l 1,39,-1
 -64 0 l 1,0,-1
EndSplineSet
EndChar

StartChar: n
Encoding: 110 110 346
Width: 512
VWidth: 2441
GlyphClass: 2
Flags: HW
AnchorPoint: "Anchor-2" 171 0 basechar 0
AnchorPoint: "Anchor-0" 354.757 1116 basechar 0
LayerCount: 2
Fore
SplineSet
-62 0 m 1,0,-1
 114.756835938 1116 l 1,1,-1
 221.756835938 1116 l 1,2,-1
 194.356445312 943 l 1,3,4
 286.572265625 1142.00488281 286.572265625 1142.00488281 395.782226562 1142.00488281 c 0,5,6
 396.328125 1142.00488281 396.328125 1142.00488281 396.875 1142 c 0,7,8
 452.875 1142 452.875 1142 485.490234375 1108 c 128,-1,9
 518.104492188 1074 518.104492188 1074 521.979492188 978.5 c 128,-1,10
 525.853515625 883 525.853515625 883 497.02734375 701 c 2,11,-1
 386 0 l 1,12,-1
 279 0 l 1,13,-1
 389.235351562 696 l 2,14,15
 416.953125 871 416.953125 871 408.540039062 941 c 128,-1,16
 400.126953125 1011 400.126953125 1011 353.126953125 1011 c 0,17,18
 299.126953125 1011 299.126953125 1011 237.396484375 918 c 128,-1,19
 175.666992188 825 175.666992188 825 150.484375 666 c 2,20,-1
 45 0 l 1,21,-1
 -62 0 l 1,0,-1
EndSplineSet
EndChar

StartChar: eng
Encoding: 331 331 352
Width: 475
VWidth: 2288
GlyphClass: 1
Flags: HW
LayerCount: 2
Fore
SplineSet
117.037109375 -246 m 0,0,1
 57.037109375 -246 57.037109375 -246 23.2236328125 -188 c 1,2,-1
 79.705078125 -65 l 1,3,4
 90.388671875 -67 90.388671875 -67 92.1708984375 -81 c 128,-1,5
 93.953125 -95 93.953125 -95 101.657226562 -109.5 c 128,-1,6
 109.360351562 -124 109.360351562 -124 138.360351562 -124 c 0,7,8
 192.360351562 -124 192.360351562 -124 228.748046875 -30 c 128,-1,9
 265.13671875 64 265.13671875 64 291.428710938 230 c 2,10,-1
 369.987304688 726 l 2,11,12
 389.78515625 851 389.78515625 851 390.421875 915 c 128,-1,13
 391.05859375 979 391.05859375 979 376.122070312 1001.5 c 128,-1,14
 361.185546875 1024 361.185546875 1024 336.185546875 1024 c 0,15,16
 284.185546875 1024 284.185546875 1024 226.693359375 932.5 c 128,-1,17
 169.201171875 841 169.201171875 841 147.02734375 701 c 2,18,-1
 57.0654296875 133 l 1,19,-1
 -40.9345703125 133 l 1,20,-1
 115.232421875 1119 l 1,21,-1
 213.232421875 1119 l 1,22,-1
 188.999023438 966 l 1,23,24
 234.412109375 1057 234.412109375 1057 274.143554688 1099.5 c 128,-1,25
 313.875 1142 313.875 1142 369.875 1142 c 0,26,27
 412.875 1142 412.875 1142 444.806640625 1110 c 128,-1,28
 476.73828125 1078 476.73828125 1078 484.221679688 989.5 c 128,-1,29
 491.704101562 901 491.704101562 901 464.62109375 730 c 2,30,-1
 389.229492188 254 l 2,31,32
 359.611328125 67 359.611328125 67 318.34765625 -42 c 128,-1,33
 277.083984375 -151 277.083984375 -151 226.060546875 -198.5 c 128,-1,34
 175.037109375 -246 175.037109375 -246 117.037109375 -246 c 0,0,1
EndSplineSet
EndChar

StartChar: o
Encoding: 111 111 355
Width: 512
VWidth: 2441
GlyphClass: 2
Flags: HW
AnchorPoint: "Anchor-4" 251.537 559 basechar 0
AnchorPoint: "Anchor-3" 204.801 24 basechar 0
AnchorPoint: "Anchor-2" 163 0 basechar 0
AnchorPoint: "Anchor-1" 446.68 1065 basechar 0
AnchorPoint: "Anchor-0" 339.757 1116 basechar 0
LayerCount: 2
Fore
SplineSet
180.739257812 112 m 128,-1,1
 239.739257812 112 239.739257812 112 286.815429688 213.5 c 128,-1,2
 333.890625 315 333.890625 315 372.853515625 561 c 0,3,4
 413.083007812 815 413.083007812 815 396.446289062 912 c 128,-1,5
 379.809570312 1009 379.809570312 1009 322.809570312 1009 c 0,6,7
 267.809570312 1009 267.809570312 1009 218.446289062 912 c 128,-1,8
 169.083007812 815 169.083007812 815 128.853515625 561 c 0,9,10
 89.732421875 314 89.732421875 314 105.736328125 213 c 128,-1,0
 121.739257812 112 121.739257812 112 180.739257812 112 c 128,-1,1
159.990234375 -19 m 0,11,12
 94.990234375 -19 94.990234375 -19 52.3603515625 37 c 128,-1,13
 9.7294921875 93 9.7294921875 93 1.3447265625 220 c 128,-1,14
 -7.041015625 347 -7.041015625 347 26.537109375 559 c 0,15,16
 60.58984375 774 60.58984375 774 109.204101562 901 c 128,-1,17
 157.819335938 1028 157.819335938 1028 218.188476562 1084 c 128,-1,18
 278.55859375 1140 278.55859375 1140 343.55859375 1140 c 128,-1,19
 408.55859375 1140 408.55859375 1140 450.188476562 1084 c 128,-1,20
 491.819335938 1028 491.819335938 1028 500.204101562 901 c 128,-1,21
 508.58984375 774 508.58984375 774 474.537109375 559 c 0,22,23
 424.329101562 242 424.329101562 242 342.16015625 111.5 c 128,-1,24
 259.990234375 -19 259.990234375 -19 159.990234375 -19 c 0,11,12
EndSplineSet
Substitution2: "Single Substitution lookup 29 subtable" ordmasculine
Substitution2: "'aalt' Access All Alternates in Latin lookup 0 subtable" ordmasculine
EndChar

StartChar: oslash
Encoding: 248 248 383
Width: 512
VWidth: 2441
GlyphClass: 2
Flags: HW
AnchorPoint: "Anchor-4" 251.537 559 basechar 0
AnchorPoint: "Anchor-3" 204.801 24 basechar 0
AnchorPoint: "Anchor-2" 163 0 basechar 0
AnchorPoint: "Anchor-1" 446.68 1065 basechar 0
AnchorPoint: "Anchor-0" 339.757 1116 basechar 0
LayerCount: 2
Fore
SplineSet
180.739257812 112 m 0,0,1
 239.739257812 112 239.739257812 112 286.815429688 213.5 c 128,-1,2
 333.890625 315 333.890625 315 372.853515625 561 c 0,3,4
 402.313476562 747 402.313476562 747 399.943359375 852 c 1,5,-1
 118.5 161 l 1,6,7
 137.739257812 112 137.739257812 112 180.739257812 112 c 0,0,1
128.853515625 561 m 0,8,9
 102.561523438 395 102.561523438 395 101.881835938 296 c 1,10,-1
 378.266601562 974 l 1,11,12
 357.809570312 1009 357.809570312 1009 322.809570312 1009 c 0,13,14
 267.809570312 1009 267.809570312 1009 218.446289062 912 c 128,-1,15
 169.083007812 815 169.083007812 815 128.853515625 561 c 0,8,9
6.9443359375 -114 m 1,16,-1
 -55.4130859375 -91 l 1,17,-1
 20.8388671875 100 l 1,18,19
 -0.7080078125 166 -0.7080078125 166 -0.2314453125 279.5 c 128,-1,20
 0.2451171875 393 0.2451171875 393 26.537109375 559 c 0,21,22
 60.58984375 774 60.58984375 774 109.204101562 901 c 128,-1,23
 157.819335938 1028 157.819335938 1028 218.188476562 1084 c 128,-1,24
 278.55859375 1140 278.55859375 1140 343.55859375 1140 c 0,25,26
 396.55859375 1140 396.55859375 1140 431.172851562 1106 c 1,27,-1
 490.98046875 1250 l 1,28,-1
 552.020507812 1225 l 1,29,-1
 475.245117188 1037 l 1,30,31
 498.474609375 969 498.474609375 969 500.6015625 853 c 128,-1,32
 502.729492188 737 502.729492188 737 474.537109375 559 c 0,33,34
 424.329101562 242 424.329101562 242 342.16015625 111.5 c 128,-1,35
 259.990234375 -19 259.990234375 -19 159.990234375 -19 c 0,36,37
 100.990234375 -19 100.990234375 -19 62.326171875 21 c 1,38,-1
 6.9443359375 -114 l 1,16,-1
EndSplineSet
EndChar

StartChar: oe
Encoding: 339 339 389
Width: 430
VWidth: 2441
GlyphClass: 1
Flags: HW
LayerCount: 2
Fore
SplineSet
46.421875 110 m 128,-1,1
 64.421875 110 64.421875 110 79.9111328125 141.5 c 128,-1,2
 95.400390625 173 95.400390625 173 102.369140625 217 c 0,3,4
 103.161132812 222 103.161132812 222 104.299804688 235.5 c 128,-1,5
 105.4375 249 105.4375 249 107.239257812 273 c 0,6,7
 123.639648438 446 123.639648438 446 145.021484375 581 c 0,8,9
 167.51171875 723 167.51171875 723 183.416015625 795 c 128,-1,10
 199.319335938 867 199.319335938 867 201.853515625 883 c 0,11,12
 209.138671875 929 209.138671875 929 206.578125 966.5 c 128,-1,13
 204.017578125 1004 204.017578125 1004 186.017578125 1004 c 0,14,15
 173.017578125 1004 173.017578125 1004 153.419921875 965.5 c 128,-1,16
 133.822265625 927 133.822265625 927 110.909179688 836 c 128,-1,17
 87.99609375 745 87.99609375 745 62.337890625 583 c 0,18,19
 33.6708984375 402 33.6708984375 402 23.857421875 299 c 128,-1,20
 14.04296875 196 14.04296875 196 21.232421875 153 c 128,-1,0
 28.421875 110 28.421875 110 46.421875 110 c 128,-1,1
246.384765625 678 m 1,21,-1
 357.384765625 678 l 1,22,23
 384.78515625 851 384.78515625 851 388.3515625 933.5 c 128,-1,24
 391.918945312 1016 391.918945312 1016 350.918945312 1016 c 0,25,26
 315.918945312 1016 315.918945312 1016 293.743164062 926.5 c 128,-1,27
 271.567382812 837 271.567382812 837 246.384765625 678 c 1,21,-1
215.248046875 -30 m 0,28,29
 149.248046875 -30 149.248046875 -30 120.869140625 56 c 1,30,31
 68.7236328125 -27 68.7236328125 -27 15.7236328125 -27 c 0,32,33
 -6.2763671875 -27 -6.2763671875 -27 -26.6337890625 -4 c 128,-1,34
 -46.990234375 19 -46.990234375 19 -57.25 80.5 c 128,-1,35
 -67.509765625 142 -67.509765625 142 -62.3740234375 256.5 c 128,-1,36
 -57.2392578125 371 -57.2392578125 371 -27.7802734375 557 c 0,37,38
 8.0146484375 783 8.0146484375 783 45.4716796875 909 c 128,-1,39
 82.927734375 1035 82.927734375 1035 123.005859375 1086 c 128,-1,40
 163.083007812 1137 163.083007812 1137 207.083007812 1137 c 0,41,42
 262.083007812 1137 262.083007812 1137 277.561523438 1039 c 1,43,44
 328.083007812 1137 328.083007812 1137 386.083007812 1137 c 0,45,46
 425.083007812 1137 425.083007812 1137 445.748046875 1097 c 128,-1,47
 466.412109375 1057 466.412109375 1057 465.627929688 960.5 c 128,-1,48
 464.84375 864 464.84375 864 437.443359375 691 c 2,49,-1
 413.52734375 540 l 1,50,-1
 223.52734375 540 l 1,51,52
 198.126953125 367 198.126953125 367 190.421875 271 c 128,-1,53
 182.716796875 175 182.716796875 175 194.015625 139 c 128,-1,54
 205.313476562 103 205.313476562 103 229.313476562 103 c 0,55,56
 257.313476562 103 257.313476562 103 283.907226562 132 c 128,-1,57
 310.5 161 310.5 161 333.78515625 207 c 1,58,-1
 348.313476562 103 l 1,59,60
 280.248046875 -30 280.248046875 -30 215.248046875 -30 c 0,28,29
EndSplineSet
EndChar

StartChar: p
Encoding: 112 112 390
Width: 512
VWidth: 2304
GlyphClass: 2
Flags: HW
AnchorPoint: "Anchor-2" 188.848 119 basechar 0
AnchorPoint: "Anchor-0" 347.074 1118 basechar 0
LayerCount: 2
Fore
SplineSet
201.736328125 213 m 0,0,1
 228.736328125 213 228.736328125 213 252.374023438 226.5 c 128,-1,2
 276.012695312 240 276.012695312 240 297.84765625 280 c 128,-1,3
 319.682617188 320 319.682617188 320 341.01171875 401 c 128,-1,4
 362.340820312 482 362.340820312 482 384.198242188 620 c 0,5,6
 410.6484375 787 410.6484375 787 412.032226562 871.5 c 128,-1,7
 413.415039062 956 413.415039062 956 392.166992188 986 c 128,-1,8
 370.918945312 1016 370.918945312 1016 330.918945312 1016 c 0,9,10
 276.918945312 1016 276.918945312 1016 221.73828125 917 c 128,-1,11
 166.55859375 818 166.55859375 818 129.655273438 585 c 0,12,13
 98.7109375 377 98.7109375 377 119.723632812 295 c 128,-1,14
 140.736328125 213 140.736328125 213 201.736328125 213 c 0,0,1
-100.962890625 -246 m 1,15,-1
 115.07421875 1118 l 1,16,-1
 214.07421875 1118 l 1,17,-1
 189.999023438 966 l 1,18,19
 218.877929688 1041 218.877929688 1041 266.717773438 1090.5 c 128,-1,20
 314.55859375 1140 314.55859375 1140 366.55859375 1140 c 0,21,22
 412.55859375 1140 412.55859375 1140 445.127929688 1121.5 c 128,-1,23
 477.698242188 1103 477.698242188 1103 496.8828125 1050.5 c 128,-1,24
 516.067382812 998 516.067382812 998 513.991210938 896.5 c 128,-1,25
 511.916015625 795 511.916015625 795 485.1484375 626 c 0,26,27
 451.887695312 416 451.887695312 416 409.515625 300 c 128,-1,28
 367.142578125 184 367.142578125 184 314.357421875 138 c 128,-1,29
 261.571289062 92 261.571289062 92 196.571289062 92 c 0,30,31
 146.571289062 92 146.571289062 92 114.223632812 134 c 128,-1,32
 81.8759765625 176 81.8759765625 176 76.595703125 250 c 1,33,-1
 -1.962890625 -246 l 1,34,-1
 -100.962890625 -246 l 1,15,-1
EndSplineSet
EndChar

StartChar: thorn
Encoding: 254 254 391
Width: 512
VWidth: 2374
GlyphClass: 1
Flags: HW
LayerCount: 2
Fore
SplineSet
203.794921875 226 m 0,0,1
 230.794921875 226 230.794921875 226 254.432617188 239.5 c 128,-1,2
 278.071289062 253 278.071289062 253 300.14453125 294.5 c 128,-1,3
 322.216796875 336 322.216796875 336 343.86328125 419 c 128,-1,4
 365.508789062 502 365.508789062 502 388 644 c 0,5,6
 415.083007812 815 415.083007812 815 416.862304688 902 c 128,-1,7
 418.642578125 989 418.642578125 989 397.551757812 1020 c 128,-1,8
 376.461914062 1051 376.461914062 1051 336.461914062 1051 c 0,9,10
 282.461914062 1051 282.461914062 1051 226.885742188 949.5 c 128,-1,11
 171.309570312 848 171.309570312 848 133.297851562 608 c 0,12,13
 101.403320312 394 101.403320312 394 122.099609375 310 c 128,-1,14
 142.794921875 226 142.794921875 226 203.794921875 226 c 0,0,1
195.216796875 1624 m 1,15,-1
 313.216796875 1624 l 1,16,-1
 310.682617188 1608 l 1,17,18
 295.623046875 1595 295.623046875 1595 290.088867188 1579 c 128,-1,19
 284.5546875 1563 284.5546875 1563 278.536132812 1525 c 2,20,-1
 195.225585938 999 l 1,21,22
 224.421875 1076 224.421875 1076 272.499023438 1127 c 128,-1,23
 320.577148438 1178 320.577148438 1178 372.577148438 1178 c 0,24,25
 418.577148438 1178 418.577148438 1178 451.146484375 1159.5 c 128,-1,26
 483.716796875 1141 483.716796875 1141 502.584960938 1086.5 c 128,-1,27
 521.453125 1032 521.453125 1032 518.98046875 928 c 128,-1,28
 516.508789062 824 516.508789062 824 488.950195312 650 c 0,29,30
 454.739257812 434 454.739257812 434 411.890625 315 c 128,-1,31
 369.04296875 196 369.04296875 196 316.099609375 149 c 128,-1,32
 263.155273438 102 263.155273438 102 198.155273438 102 c 0,33,34
 148.155273438 102 148.155273438 102 115.88671875 144.5 c 128,-1,35
 83.6181640625 187 83.6181640625 187 78.8134765625 264 c 1,36,-1
 -1.962890625 -246 l 1,37,-1
 -100.962890625 -246 l 1,38,-1
 195.216796875 1624 l 1,15,-1
EndSplineSet
EndChar

StartChar: q
Encoding: 113 113 392
Width: 512
VWidth: 2305
GlyphClass: 1
Flags: HW
LayerCount: 2
Fore
SplineSet
197.794921875 226 m 0,0,1
 253.794921875 226 253.794921875 226 303.791992188 327 c 128,-1,2
 353.788085938 428 353.788085938 428 388.474609375 647 c 0,3,4
 421.1015625 853 421.1015625 853 399.881835938 940 c 128,-1,5
 378.661132812 1027 378.661132812 1027 328.661132812 1027 c 0,6,7
 261.661132812 1027 261.661132812 1027 217.143554688 938.5 c 128,-1,8
 172.626953125 850 172.626953125 850 137.624023438 629 c 0,9,10
 103.571289062 414 103.571289062 414 117.182617188 320 c 128,-1,11
 130.794921875 226 130.794921875 226 197.794921875 226 c 0,0,1
249.037109375 -246 m 1,12,-1
 327.754882812 251 l 1,13,14
 293.608398438 168 293.608398438 168 252.827148438 131.5 c 128,-1,15
 215.143554688 97.7724609375 215.143554688 97.7724609375 169.994140625 97.7724609375 c 0,0,0
 166.283203125 97.7724609375 166.283203125 97.7724609375 162.521484375 98 c 0,16,17
 57.1552734375 102 57.1552734375 102 25.6904296875 228.5 c 128,-1,18
 -5.7734375 355 -5.7734375 355 36.5146484375 622 c 0,19,20
 63.2822265625 791 63.2822265625 791 96.0166015625 893.5 c 128,-1,21
 128.750976562 996 128.750976562 996 166.461914062 1051 c 128,-1,22
 204.172851562 1106 204.172851562 1106 246.840820312 1126 c 128,-1,23
 289.508789062 1146 289.508789062 1146 335.508789062 1146 c 0,24,25
 393.508789062 1146 393.508789062 1146 417.088867188 1096 c 128,-1,26
 440.669921875 1046 440.669921875 1046 442.999023438 966 c 1,27,-1
 467.232421875 1119 l 1,28,-1
 563.232421875 1119 l 1,29,-1
 347.037109375 -246 l 1,30,-1
 249.037109375 -246 l 1,12,-1
EndSplineSet
EndChar

StartChar: r
Encoding: 114 114 393
Width: 512
VWidth: 2441
GlyphClass: 2
Flags: HW
AnchorPoint: "Anchor-2" 163 0 basechar 0
AnchorPoint: "Anchor-0" 380.074 1118 basechar 0
LayerCount: 2
Fore
SplineSet
114.756835938 1116 m 1,0,-1
 231.756835938 1116 l 1,1,-1
 199.297851562 930 l 1,2,3
 244.719726562 1040 244.719726562 1040 306.797851562 1091 c 128,-1,4
 368.875 1142 368.875 1142 420.875 1142 c 0,5,6
 512.875 1142 512.875 1142 547.551757812 1020 c 1,7,-1
 489.853515625 883 l 1,8,-1
 481.051757812 859 l 1,9,-1
 466.84375 864 l 1,10,11
 460.853515625 883 460.853515625 883 464.288085938 911 c 128,-1,12
 467.72265625 939 467.72265625 939 449.94921875 972 c 0,13,14
 422.918945312 1016 422.918945312 1016 393.918945312 1016 c 0,15,16
 357.918945312 1016 357.918945312 1016 307.31640625 968 c 128,-1,17
 256.713867188 920 256.713867188 920 212.325195312 826 c 128,-1,18
 167.9375 732 167.9375 732 145.60546875 591 c 2,19,-1
 51.68359375 -2 l 1,20,-1
 -62.31640625 -2 l 1,21,-1
 114.756835938 1116 l 1,0,-1
EndSplineSet
EndChar

StartChar: uni027B
Encoding: 635 635 399
Width: 460
VWidth: 2281
GlyphClass: 1
Flags: HW
LayerCount: 2
Fore
SplineSet
229.037109375 -246 m 0,0,1
 202.037109375 -246 202.037109375 -246 172.576171875 -220.5 c 128,-1,2
 143.115234375 -195 143.115234375 -195 132.092773438 -132 c 128,-1,3
 121.071289062 -69 121.071289062 -69 139.286132812 46 c 2,4,-1
 176.713867188 276 l 1,5,6
 146.092773438 190 146.092773438 190 108.7578125 150 c 128,-1,7
 71.421875 110 71.421875 110 30.421875 110 c 0,8,9
 -0.578125 110 -0.578125 110 -22.0439453125 126 c 128,-1,10
 -43.509765625 142 -43.509765625 142 -59.95703125 196 c 1,11,-1
 -12.9501953125 316 l 1,12,-1
 -5.4658203125 338 l 1,13,-1
 3.216796875 336 l 1,14,15
 4.841796875 321 4.841796875 321 2.728515625 304.5 c 128,-1,16
 0.6142578125 288 0.6142578125 288 7.921875 271 c 0,17,18
 22.4873046875 243 22.4873046875 243 55.4873046875 243 c 0,19,20
 100.487304688 243 100.487304688 243 148.791992188 327 c 128,-1,21
 197.095703125 411 197.095703125 411 226.397460938 596 c 2,22,-1
 309.07421875 1118 l 1,23,-1
 406.07421875 1118 l 1,24,-1
 236.286132812 46 l 2,25,26
 210.944335938 -114 210.944335938 -114 260.944335938 -114 c 0,27,28
 269.944335938 -114 269.944335938 -114 281.236328125 -109 c 128,-1,29
 292.528320312 -104 292.528320312 -104 299.112304688 -94 c 0,30,31
 309.170898438 -81 309.170898438 -81 313.229492188 -68 c 128,-1,32
 317.2890625 -55 317.2890625 -55 324.60546875 -53 c 1,33,-1
 327.540039062 -186 l 1,34,35
 302.997070312 -221 302.997070312 -221 280.517578125 -233.5 c 128,-1,36
 258.037109375 -246 258.037109375 -246 229.037109375 -246 c 0,0,1
EndSplineSet
EndChar

StartChar: uni024D
Encoding: 589 589 402
Width: 512
VWidth: 2441
GlyphClass: 2
Flags: HW
AnchorPoint: "Anchor-2" 179 0 basechar 0
AnchorPoint: "Anchor-0" 394.074 1118 basechar 0
LayerCount: 2
Fore
SplineSet
4.521484375 420 m 1,0,-1
 26.2197265625 557 l 1,1,-1
 60.2197265625 557 l 1,2,-1
 148.756835938 1116 l 1,3,-1
 256.756835938 1116 l 1,4,-1
 224.297851562 930 l 1,5,6
 266.719726562 1040 266.719726562 1040 325.297851562 1091 c 128,-1,7
 383.875 1142 383.875 1142 431.875 1142 c 0,8,9
 517.875 1142 517.875 1142 547.551757812 1020 c 1,10,-1
 491.853515625 883 l 1,11,-1
 484.051757812 859 l 1,12,-1
 470.84375 864 l 1,13,14
 465.853515625 883 465.853515625 883 469.288085938 911 c 128,-1,15
 472.72265625 939 472.72265625 939 456.94921875 972 c 0,16,17
 431.918945312 1016 431.918945312 1016 404.918945312 1016 c 0,18,19
 370.918945312 1016 370.918945312 1016 323.81640625 968 c 128,-1,20
 276.713867188 920 276.713867188 920 234.825195312 826 c 128,-1,21
 192.9375 732 192.9375 732 170.60546875 591 c 2,22,-1
 165.219726562 557 l 1,23,-1
 307.219726562 557 l 1,24,-1
 285.521484375 420 l 1,25,-1
 143.521484375 420 l 1,26,-1
 76.68359375 -2 l 1,27,-1
 -28.31640625 -2 l 1,28,-1
 38.521484375 420 l 1,29,-1
 4.521484375 420 l 1,0,-1
EndSplineSet
EndChar

StartChar: s
Encoding: 115 115 403
Width: 512
VWidth: 2441
GlyphClass: 1
Flags: HW
LayerCount: 2
Fore
SplineSet
155.19921875 -24 m 0,0,1
 63.19921875 -24 63.19921875 -24 18.92578125 9 c 128,-1,2
 -25.34765625 42 -25.34765625 42 -48.37890625 86 c 1,3,-1
 23.052734375 215 l 1,4,-1
 32.537109375 237 l 1,5,-1
 45.7451171875 232 l 1,6,7
 50.052734375 215 50.052734375 215 49.8310546875 191.5 c 128,-1,8
 49.6083984375 168 49.6083984375 168 66.015625 139 c 1,9,10
 90.2138671875 115 90.2138671875 115 118.129882812 105 c 128,-1,11
 146.046875 95 146.046875 95 176.046875 95 c 0,12,13
 229.046875 95 229.046875 95 269.599609375 149 c 128,-1,14
 310.15234375 203 310.15234375 203 325.515625 300 c 0,15,16
 336.602539062 370 336.602539062 370 323.30859375 415.5 c 128,-1,17
 310.015625 461 310.015625 461 250.458984375 508 c 0,18,19
 164.545898438 578 164.545898438 578 119.450195312 650 c 128,-1,20
 74.353515625 722 74.353515625 722 95.4189453125 855 c 0,21,22
 115.05859375 979 115.05859375 979 181.466796875 1060.5 c 128,-1,23
 247.875 1142 247.875 1142 357.875 1142 c 0,24,25
 515.875 1142 515.875 1142 542.958984375 991 c 1,26,-1
 469.745117188 876 l 1,27,-1
 457.418945312 855 l 1,28,-1
 445.52734375 862 l 1,29,30
 441.537109375 881 441.537109375 881 447.813476562 908 c 0,31,32
 448.411132812 910.571289062 448.411132812 910.571289062 448.83203125 913.233398438 c 0,33,34
 452.837890625 938.5234375 452.837890625 938.5234375 440.94921875 972 c 1,35,36
 413.01953125 1025.01855469 413.01953125 1025.01855469 348.737304688 1025.01855469 c 0,37,38
 347.546875 1025.01855469 347.546875 1025.01855469 346.34375 1025 c 0,39,40
 280.34375 1025 280.34375 1025 248.3203125 977.5 c 128,-1,41
 216.297851562 930 216.297851562 930 206.953125 871 c 0,42,43
 198.083007812 815 198.083007812 815 203.040039062 780 c 128,-1,44
 207.99609375 745 207.99609375 745 232.427734375 713 c 128,-1,45
 256.859375 681 256.859375 681 305.416015625 634 c 0,46,47
 361.337890625 583 361.337890625 583 395.056640625 546.5 c 128,-1,48
 428.776367188 510 428.776367188 510 440.015625 461 c 128,-1,49
 451.25390625 412 451.25390625 412 437.31640625 324 c 0,50,51
 407.857421875 138 407.857421875 138 331.028320312 57 c 128,-1,52
 254.19921875 -24 254.19921875 -24 155.19921875 -24 c 0,0,1
EndSplineSet
EndChar

StartChar: germandbls
Encoding: 223 223 414
Width: 530
VWidth: 2441
GlyphClass: 1
Flags: HW
LayerCount: 2
Fore
SplineSet
191.19921875 -24 m 0,0,1
 161.19921875 -24 161.19921875 -24 130.995117188 -9.5 c 128,-1,2
 100.791992188 5 100.791992188 5 82.54296875 35 c 1,3,-1
 139.291992188 166 l 1,4,5
 162.10546875 108 162.10546875 108 205.947265625 107 c 0,6,7
 237.947265625 107 237.947265625 107 265.366210938 157 c 128,-1,8
 292.78515625 207 292.78515625 207 316.431640625 290 c 128,-1,9
 340.077148438 373 340.077148438 373 355.598632812 471 c 0,10,11
 370.01171875 562 370.01171875 562 370.916015625 634 c 128,-1,12
 371.819335938 706 371.819335938 706 350.288085938 750 c 128,-1,13
 328.756835938 794 328.756835938 794 272.756835938 794 c 2,14,-1
 240.756835938 794 l 1,15,-1
 261.188476562 923 l 1,16,-1
 299.188476562 923 l 2,17,18
 379.188476562 923 379.188476562 923 422.5859375 1197 c 0,19,20
 442.225585938 1321 442.225585938 1321 436.084960938 1408.5 c 128,-1,21
 429.943359375 1496 429.943359375 1496 378.943359375 1496 c 0,22,23
 330.943359375 1496 330.943359375 1496 286.669921875 1368 c 128,-1,24
 242.396484375 1240 242.396484375 1240 210.245117188 1037 c 2,25,-1
 46 0 l 1,26,-1
 -62 0 l 1,27,-1
 101.453125 1032 l 2,28,29
 138.198242188 1264 138.198242188 1264 183.946289062 1395 c 128,-1,30
 229.694335938 1526 229.694335938 1526 282.66796875 1579.5 c 128,-1,31
 335.641601562 1633 335.641601562 1633 390.641601562 1633 c 0,32,33
 482.641601562 1633 482.641601562 1633 524.01171875 1528 c 128,-1,34
 565.380859375 1423 565.380859375 1423 530.6953125 1204 c 0,35,36
 514.064453125 1099 514.064453125 1099 483.626953125 1011 c 128,-1,37
 453.188476562 923 453.188476562 923 405.745117188 876 c 1,38,39
 453.567382812 837 453.567382812 837 470.86328125 741 c 128,-1,40
 488.158203125 645 488.158203125 645 456.005859375 442 c 0,41,42
 417.360351562 198 417.360351562 198 343.279296875 87 c 128,-1,43
 269.19921875 -24 269.19921875 -24 191.19921875 -24 c 0,0,1
EndSplineSet
EndChar

StartChar: t
Encoding: 116 116 415
Width: 512
VWidth: 2441
GlyphClass: 2
Flags: HW
AnchorPoint: "Anchor-4" 219.688 762 basechar 0
AnchorPoint: "Anchor-2" 187 0 basechar 0
AnchorPoint: "Anchor-1" 385.757 1116 basechar 0
AnchorPoint: "Anchor-0" 357.965 1433 basechar 0
LayerCount: 2
Fore
SplineSet
213.248046875 -30 m 0,0,1
 148.248046875 -30 148.248046875 -30 117.697265625 26.5 c 128,-1,2
 87.1455078125 83 87.1455078125 83 94.5029296875 221 c 0,3,4
 100.26953125 329.162109375 100.26953125 329.162109375 128.005859375 504.28515625 c 0,5,6
 135.657226562 552.594726562 135.657226562 552.594726562 144.981445312 606 c 2,7,-1
 205.672851562 945 l 1,8,-1
 87.6728515625 945 l 1,9,-1
 108.421875 1076 l 1,10,-1
 228.421875 1076 l 1,11,-1
 285.0546875 1402 l 1,12,-1
 398.380859375 1423 l 1,13,-1
 422.172851562 1428 l 1,14,-1
 421.48046875 1411 l 1,15,16
 409.788085938 1394 409.788085938 1394 398.936523438 1376 c 128,-1,17
 388.0859375 1358 388.0859375 1358 379.43359375 1316 c 2,18,-1
 332.421875 1076 l 1,19,-1
 502.421875 1076 l 1,20,-1
 481.672851562 945 l 1,21,-1
 313.672851562 945 l 1,22,-1
 249.080078125 594 l 2,23,24
 237.075195312 529.25 237.075195312 529.25 228.279296875 473.71875 c 0,25,26
 201.893554688 307.125 201.893554688 307.125 204.3984375 223.5 c 0,27,28
 207.739257812 112 207.739257812 112 254.739257812 112 c 0,29,30
 293.739257812 112 293.739257812 112 330.940429688 148 c 128,-1,31
 368.142578125 184 368.142578125 184 392.052734375 215 c 1,32,-1
 398.829101562 81 l 1,33,34
 350.16796875 20 350.16796875 20 304.208007812 -5 c 128,-1,35
 258.248046875 -30 258.248046875 -30 213.248046875 -30 c 0,0,1
EndSplineSet
EndChar

StartChar: tbar
Encoding: 359 359 416
Width: 512
VWidth: 2441
GlyphClass: 2
Flags: HW
AnchorPoint: "Anchor-4" 219.688 762 basechar 0
AnchorPoint: "Anchor-2" 187 0 basechar 0
AnchorPoint: "Anchor-1" 385.757 1116 basechar 0
AnchorPoint: "Anchor-0" 357.965 1433 basechar 0
LayerCount: 2
Fore
SplineSet
213.248046875 -30 m 0,0,1
 150.248046875 -30 150.248046875 -30 119.66796875 20 c 128,-1,2
 89.0869140625 70 89.0869140625 70 93.3056640625 194.5 c 0,3,4
 97.04296875 304.771484375 97.04296875 304.771484375 126.498046875 490.74609375 c 0,5,6
 130.298828125 514.743164062 130.298828125 514.743164062 134.52734375 540 c 1,7,-1
 25.52734375 540 l 1,8,-1
 47.068359375 676 l 1,9,-1
 159.068359375 676 l 1,10,-1
 205.672851562 945 l 1,11,-1
 87.6728515625 945 l 1,12,-1
 108.421875 1076 l 1,13,-1
 228.421875 1076 l 1,14,-1
 285.0546875 1402 l 1,15,-1
 398.380859375 1423 l 1,16,-1
 422.172851562 1428 l 1,17,-1
 421.48046875 1411 l 1,18,19
 409.788085938 1394 409.788085938 1394 398.936523438 1376 c 128,-1,20
 388.0859375 1358 388.0859375 1358 379.43359375 1316 c 2,21,-1
 332.421875 1076 l 1,22,-1
 502.421875 1076 l 1,23,-1
 481.672851562 945 l 1,24,-1
 313.672851562 945 l 1,25,-1
 265.068359375 676 l 1,26,-1
 418.068359375 676 l 1,27,-1
 396.52734375 540 l 1,28,-1
 240.52734375 540 l 1,29,30
 233.926757812 502.44921875 233.926757812 502.44921875 228.532226562 468.389648438 c 0,31,32
 200.885742188 293.836914062 200.885742188 293.836914062 204.918945312 211 c 0,33,34
 209.739257812 112 209.739257812 112 254.739257812 112 c 0,35,36
 293.739257812 112 293.739257812 112 330.940429688 148 c 128,-1,37
 368.142578125 184 368.142578125 184 392.052734375 215 c 1,38,-1
 398.829101562 81 l 1,39,40
 350.16796875 20 350.16796875 20 304.208007812 -5 c 128,-1,41
 258.248046875 -30 258.248046875 -30 213.248046875 -30 c 0,0,1
EndSplineSet
EndChar

StartChar: u
Encoding: 117 117 423
Width: 512
VWidth: 2441
GlyphClass: 2
Flags: HW
AnchorPoint: "Anchor-3" 307 0 basechar 0
AnchorPoint: "Anchor-2" 124 0 basechar 0
AnchorPoint: "Anchor-1" 540.757 1116 basechar 0
AnchorPoint: "Anchor-0" 325.757 1116 basechar 0
LayerCount: 2
Fore
SplineSet
119.723632812 -27 m 0,0,1
 53.7236328125 -27 53.7236328125 -27 18.400390625 12 c 128,-1,2
 -16.9228515625 51 -16.9228515625 51 -17.68359375 163 c 128,-1,3
 -18.4443359375 275 -18.4443359375 275 16.2421875 494 c 2,4,-1
 116.756835938 1116 l 1,5,-1
 234.756835938 1116 l 1,6,-1
 136.2421875 494 l 2,7,8
 113.750976562 352 113.750976562 352 107.16015625 272.5 c 128,-1,9
 100.568359375 193 100.568359375 193 106.9453125 157.5 c 128,-1,10
 113.323242188 122 113.323242188 122 126.9765625 113.5 c 128,-1,11
 140.629882812 105 140.629882812 105 162.629882812 105 c 0,12,13
 207.629882812 105 207.629882812 105 255.073242188 202.5 c 128,-1,14
 302.515625 300 302.515625 300 334.350585938 501 c 2,15,-1
 431.756835938 1116 l 1,16,-1
 549.756835938 1116 l 1,17,-1
 400.400390625 173 l 2,18,19
 393.431640625 129 393.431640625 129 388.200195312 86.5 c 128,-1,20
 382.96875 44 382.96875 44 386 0 c 1,21,-1
 276 0 l 1,22,23
 273.65234375 42 273.65234375 42 275.141601562 73.5 c 128,-1,24
 276.629882812 105 276.629882812 105 283.282226562 147 c 1,25,26
 257.403320312 72 257.403320312 72 219.063476562 22.5 c 128,-1,27
 180.723632812 -27 180.723632812 -27 119.723632812 -27 c 0,0,1
EndSplineSet
EndChar

StartChar: v
Encoding: 118 118 446
Width: 512
VWidth: 2441
GlyphClass: 2
Flags: HW
AnchorPoint: "Anchor-2" 164 0 basechar 0
AnchorPoint: "Anchor-0" 340.757 1116 basechar 0
LayerCount: 2
Fore
SplineSet
115 0 m 1,0,-1
 114.756835938 1116 l 1,1,-1
 217.756835938 1116 l 1,2,-1
 213.297851562 286 l 1,3,-1
 334.583007812 654 l 2,4,5
 379.96484375 789 379.96484375 789 410.100585938 903.5 c 128,-1,6
 440.235351562 1018 440.235351562 1018 463.756835938 1116 c 1,7,-1
 562.756835938 1116 l 1,8,9
 538.443359375 1013 538.443359375 1013 502.620117188 891 c 128,-1,10
 466.797851562 769 466.797851562 769 421.306640625 627 c 2,11,-1
 214 0 l 1,12,-1
 115 0 l 1,0,-1
EndSplineSet
EndChar

StartChar: w
Encoding: 119 119 447
Width: 463
VWidth: 2441
GlyphClass: 2
Flags: HW
AnchorPoint: "Anchor-2" 130 0 basechar 0
AnchorPoint: "Anchor-0" 306.757 1116 basechar 0
LayerCount: 2
Fore
SplineSet
-16.31640625 -2 m 1,0,-1
 81.7568359375 1116 l 1,1,-1
 170.756835938 1116 l 1,2,-1
 92.2978515625 286 l 1,3,-1
 237.60546875 913 l 1,4,-1
 324.60546875 913 l 1,5,-1
 286.297851562 286 l 1,6,7
 323.6484375 465 323.6484375 465 354.544921875 628.5 c 128,-1,8
 385.440429688 792 385.440429688 792 406.446289062 912 c 128,-1,9
 427.453125 1032 427.453125 1032 434.896484375 1079 c 2,10,-1
 440.756835938 1116 l 1,11,-1
 529.756835938 1116 l 1,12,13
 471.775390625 832 471.775390625 832 413.166015625 553.5 c 128,-1,14
 354.555664062 275 354.555664062 275 288.68359375 -2 c 1,15,-1
 184.68359375 -2 l 1,16,-1
 235.990234375 625 l 1,17,-1
 85.68359375 -2 l 1,18,-1
 -16.31640625 -2 l 1,0,-1
EndSplineSet
EndChar

StartChar: x
Encoding: 120 120 452
Width: 512
VWidth: 2441
GlyphClass: 2
Flags: HW
AnchorPoint: "Anchor-2" 161 0 basechar 0
AnchorPoint: "Anchor-0" 337.757 1116 basechar 0
LayerCount: 2
Fore
SplineSet
-62 0 m 1,0,-1
 196.645507812 566 l 1,1,-1
 118.756835938 1116 l 1,2,-1
 216.756835938 1116 l 1,3,-1
 274.145507812 727 l 1,4,-1
 446.756835938 1116 l 1,5,-1
 540.756835938 1116 l 1,6,-1
 301.75390625 573 l 1,7,-1
 386 0 l 1,8,-1
 284 0 l 1,9,-1
 223.9375 410 l 1,10,-1
 40 0 l 1,11,-1
 -62 0 l 1,0,-1
EndSplineSet
EndChar

StartChar: y
Encoding: 121 121 453
Width: 512
VWidth: 2286
GlyphClass: 2
Flags: HW
AnchorPoint: "Anchor-2" 324.432 129 basechar 0
AnchorPoint: "Anchor-0" 358.757 1116 basechar 0
LayerCount: 2
Fore
SplineSet
10.037109375 -246 m 0,0,1
 -57.962890625 -246 -57.962890625 -246 -87.658203125 -162 c 1,2,-1
 -36.869140625 -56 l 1,3,-1
 -27.54296875 -35 l 1,4,-1
 -16.65234375 -42 l 1,5,6
 -9.0283203125 -57 -9.0283203125 -57 -7.853515625 -78 c 128,-1,7
 -6.6796875 -99 -6.6796875 -99 13.0439453125 -126 c 1,8,9
 24.41015625 -130 24.41015625 -130 32.41015625 -130 c 0,10,11
 74.41015625 -130 74.41015625 -130 98.4970703125 -60 c 128,-1,12
 122.583984375 10 122.583984375 10 163.490234375 142 c 1,13,-1
 174.2421875 172 l 1,14,-1
 135.756835938 1116 l 1,15,-1
 240.756835938 1116 l 1,16,-1
 261.639648438 446 l 1,17,-1
 349.51171875 723 l 2,18,19
 381.192382812 822 381.192382812 822 410.634765625 919.5 c 128,-1,20
 440.077148438 1017 440.077148438 1017 461.756835938 1116 c 1,21,-1
 562.756835938 1116 l 1,22,23
 539.077148438 1017 539.077148438 1017 506.921875 915 c 128,-1,24
 474.766601562 813 474.766601562 813 441.76953125 712 c 2,25,-1
 211.850585938 18 l 2,26,27
 163.043945312 -126 163.043945312 -126 111.540039062 -186 c 128,-1,28
 60.037109375 -246 60.037109375 -246 10.037109375 -246 c 0,0,1
EndSplineSet
EndChar

StartChar: z
Encoding: 122 122 463
Width: 512
VWidth: 2441
GlyphClass: 2
Flags: HW
AnchorPoint: "Anchor-2" 218 0 basechar 0
AnchorPoint: "Anchor-0" 394.757 1116 basechar 0
LayerCount: 2
Fore
SplineSet
-45.3701171875 105 m 1,0,-1
 398.375 981 l 1,1,-1
 118.375 981 l 1,2,-1
 139.756835938 1116 l 1,3,-1
 535.756835938 1116 l 1,4,-1
 519.126953125 1011 l 1,5,-1
 81.9072265625 132 l 1,6,-1
 308.907226562 132 l 2,7,8
 346.907226562 132 346.907226562 132 362.698242188 137 c 128,-1,9
 378.490234375 142 378.490234375 142 394.708007812 156 c 1,10,-1
 410.708007812 156 l 1,11,-1
 386 0 l 1,12,-1
 -62 0 l 1,13,-1
 -45.3701171875 105 l 1,0,-1
EndSplineSet
EndChar

StartChar: u.i
Encoding: 65539 -1 468
Width: 502
VWidth: 2441
GlyphClass: 2
Flags: HW
AnchorPoint: "Anchor-3" 311 0 basechar 0
AnchorPoint: "Anchor-2" 139 0 basechar 0
AnchorPoint: "Anchor-1" 529.757 1116 basechar 0
AnchorPoint: "Anchor-0" 322.757 1116 basechar 0
LayerCount: 2
Fore
SplineSet
117.723632812 -27 m 0,0,1
 51.7236328125 -27 51.7236328125 -27 17.400390625 12 c 128,-1,2
 -16.9228515625 51 -16.9228515625 51 -18.68359375 163 c 0,3,4
 -20.2802734375 264.581054688 -20.2802734375 264.581054688 9.7490234375 454.181640625 c 0,5,6
 12.8291015625 473.627929688 12.8291015625 473.627929688 16.2421875 494 c 2,7,-1
 117.756835938 1116 l 1,8,-1
 231.756835938 1116 l 1,9,-1
 133.2421875 494 l 2,10,11
 110.750976562 352 110.750976562 352 104.66015625 272.5 c 128,-1,12
 98.568359375 193 98.568359375 193 103.9453125 157.5 c 128,-1,13
 109.323242188 122 109.323242188 122 123.9765625 113.5 c 128,-1,14
 138.629882812 105 138.629882812 105 157.629882812 105 c 0,15,16
 201.629882812 105 201.629882812 105 248.573242188 202.5 c 128,-1,17
 295.515625 300 295.515625 300 327.350585938 501 c 2,18,-1
 424.756835938 1116 l 1,19,-1
 541.756835938 1116 l 1,20,-1
 392.400390625 173 l 2,21,22
 385.431640625 129 385.431640625 129 379.700195312 86.5 c 128,-1,23
 373.96875 44 373.96875 44 376 0 c 1,24,-1
 271 0 l 1,25,26
 267.65234375 42 267.65234375 42 268.641601562 73.5 c 128,-1,27
 269.629882812 105 269.629882812 105 276.282226562 147 c 1,28,29
 250.403320312 72 250.403320312 72 213.063476562 22.5 c 128,-1,30
 175.723632812 -27 175.723632812 -27 117.723632812 -27 c 0,0,1
EndSplineSet
EndChar

StartChar: r.serif
Encoding: 65540 -1 469
Width: 568
VWidth: 2441
GlyphClass: 1
Flags: HW
LayerCount: 2
Fore
SplineSet
-62.31640625 -2 m 1,0,-1
 -41.41015625 130 l 1,1,-1
 13.58984375 130 l 1,2,-1
 148.692382812 983 l 1,3,-1
 95.6923828125 983 l 1,4,-1
 116.756835938 1116 l 1,5,-1
 284.756835938 1116 l 1,6,-1
 252.822265625 927 l 1,7,8
 292.551757812 1020 292.551757812 1020 337.055664062 1080 c 128,-1,9
 381.55859375 1140 381.55859375 1140 436.55859375 1140 c 0,10,11
 511.55859375 1140 511.55859375 1140 547.551757812 1020 c 1,12,-1
 482.943359375 852 l 1,13,14
 468.735351562 857 468.735351562 857 465.45703125 880.5 c 128,-1,15
 462.1796875 904 462.1796875 904 459.114257812 932 c 128,-1,16
 456.048828125 960 456.048828125 960 442.795898438 980.5 c 128,-1,17
 429.54296875 1001 429.54296875 1001 395.54296875 1001 c 0,18,19
 364.54296875 1001 364.54296875 1001 324.143554688 938.5 c 128,-1,20
 283.745117188 876 283.745117188 876 248.40625 776 c 128,-1,21
 213.068359375 676 213.068359375 676 194.853515625 561 c 2,22,-1
 126.58984375 130 l 1,23,-1
 213.58984375 130 l 1,24,-1
 192.68359375 -2 l 1,25,-1
 -62.31640625 -2 l 1,0,-1
EndSplineSet
EndChar

StartChar: ordfeminine
Encoding: 170 170 470
Width: 491
VWidth: 2441
GlyphClass: 1
Flags: HW
LayerCount: 2
Fore
SplineSet
19.2509765625 513 m 1,0,-1
 446.250976562 513 l 1,1,-1
 427.245117188 393 l 1,2,-1
 0.2451171875 393 l 1,3,-1
 19.2509765625 513 l 1,0,-1
196.279296875 892 m 0,4,5
 173.471679688 748 173.471679688 748 241.313476562 747 c 0,6,7
 344.313476562 747 344.313476562 747 399.204101562 1062 c 1,8,9
 372.99609375 1067 372.99609375 1067 346.99609375 1067 c 0,10,11
 288.99609375 1067 288.99609375 1067 250.556640625 1029.5 c 128,-1,12
 212.1171875 992 212.1171875 992 196.279296875 892 c 0,4,5
208.098632812 632 m 0,13,14
 140.098632812 632 140.098632812 632 113.661132812 705 c 128,-1,15
 87.22265625 778 87.22265625 778 103.853515625 883 c 0,16,17
 131.5703125 1058 131.5703125 1058 199.311523438 1119.5 c 128,-1,18
 267.051757812 1181 267.051757812 1181 359.051757812 1181 c 0,19,20
 383.051757812 1181 383.051757812 1181 416.943359375 1174 c 1,21,22
 437.750976562 1318 437.750976562 1318 428.01171875 1367 c 128,-1,23
 418.272460938 1416 418.272460938 1416 360.272460938 1416 c 0,24,25
 309.272460938 1416 309.272460938 1416 249.977539062 1351 c 1,26,-1
 220.390625 1442 l 1,27,28
 259.04296875 1484 259.04296875 1484 299.422851562 1508.5 c 128,-1,29
 339.803710938 1533 339.803710938 1533 387.803710938 1533 c 0,30,31
 455.803710938 1533 455.803710938 1533 488.91796875 1499 c 128,-1,32
 522.033203125 1465 522.033203125 1465 523.961914062 1373 c 128,-1,33
 525.890625 1281 525.890625 1281 498.6484375 1109 c 2,34,-1
 426.266601562 652 l 1,35,-1
 339.266601562 652 l 1,36,-1
 358.114257812 771 l 1,37,38
 323.493164062 685 323.493164062 685 284.295898438 658.5 c 128,-1,39
 245.098632812 632 245.098632812 632 208.098632812 632 c 0,13,14
EndSplineSet
EndChar

StartChar: ordmasculine
Encoding: 186 186 471
Width: 491
VWidth: 2441
GlyphClass: 1
Flags: HW
LayerCount: 2
Fore
SplineSet
19.2509765625 513 m 1,0,-1
 446.250976562 513 l 1,1,-1
 427.245117188 393 l 1,2,-1
 0.2451171875 393 l 1,3,-1
 19.2509765625 513 l 1,0,-1
271.788085938 750 m 0,4,5
 320.788085938 750 320.788085938 750 354.587890625 824.5 c 128,-1,6
 388.387695312 899 388.387695312 899 417.688476562 1084 c 0,7,8
 448.256835938 1277 448.256835938 1277 436.16015625 1349 c 128,-1,9
 424.064453125 1421 424.064453125 1421 378.064453125 1421 c 0,10,11
 334.064453125 1421 334.064453125 1421 296.66015625 1349 c 128,-1,12
 259.256835938 1277 259.256835938 1277 228.688476562 1084 c 0,13,14
 199.229492188 898 199.229492188 898 212.508789062 824 c 128,-1,15
 225.788085938 750 225.788085938 750 271.788085938 750 c 0,4,5
254.048828125 638 m 128,-1,17
 168.048828125 638 168.048828125 638 129.25390625 734 c 128,-1,18
 90.458984375 830 90.458984375 830 130.213867188 1081 c 0,19,20
 157.614257812 1254 157.614257812 1254 197.71484375 1352.5 c 128,-1,21
 237.815429688 1451 237.815429688 1451 288.809570312 1492 c 128,-1,22
 339.803710938 1533 339.803710938 1533 395.803710938 1533 c 128,-1,23
 451.803710938 1533 451.803710938 1533 487.809570312 1492 c 128,-1,24
 523.815429688 1451 523.815429688 1451 532.793945312 1353 c 128,-1,25
 541.772460938 1255 541.772460938 1255 514.213867188 1081 c 0,26,27
 474.30078125 829 474.30078125 829 407.174804688 733.5 c 128,-1,16
 340.048828125 638 340.048828125 638 254.048828125 638 c 128,-1,17
EndSplineSet
EndChar

StartChar: uni2124
Encoding: 8484 8484 473
Width: 512
VWidth: 2441
GlyphClass: 1
Flags: HW
LayerCount: 2
Fore
SplineSet
548.272460938 1416 m 1,0,-1
 486.272460938 1416 l 1,1,-1
 20.3134765625 103 l 1,2,-1
 80.3134765625 103 l 1,3,-1
 548.272460938 1416 l 1,0,-1
626.90234375 1521 m 1,4,-1
 608.0546875 1402 l 1,5,-1
 146.313476562 103 l 1,6,-1
 307.313476562 103 l 2,7,8
 344.313476562 103 344.313476562 103 360.526367188 107.5 c 128,-1,9
 376.739257812 112 376.739257812 112 390.956054688 126 c 1,10,-1
 405.956054688 126 l 1,11,-1
 386 0 l 1,12,-1
 -62 0 l 1,13,-1
 -43.15234375 119 l 1,14,-1
 422.272460938 1416 l 1,15,-1
 164.272460938 1416 l 1,16,-1
 180.90234375 1521 l 1,17,-1
 626.90234375 1521 l 1,4,-1
EndSplineSet
EndChar

StartChar: zero
Encoding: 48 48 474
Width: 512
VWidth: 2441
GlyphClass: 1
Flags: HW
LayerCount: 2
Fore
SplineSet
180.421875 110 m 0,0,1
 233.421875 110 233.421875 110 286.337890625 261 c 128,-1,2
 339.25390625 412 339.25390625 412 393.10546875 752 c 0,3,4
 408.151367188 847 408.151367188 847 419.297851562 930 c 1,5,-1
 124.176757812 361 l 1,6,7
 118.270507812 229 118.270507812 229 134.845703125 169.5 c 128,-1,8
 151.421875 110 151.421875 110 180.421875 110 c 0,0,1
169.10546875 752 m 0,9,10
 150.57421875 635 150.57421875 635 138.735351562 535 c 1,11,-1
 437.282226562 1113 l 1,12,13
 454.788085938 1394 454.788085938 1394 383.788085938 1394 c 0,14,15
 336.788085938 1394 336.788085938 1394 278.604492188 1235 c 128,-1,16
 220.421875 1076 220.421875 1076 169.10546875 752 c 0,9,10
158.723632812 -27 m 0,17,18
 56.7236328125 -27 56.7236328125 -27 24.4453125 157.5 c 128,-1,19
 -7.8330078125 342 -7.8330078125 342 57.10546875 752 c 0,20,21
 120.142578125 1150 120.142578125 1150 211.814453125 1340.5 c 128,-1,22
 303.486328125 1531 303.486328125 1531 405.486328125 1531 c 0,23,24
 509.486328125 1531 509.486328125 1531 538.814453125 1340.5 c 128,-1,25
 568.142578125 1150 568.142578125 1150 505.10546875 752 c 0,26,27
 440.166992188 342 440.166992188 342 351.4453125 157.5 c 128,-1,28
 262.723632812 -27 262.723632812 -27 158.723632812 -27 c 0,17,18
EndSplineSet
Substitution2: "'ss02' Style Set 2 in Latin lookup 36 subtable" zero.ss02
Substitution2: "'zero' Slashed Zero in Latin lookup 33 subtable" zero.zero
Substitution2: "'frac' Diagonal Fractions in Latin lookup 24 subtable" zero.numr
Substitution2: "'dnom' Denominators in Latin lookup 22 subtable" zero.dnom
Substitution2: "'numr' Numerators in Latin lookup 21 subtable" zero.numr
Substitution2: "'sups' Superscript in Latin lookup 20 subtable" uni2070
Substitution2: "'subs' Subscript in Latin lookup 19 subtable" uni2080
AlternateSubs2: "'aalt' Access All Alternates in Latin lookup 1 subtable" zero.zero zero.ss02 uni2080 zero.dnom zero.numr uni2070
EndChar

StartChar: one
Encoding: 49 49 475
Width: 357
VWidth: 2441
GlyphClass: 1
Flags: HW
LayerCount: 2
Fore
SplineSet
106 0 m 1,0,-1
 309.682617188 1286 l 1,1,-1
 146.5859375 1197 l 1,2,-1
 146.43359375 1316 l 1,3,-1
 394.219726562 1523 l 1,4,-1
 472.219726562 1523 l 1,5,-1
 231 0 l 1,6,-1
 106 0 l 1,0,-1
EndSplineSet
Substitution2: "'frac' Diagonal Fractions in Latin lookup 24 subtable" one.numr
Substitution2: "'dnom' Denominators in Latin lookup 22 subtable" one.dnom
Substitution2: "'numr' Numerators in Latin lookup 21 subtable" one.numr
Substitution2: "'sups' Superscript in Latin lookup 20 subtable" uni00B9
Substitution2: "'subs' Subscript in Latin lookup 19 subtable" uni2081
AlternateSubs2: "'aalt' Access All Alternates in Latin lookup 1 subtable" uni2081 one.dnom one.numr uni00B9
EndChar

StartChar: two
Encoding: 50 50 476
Width: 512
VWidth: 2441
GlyphClass: 1
Flags: HW
LayerCount: 2
Fore
SplineSet
-18.0439453125 126 m 1,0,1
 121.434570312 350 121.434570312 350 213.280273438 519.5 c 128,-1,2
 305.126953125 689 305.126953125 689 360.404296875 826.5 c 128,-1,3
 415.682617188 964 415.682617188 964 439.380859375 1101 c 0,4,5
 444.09765625 1125.84375 444.09765625 1125.84375 447.676757812 1148.44140625 c 0,0,0
 467.00390625 1270.46875 467.00390625 1270.46875 453.17578125 1327 c 128,-1,6
 436.788085938 1394 436.788085938 1394 394.788085938 1394 c 0,7,8
 357.788085938 1394 357.788085938 1394 329.8828125 1372.5 c 128,-1,9
 301.977539062 1351 301.977539062 1351 271.682617188 1286 c 0,10,11
 254.505859375 1247 254.505859375 1247 251.891601562 1230.5 c 128,-1,12
 249.278320312 1214 249.278320312 1214 254.953125 1193 c 1,13,-1
 247.418945312 1177 l 1,14,-1
 225.52734375 1184 l 1,15,-1
 130.912109375 1218 l 1,16,17
 188.403320312 1360 188.403320312 1360 256.444335938 1445.5 c 128,-1,18
 324.486328125 1531 324.486328125 1531 416.486328125 1531 c 0,19,20
 525.486328125 1531 525.486328125 1531 556.959960938 1423.5 c 128,-1,21
 588.43359375 1316 588.43359375 1316 553.748046875 1097 c 0,22,23
 516.52734375 862 516.52734375 862 399.51953125 631.5 c 128,-1,24
 282.51171875 401 282.51171875 401 120.698242188 137 c 1,25,-1
 304.698242188 137 l 2,26,27
 344.698242188 137 344.698242188 137 361.490234375 142 c 128,-1,28
 378.282226562 147 378.282226562 147 394.5 161 c 1,29,-1
 411.5 161 l 1,30,-1
 386 0 l 1,31,-1
 -38 0 l 1,32,-1
 -18.0439453125 126 l 1,0,1
EndSplineSet
Substitution2: "'frac' Diagonal Fractions in Latin lookup 24 subtable" two.numr
Substitution2: "'dnom' Denominators in Latin lookup 22 subtable" two.dnom
Substitution2: "'numr' Numerators in Latin lookup 21 subtable" two.numr
Substitution2: "'sups' Superscript in Latin lookup 20 subtable" uni00B2
Substitution2: "'subs' Subscript in Latin lookup 19 subtable" uni2082
AlternateSubs2: "'aalt' Access All Alternates in Latin lookup 1 subtable" uni2082 two.dnom two.numr uni00B2
EndChar

StartChar: three
Encoding: 51 51 477
Width: 512
VWidth: 2441
GlyphClass: 1
Flags: HW
LayerCount: 2
Fore
SplineSet
154.723632812 -27 m 0,0,1
 72.7236328125 -27 72.7236328125 -27 32.3310546875 30.5 c 128,-1,2
 -8.0625 88 -8.0625 88 -34.599609375 173 c 1,3,-1
 70.6455078125 244 l 1,4,-1
 92.021484375 259 l 1,5,-1
 100.12109375 247 l 1,6,7
 94.794921875 226 94.794921875 226 93.626953125 206 c 128,-1,8
 92.4599609375 186 92.4599609375 186 104.916015625 151 c 1,9,10
 130.947265625 107 130.947265625 107 171.947265625 107 c 0,11,12
 225.947265625 107 225.947265625 107 268.092773438 190 c 128,-1,13
 310.239257812 273 310.239257812 273 334.155273438 424 c 0,14,15
 361.555664062 597 361.555664062 597 327.671875 673.5 c 128,-1,16
 300.810546875 734.145507812 300.810546875 734.145507812 229.780273438 734.145507812 c 0,0,0
 211.209960938 734.145507812 211.209960938 734.145507812 189.62109375 730 c 1,17,-1
 209.735351562 857 l 1,18,19
 289.735351562 857 289.735351562 857 331.545898438 900 c 128,-1,20
 373.356445312 943 373.356445312 943 393.78515625 1012 c 128,-1,21
 414.213867188 1081 414.213867188 1081 426.725585938 1160 c 0,22,23
 446.048828125 1282 446.048828125 1282 430.577148438 1339 c 128,-1,24
 415.104492188 1396 415.104492188 1396 376.104492188 1396 c 0,25,26
 345.104492188 1396 345.104492188 1396 314.877929688 1363 c 128,-1,27
 284.651367188 1330 284.651367188 1330 257.46484375 1272 c 1,28,-1
 170.334960938 1328 l 1,29,30
 223.380859375 1423 223.380859375 1423 279.43359375 1477 c 128,-1,31
 335.486328125 1531 335.486328125 1531 406.486328125 1531 c 0,32,33
 495.486328125 1531 495.486328125 1531 535.51953125 1436.5 c 128,-1,34
 575.551757812 1342 575.551757812 1342 545.6171875 1153 c 0,35,36
 526.76953125 1034 526.76953125 1034 486.698242188 942 c 128,-1,37
 446.626953125 850 446.626953125 850 381.450195312 811 c 1,38,39
 435.797851562 769 435.797851562 769 456.276367188 671 c 128,-1,40
 476.75390625 573 476.75390625 573 452.045898438 417 c 0,41,42
 419.260742188 210 419.260742188 210 339.4921875 91.5 c 128,-1,43
 259.723632812 -27 259.723632812 -27 154.723632812 -27 c 0,0,1
EndSplineSet
Substitution2: "'frac' Diagonal Fractions in Latin lookup 24 subtable" three.numr
Substitution2: "'dnom' Denominators in Latin lookup 22 subtable" three.dnom
Substitution2: "'numr' Numerators in Latin lookup 21 subtable" three.numr
Substitution2: "'sups' Superscript in Latin lookup 20 subtable" uni00B3
Substitution2: "'subs' Subscript in Latin lookup 19 subtable" uni2083
AlternateSubs2: "'aalt' Access All Alternates in Latin lookup 1 subtable" uni2083 three.dnom three.numr uni00B3
EndChar

StartChar: four
Encoding: 52 52 478
Width: 552
VWidth: 2441
GlyphClass: 1
Flags: HW
LayerCount: 2
Fore
SplineSet
130.884765625 517 m 1,0,-1
 289.884765625 517 l 1,1,-1
 383.6484375 1109 l 1,2,-1
 130.884765625 517 l 1,0,-1
208 0 m 1,3,-1
 268.186523438 380 l 1,4,-1
 -1.8134765625 380 l 1,5,-1
 16.875 498 l 1,6,-1
 466.219726562 1523 l 1,7,-1
 557.219726562 1523 l 1,8,-1
 397.568359375 515 l 1,9,-1
 467.568359375 515 l 1,10,-1
 445.869140625 378 l 1,11,-1
 375.869140625 378 l 1,12,-1
 316 0 l 1,13,-1
 208 0 l 1,3,-1
EndSplineSet
Substitution2: "'frac' Diagonal Fractions in Latin lookup 24 subtable" four.numr
Substitution2: "'dnom' Denominators in Latin lookup 22 subtable" four.dnom
Substitution2: "'numr' Numerators in Latin lookup 21 subtable" four.numr
Substitution2: "'sups' Superscript in Latin lookup 20 subtable" uni2074
Substitution2: "'subs' Subscript in Latin lookup 19 subtable" uni2084
AlternateSubs2: "'aalt' Access All Alternates in Latin lookup 1 subtable" uni2084 four.dnom four.numr uni2074
EndChar

StartChar: five
Encoding: 53 53 479
Width: 512
VWidth: 2441
GlyphClass: 1
Flags: HW
LayerCount: 2
Fore
SplineSet
157.723632812 -27 m 0,0,1
 93.7236328125 -27 93.7236328125 -27 39.9052734375 21.5 c 128,-1,2
 -13.9130859375 70 -13.9130859375 70 -32.857421875 184 c 1,3,-1
 58.2294921875 254 l 1,4,-1
 76.447265625 268 l 1,5,-1
 84.2294921875 254 l 1,6,7
 81.537109375 237 81.537109375 237 81.7900390625 216.5 c 128,-1,8
 82.04296875 196 82.04296875 196 91.5 161 c 1,9,10
 123.947265625 107 123.947265625 107 176.947265625 107 c 0,11,12
 287.947265625 107 287.947265625 107 347.658203125 484 c 0,13,14
 377.434570312 672 377.434570312 672 362.426757812 763.5 c 128,-1,15
 347.418945312 855 347.418945312 855 295.418945312 855 c 0,16,17
 252.418945312 855 252.418945312 855 222.087890625 824.5 c 128,-1,18
 191.756835938 794 191.756835938 794 155.829101562 725 c 1,19,-1
 93.3134765625 747 l 1,20,-1
 238.90234375 1521 l 1,21,-1
 598.90234375 1521 l 1,22,-1
 577.204101562 1384 l 1,23,-1
 329.204101562 1384 l 1,24,-1
 244.822265625 927 l 1,25,26
 268.624023438 951 268.624023438 951 296.499023438 966 c 128,-1,27
 324.375 981 324.375 981 354.375 981 c 0,28,29
 452.375 981 452.375 981 477.15625 856.5 c 128,-1,30
 501.9375 732 501.9375 732 461.708007812 478 c 0,31,32
 381.723632812 -27 381.723632812 -27 157.723632812 -27 c 0,0,1
EndSplineSet
Substitution2: "'frac' Diagonal Fractions in Latin lookup 24 subtable" five.numr
Substitution2: "'dnom' Denominators in Latin lookup 22 subtable" five.dnom
Substitution2: "'numr' Numerators in Latin lookup 21 subtable" five.numr
Substitution2: "'sups' Superscript in Latin lookup 20 subtable" uni2075
Substitution2: "'subs' Subscript in Latin lookup 19 subtable" uni2085
AlternateSubs2: "'aalt' Access All Alternates in Latin lookup 1 subtable" uni2085 five.dnom five.numr uni2075
EndChar

StartChar: six
Encoding: 54 54 480
Width: 512
VWidth: 2441
GlyphClass: 1
Flags: HW
LayerCount: 2
Fore
SplineSet
194.055664062 114 m 0,0,1
 238.055664062 114 238.055664062 114 274.918945312 211 c 128,-1,2
 311.782226562 308 311.782226562 308 339.024414062 480 c 0,3,4
 368.166992188 664 368.166992188 664 359.471679688 748 c 128,-1,5
 350.775390625 832 350.775390625 832 304.775390625 832 c 0,6,7
 260.775390625 832 260.775390625 832 230.252929688 784.5 c 128,-1,8
 199.729492188 737 199.729492188 737 161.266601562 652 c 1,9,10
 151.805664062 607 151.805664062 607 144.889648438 563.333007812 c 0,0,0
 131.057617188 476 131.057617188 476 127.403320312 394 c 128,-1,11
 121.921875 271 121.921875 271 138.489257812 192.5 c 128,-1,12
 155.055664062 114 155.055664062 114 194.055664062 114 c 0,0,1
167.19921875 -24 m 0,13,14
 56.19921875 -24 56.19921875 -24 22.7578125 150 c 128,-1,15
 -10.68359375 324 -10.68359375 324 47.9189453125 694 c 0,16,17
 118.716796875 1141 118.716796875 1141 214.65625 1339.5 c 128,-1,18
 310.595703125 1538 310.595703125 1538 446.595703125 1538 c 0,19,20
 515.595703125 1538 515.595703125 1538 549.65625 1500.5 c 128,-1,21
 583.716796875 1463 583.716796875 1463 596.104492188 1396 c 1,22,-1
 515.256835938 1277 l 1,23,-1
 505.564453125 1260 l 1,24,-1
 494.356445312 1265 l 1,25,26
 492.048828125 1282 492.048828125 1282 496.795898438 1302.5 c 128,-1,27
 501.54296875 1323 501.54296875 1323 491.293945312 1353 c 1,28,29
 466.580078125 1399 466.580078125 1399 426.73828125 1400 c 0,30,31
 402.73828125 1400 402.73828125 1400 375.966796875 1382.5 c 128,-1,32
 349.194335938 1365 349.194335938 1365 320.379882812 1312.5 c 128,-1,33
 291.564453125 1260 291.564453125 1260 262.830078125 1157.5 c 128,-1,34
 234.095703125 1055 234.095703125 1055 205.329101562 886 c 1,35,36
 241.614257812 932 241.614257812 932 275.495117188 956.5 c 128,-1,37
 309.375 981 309.375 981 358.375 981 c 0,38,39
 443.375 981 443.375 981 470.755859375 844.5 c 128,-1,40
 498.135742188 708 498.135742188 708 462.658203125 484 c 0,41,42
 426.86328125 258 426.86328125 258 350.03125 117 c 128,-1,43
 273.19921875 -24 273.19921875 -24 167.19921875 -24 c 0,13,14
EndSplineSet
Substitution2: "'frac' Diagonal Fractions in Latin lookup 24 subtable" six.numr
Substitution2: "'dnom' Denominators in Latin lookup 22 subtable" six.dnom
Substitution2: "'numr' Numerators in Latin lookup 21 subtable" six.numr
Substitution2: "'sups' Superscript in Latin lookup 20 subtable" uni2076
Substitution2: "'subs' Subscript in Latin lookup 19 subtable" uni2086
AlternateSubs2: "'aalt' Access All Alternates in Latin lookup 1 subtable" uni2086 six.dnom six.numr uni2076
EndChar

StartChar: seven
Encoding: 55 55 481
Width: 496
VWidth: 2441
GlyphClass: 1
Flags: HW
LayerCount: 2
Fore
SplineSet
11 0 m 1,0,1
 120.276367188 349 120.276367188 349 225.131835938 698.5 c 128,-1,2
 329.987304688 1048 329.987304688 1048 448.204101562 1384 c 1,3,-1
 157.204101562 1384 l 1,4,-1
 178.90234375 1521 l 1,5,-1
 610.90234375 1521 l 1,6,-1
 598.073242188 1440 l 1,7,8
 474.322265625 1088 474.322265625 1088 362.145507812 727 c 128,-1,9
 249.96875 366 249.96875 366 143 0 c 1,10,-1
 11 0 l 1,0,1
EndSplineSet
Substitution2: "'frac' Diagonal Fractions in Latin lookup 24 subtable" seven.numr
Substitution2: "'dnom' Denominators in Latin lookup 22 subtable" seven.dnom
Substitution2: "'numr' Numerators in Latin lookup 21 subtable" seven.numr
Substitution2: "'sups' Superscript in Latin lookup 20 subtable" uni2077
Substitution2: "'subs' Subscript in Latin lookup 19 subtable" uni2087
AlternateSubs2: "'aalt' Access All Alternates in Latin lookup 1 subtable" uni2087 seven.dnom seven.numr uni2077
EndChar

StartChar: eight
Encoding: 56 56 482
Width: 512
VWidth: 2441
GlyphClass: 1
Flags: HW
LayerCount: 2
Fore
SplineSet
180.421875 110 m 0,0,1
 227.421875 110 227.421875 110 268.776367188 188 c 128,-1,2
 310.129882812 266 310.129882812 266 330.245117188 393 c 0,3,4
 350.834960938 523 350.834960938 523 340.005859375 603 c 128,-1,5
 329.176757812 683 329.176757812 683 277.729492188 737 c 1,6,7
 219.443359375 691 219.443359375 691 179.614257812 610 c 128,-1,8
 139.78515625 529 139.78515625 529 119.51171875 401 c 0,9,10
 99.5556640625 275 99.5556640625 275 119.989257812 192.5 c 128,-1,11
 140.421875 110 140.421875 110 180.421875 110 c 0,0,1
316.912109375 896 m 1,12,13
 366.672851562 945 366.672851562 945 393.498046875 1016.5 c 128,-1,14
 420.322265625 1088 420.322265625 1088 433.943359375 1174 c 0,15,16
 450.573242188 1279 450.573242188 1279 438.97265625 1341.5 c 128,-1,17
 427.372070312 1404 427.372070312 1404 387.372070312 1404 c 0,18,19
 345.372070312 1404 345.372070312 1404 316.630859375 1342.5 c 128,-1,20
 287.890625 1281 287.890625 1281 272.051757812 1181 c 0,21,22
 254.3125 1069 254.3125 1069 263.443359375 1013 c 128,-1,23
 272.57421875 957 272.57421875 957 316.912109375 896 c 1,12,13
157.19921875 -24 m 128,-1,25
 54.19921875 -24 54.19921875 -24 11.62109375 86 c 128,-1,26
 -30.95703125 196 -30.95703125 196 -1.1806640625 384 c 0,27,28
 47.9189453125 694 47.9189453125 694 204.350585938 823 c 1,29,30
 161.903320312 877 161.903320312 877 150.999023438 966 c 128,-1,31
 140.095703125 1055 140.095703125 1055 157.517578125 1165 c 0,32,33
 184.91796875 1338 184.91796875 1338 250.415039062 1439 c 128,-1,34
 315.912109375 1540 315.912109375 1540 411.912109375 1540 c 0,35,36
 512.912109375 1540 512.912109375 1540 542.969726562 1442.5 c 128,-1,37
 573.02734375 1345 573.02734375 1345 546.735351562 1179 c 0,38,39
 529.3125 1069 529.3125 1069 490.81640625 968 c 128,-1,40
 452.319335938 867 452.319335938 867 388.974609375 808 c 1,41,42
 495.126953125 689 495.126953125 689 448.245117188 393 c 0,43,44
 417.202148438 197 417.202148438 197 338.700195312 86.5 c 128,-1,24
 260.19921875 -24 260.19921875 -24 157.19921875 -24 c 128,-1,25
EndSplineSet
Substitution2: "'frac' Diagonal Fractions in Latin lookup 24 subtable" eight.numr
Substitution2: "'dnom' Denominators in Latin lookup 22 subtable" eight.dnom
Substitution2: "'numr' Numerators in Latin lookup 21 subtable" eight.numr
Substitution2: "'sups' Superscript in Latin lookup 20 subtable" uni2078
Substitution2: "'subs' Subscript in Latin lookup 19 subtable" uni2088
AlternateSubs2: "'aalt' Access All Alternates in Latin lookup 1 subtable" uni2088 eight.dnom eight.numr uni2078
EndChar

StartChar: nine
Encoding: 57 57 483
Width: 512
VWidth: 2441
GlyphClass: 1
Flags: HW
LayerCount: 2
Fore
SplineSet
217.245117188 1037 m 0,0,1
 194.4375 893 194.4375 893 213.840820312 804 c 128,-1,2
 233.245117188 715 233.245117188 715 274.245117188 715 c 0,3,4
 341.245117188 715 341.245117188 715 393.22265625 778 c 1,5,-1
 393.698242188 781 l 2,6,7
 447.548828125 1121 447.548828125 1121 443.827148438 1258.5 c 128,-1,8
 440.104492188 1396 440.104492188 1396 378.104492188 1396 c 0,9,10
 337.104492188 1396 337.104492188 1396 292.854492188 1315.5 c 128,-1,11
 248.604492188 1235 248.604492188 1235 217.245117188 1037 c 0,0,1
126.19921875 -24 m 0,12,13
 73.19921875 -24 73.19921875 -24 27.6875 7.5 c 128,-1,14
 -17.8232421875 39 -17.8232421875 39 -39.478515625 98 c 1,15,-1
 30.052734375 215 l 1,16,-1
 42.537109375 237 l 1,17,-1
 55.7451171875 232 l 1,18,19
 59.736328125 213 59.736328125 213 59.7763671875 188 c 128,-1,20
 59.81640625 163 59.81640625 163 78.9072265625 132 c 1,21,22
 102.10546875 108 102.10546875 108 139.947265625 107 c 0,23,24
 194.947265625 107 194.947265625 107 237.247070312 181.5 c 128,-1,25
 279.546875 256 279.546875 256 311.948242188 378.5 c 128,-1,26
 344.350585938 501 344.350585938 501 368.048828125 638 c 1,27,28
 313.971679688 587 313.971679688 587 249.971679688 587 c 0,29,30
 155.971679688 587 155.971679688 587 112.874023438 709.5 c 128,-1,31
 69.775390625 832 69.775390625 832 101.927734375 1035 c 0,32,33
 141.840820312 1287 141.840820312 1287 224.6640625 1409 c 128,-1,34
 307.486328125 1531 307.486328125 1531 396.486328125 1531 c 0,35,36
 524.486328125 1531 524.486328125 1531 551.936523438 1376 c 128,-1,37
 579.387695312 1221 579.387695312 1221 526.329101562 886 c 0,38,39
 474.219726562 557 474.219726562 557 418.701171875 358 c 128,-1,40
 363.18359375 159 363.18359375 159 292.086914062 70 c 128,-1,41
 220.990234375 -19 220.990234375 -19 126.19921875 -24 c 0,12,13
EndSplineSet
Substitution2: "'frac' Diagonal Fractions in Latin lookup 24 subtable" nine.numr
Substitution2: "'dnom' Denominators in Latin lookup 22 subtable" nine.dnom
Substitution2: "'numr' Numerators in Latin lookup 21 subtable" nine.numr
Substitution2: "'sups' Superscript in Latin lookup 20 subtable" uni2079
Substitution2: "'subs' Subscript in Latin lookup 19 subtable" uni2089
AlternateSubs2: "'aalt' Access All Alternates in Latin lookup 1 subtable" uni2089 nine.dnom nine.numr uni2079
EndChar

StartChar: zero.zero
Encoding: 65541 -1 484
Width: 512
VWidth: 2441
GlyphClass: 1
Flags: HW
LayerCount: 2
Fore
SplineSet
268.068359375 676 m 0,0,1
 239.068359375 676 239.068359375 676 224.844726562 703 c 128,-1,2
 210.62109375 730 210.62109375 730 216.48046875 767 c 128,-1,3
 222.340820312 804 222.340820312 804 244.879882812 829.5 c 128,-1,4
 267.418945312 855 267.418945312 855 296.418945312 855 c 0,5,6
 323.418945312 855 323.418945312 855 338.80078125 829 c 128,-1,7
 354.182617188 803 354.182617188 803 348.48046875 767 c 0,8,9
 342.62109375 730 342.62109375 730 318.844726562 703 c 128,-1,10
 295.068359375 676 295.068359375 676 268.068359375 676 c 0,0,1
180.421875 110 m 0,11,12
 233.421875 110 233.421875 110 286.337890625 261 c 128,-1,13
 339.25390625 412 339.25390625 412 393.10546875 752 c 0,14,15
 444.421875 1076 444.421875 1076 439.604492188 1235 c 128,-1,16
 434.788085938 1394 434.788085938 1394 383.788085938 1394 c 0,17,18
 336.788085938 1394 336.788085938 1394 278.604492188 1235 c 128,-1,19
 220.421875 1076 220.421875 1076 169.10546875 752 c 0,20,21
 115.25390625 412 115.25390625 412 125.337890625 261 c 128,-1,22
 135.421875 110 135.421875 110 180.421875 110 c 0,11,12
158.723632812 -27 m 0,23,24
 56.7236328125 -27 56.7236328125 -27 24.4453125 157.5 c 128,-1,25
 -7.8330078125 342 -7.8330078125 342 57.10546875 752 c 0,26,27
 120.142578125 1150 120.142578125 1150 211.814453125 1340.5 c 128,-1,28
 303.486328125 1531 303.486328125 1531 405.486328125 1531 c 0,29,30
 509.486328125 1531 509.486328125 1531 538.814453125 1340.5 c 128,-1,31
 568.142578125 1150 568.142578125 1150 505.10546875 752 c 0,32,33
 440.166992188 342 440.166992188 342 351.4453125 157.5 c 128,-1,34
 262.723632812 -27 262.723632812 -27 158.723632812 -27 c 0,23,24
EndSplineSet
EndChar

StartChar: zero.ss02
Encoding: 65542 -1 485
Width: 512
VWidth: 2441
GlyphClass: 1
Flags: HW
LayerCount: 2
Fore
SplineSet
180.421875 110 m 0,0,1
 233.421875 110 233.421875 110 286.337890625 261 c 128,-1,2
 339.25390625 412 339.25390625 412 393.10546875 752 c 0,3,4
 444.421875 1076 444.421875 1076 439.604492188 1235 c 128,-1,5
 434.788085938 1394 434.788085938 1394 383.788085938 1394 c 0,6,7
 336.788085938 1394 336.788085938 1394 278.604492188 1235 c 128,-1,8
 220.421875 1076 220.421875 1076 169.10546875 752 c 0,9,10
 115.25390625 412 115.25390625 412 125.337890625 261 c 128,-1,11
 135.421875 110 135.421875 110 180.421875 110 c 0,0,1
158.723632812 -27 m 0,12,13
 56.7236328125 -27 56.7236328125 -27 24.4453125 157.5 c 128,-1,14
 -7.8330078125 342 -7.8330078125 342 57.10546875 752 c 0,15,16
 120.142578125 1150 120.142578125 1150 211.814453125 1340.5 c 128,-1,17
 303.486328125 1531 303.486328125 1531 405.486328125 1531 c 0,18,19
 509.486328125 1531 509.486328125 1531 538.814453125 1340.5 c 128,-1,20
 568.142578125 1150 568.142578125 1150 505.10546875 752 c 0,21,22
 440.166992188 342 440.166992188 342 351.4453125 157.5 c 128,-1,23
 262.723632812 -27 262.723632812 -27 158.723632812 -27 c 0,12,13
EndSplineSet
EndChar

StartChar: uni2070
Encoding: 8304 8304 516
Width: 405
VWidth: 2441
GlyphClass: 1
Flags: HW
LayerCount: 2
Fore
SplineSet
216.176757812 683 m 0,0,1
 255.176757812 683 255.176757812 683 289.510742188 773.5 c 128,-1,2
 323.84375 864 323.84375 864 355.99609375 1067 c 0,3,4
 363.756835938 1116 363.756835938 1116 367.725585938 1160 c 1,5,-1
 176.04296875 840 l 1,6,7
 170.176757812 683 170.176757812 683 216.176757812 683 c 0,0,1
198.99609375 1067 m 0,8,9
 189.334960938 1006 189.334960938 1006 184.256835938 955 c 1,10,-1
 379.682617188 1286 l 1,11,12
 386.499023438 1449 386.499023438 1449 337.815429688 1451 c 0,13,14
 302.815429688 1451 302.815429688 1451 266.427734375 1357 c 128,-1,15
 230.0390625 1263 230.0390625 1263 198.99609375 1067 c 0,8,9
200.337890625 583 m 0,16,17
 125.337890625 583 125.337890625 583 95.65625 695.5 c 128,-1,18
 65.974609375 808 65.974609375 808 106.99609375 1067 c 0,19,20
 146.909179688 1319 146.909179688 1319 212.702148438 1434.5 c 128,-1,21
 278.49609375 1550 278.49609375 1550 353.49609375 1550 c 0,22,23
 432.49609375 1550 432.49609375 1550 460.123046875 1434 c 128,-1,24
 487.750976562 1318 487.750976562 1318 447.99609375 1067 c 0,25,26
 406.974609375 808 406.974609375 808 343.15625 695.5 c 128,-1,27
 279.337890625 583 279.337890625 583 200.337890625 583 c 0,16,17
EndSplineSet
Substitution2: "'ss02' Style Set 2 in Latin lookup 36 subtable" uni2070.ss02
Substitution2: "'zero' Slashed Zero in Latin lookup 33 subtable" uni2070.zero
AlternateSubs2: "'aalt' Access All Alternates in Latin lookup 1 subtable" uni2070.ss02 uni2070.zero
EndChar

StartChar: uni00B9
Encoding: 185 185 517
Width: 269
VWidth: 2441
GlyphClass: 1
Flags: HW
LayerCount: 2
Fore
SplineSet
145.189453125 601 m 1,0,-1
 269.204101562 1384 l 1,1,-1
 165.334960938 1328 l 1,2,-1
 162.272460938 1416 l 1,3,-1
 326.704101562 1545 l 1,4,-1
 387.704101562 1545 l 1,5,-1
 238.189453125 601 l 1,6,-1
 145.189453125 601 l 1,0,-1
EndSplineSet
EndChar

StartChar: uni00B2
Encoding: 178 178 518
Width: 391
VWidth: 2441
GlyphClass: 1
Flags: HW
LayerCount: 2
Fore
SplineSet
60.4931640625 685 m 1,0,1
 155.984375 827 155.984375 827 219.71875 929.5 c 128,-1,2
 283.453125 1032 283.453125 1032 320.177734375 1115.5 c 128,-1,3
 356.903320312 1199 356.903320312 1199 372.365234375 1284 c 0,4,5
 373.967773438 1292.8203125 373.967773438 1292.8203125 375.2890625 1301.16210938 c 0,6,7
 386.849609375 1374.15429688 386.849609375 1374.15429688 376.901367188 1410.5 c 0,8,9
 365.815429688 1451 365.815429688 1451 337.815429688 1451 c 0,10,11
 305.815429688 1451 305.815429688 1451 283.172851562 1428 c 1,12,13
 260.3125 1391 260.3125 1391 255.461914062 1373 c 128,-1,14
 250.611328125 1355 250.611328125 1355 254.443359375 1335 c 1,15,-1
 245.225585938 1321 l 1,16,-1
 223.651367188 1330 l 1,17,-1
 153.0859375 1358 l 1,18,19
 191.0234375 1446 191.0234375 1446 239.759765625 1498 c 128,-1,20
 288.49609375 1550 288.49609375 1550 356.49609375 1550 c 0,21,22
 507.49609375 1550 507.49609375 1550 464.573242188 1279 c 0,23,24
 441.766601562 1135 441.766601562 1135 366.04296875 1001 c 128,-1,25
 290.319335938 867 290.319335938 867 178.02734375 701 c 1,26,-1
 268.02734375 701 l 2,27,28
 310.02734375 701 310.02734375 701 328.240234375 705.5 c 128,-1,29
 346.453125 710 346.453125 710 362.829101562 725 c 1,30,-1
 379.829101562 725 l 1,31,-1
 360.189453125 601 l 1,32,-1
 47.189453125 601 l 1,33,-1
 60.4931640625 685 l 1,0,1
EndSplineSet
EndChar

StartChar: uni00B3
Encoding: 179 179 519
Width: 386
VWidth: 2441
GlyphClass: 1
Flags: HW
LayerCount: 2
Fore
SplineSet
186.337890625 583 m 0,0,1
 132.337890625 583 132.337890625 583 99.802734375 617.5 c 128,-1,2
 67.2666015625 652 67.2666015625 652 49.8193359375 706 c 1,3,-1
 123.897460938 757 l 1,4,-1
 145.58984375 774 l 1,5,-1
 153.213867188 759 l 1,6,7
 148.204101562 740 148.204101562 740 155.169921875 724 c 128,-1,8
 162.135742188 708 162.135742188 708 183.384765625 678 c 1,9,-1
 196.384765625 678 l 2,10,11
 274.397460938 678 274.397460938 678 303.125 859.37890625 c 0,12,13
 320.80078125 970.982421875 320.80078125 970.982421875 296.33984375 1015.5 c 0,14,15
 277.081054688 1050.54882812 277.081054688 1050.54882812 229.62890625 1050.54882812 c 0,16,17
 216.833007812 1050.54882812 216.833007812 1050.54882812 201.987304688 1048 c 1,18,-1
 216.083007812 1137 l 1,19,20
 297.083007812 1137 297.083007812 1137 322.135742188 1191 c 128,-1,21
 347.188476562 1245 347.188476562 1245 358.750976562 1318 c 0,22,23
 380.766601562 1457 380.766601562 1457 322.924804688 1458 c 0,24,25
 280.924804688 1458 280.924804688 1458 242.204101562 1384 c 1,26,-1
 177.856445312 1426 l 1,27,28
 214.04296875 1484 214.04296875 1484 255.76953125 1517 c 128,-1,29
 297.49609375 1550 297.49609375 1550 344.49609375 1550 c 0,30,31
 407.49609375 1550 407.49609375 1550 438.888671875 1492.5 c 128,-1,32
 470.28125 1435 470.28125 1435 451.43359375 1316 c 0,33,34
 439.5546875 1241 439.5546875 1241 413.606445312 1184.5 c 128,-1,35
 387.657226562 1128 387.657226562 1128 341.856445312 1104 c 1,36,37
 379.580078125 1077 379.580078125 1077 395.577148438 1017 c 128,-1,38
 411.57421875 957 411.57421875 957 396.051757812 859 c 0,39,40
 375.461914062 729 375.461914062 729 320.400390625 656 c 128,-1,41
 265.337890625 583 265.337890625 583 186.337890625 583 c 0,0,1
EndSplineSet
EndChar

StartChar: uni2074
Encoding: 8308 8308 520
Width: 420
VWidth: 2441
GlyphClass: 1
Flags: HW
LayerCount: 2
Fore
SplineSet
178.297851562 930 m 1,0,-1
 297.297851562 930 l 1,1,-1
 350.356445312 1265 l 1,2,-1
 178.297851562 930 l 1,0,-1
245.189453125 601 m 1,3,-1
 281.458984375 830 l 1,4,-1
 69.458984375 830 l 1,5,-1
 83.080078125 916 l 1,6,-1
 413.704101562 1545 l 1,7,-1
 487.704101562 1545 l 1,8,-1
 389.822265625 927 l 1,9,-1
 440.822265625 927 l 1,10,-1
 424.984375 827 l 1,11,-1
 373.984375 827 l 1,12,-1
 338.189453125 601 l 1,13,-1
 245.189453125 601 l 1,3,-1
EndSplineSet
EndChar

StartChar: uni2075
Encoding: 8309 8309 521
Width: 398
VWidth: 2441
GlyphClass: 1
Flags: HW
LayerCount: 2
Fore
SplineSet
196.337890625 583 m 0,0,1
 147.337890625 583 147.337890625 583 106.90625 615 c 128,-1,2
 66.474609375 647 66.474609375 647 52.037109375 720 c 1,3,-1
 125.797851562 769 l 1,4,-1
 143.22265625 778 l 1,5,-1
 152.005859375 764 l 1,6,7
 147.313476562 747 147.313476562 747 154.279296875 731 c 128,-1,8
 161.245117188 715 161.245117188 715 180.176757812 683 c 1,9,10
 185.176757812 683 185.176757812 683 192.518554688 682 c 128,-1,11
 199.859375 681 199.859375 681 206.859375 681 c 0,12,13
 283.909179688 681 283.909179688 681 317.0546875 890.26953125 c 0,14,15
 317.893554688 895.568359375 317.893554688 895.568359375 318.704101562 901 c 0,16,17
 353.866210938 1123 353.866210938 1123 278.866210938 1123 c 0,18,19
 229.866210938 1123 229.866210938 1123 185.987304688 1048 c 1,20,-1
 132.204101562 1062 l 1,21,-1
 224.38671875 1543 l 1,22,-1
 492.38671875 1543 l 1,23,-1
 476.865234375 1445 l 1,24,-1
 295.865234375 1445 l 1,25,-1
 246.735351562 1179 l 1,26,27
 262.953125 1193 262.953125 1193 283.115234375 1203.5 c 128,-1,28
 303.278320312 1214 303.278320312 1214 326.278320312 1214 c 0,29,30
 464.286132812 1214 464.286132812 1214 415.104492188 903.484375 c 0,31,32
 364.345703125 583 364.345703125 583 196.337890625 583 c 0,0,1
EndSplineSet
EndChar

StartChar: uni2076
Encoding: 8310 8310 522
Width: 381
VWidth: 2441
GlyphClass: 1
Flags: HW
LayerCount: 2
Fore
SplineSet
214.493164062 685 m 0,0,1
 272.493164062 685 272.493164062 685 306.387695312 899 c 0,2,3
 323.334960938 1006 323.334960938 1006 316.25390625 1056 c 128,-1,4
 309.172851562 1106 309.172851562 1106 281.172851562 1106 c 0,5,6
 254.172851562 1106 254.172851562 1106 233.134765625 1080.5 c 128,-1,7
 212.095703125 1055 212.095703125 1055 190.334960938 1006 c 1,8,9
 185.625976562 982.2265625 185.625976562 982.2265625 182.021484375 959.467773438 c 0,10,11
 166.521484375 861.603515625 166.521484375 861.603515625 171.435546875 782.5 c 0,12,13
 177.493164062 685 177.493164062 685 214.493164062 685 c 0,0,1
196.971679688 587 m 0,14,15
 115.971679688 587 115.971679688 587 90.4189453125 694 c 128,-1,16
 64.8662109375 801 64.8662109375 801 101.135742188 1030 c 0,17,18
 144.69140625 1305 144.69140625 1305 213.569335938 1430.5 c 128,-1,19
 282.446289062 1556 282.446289062 1556 375.446289062 1556 c 0,20,21
 458.446289062 1556 458.446289062 1556 484.716796875 1463 c 1,22,-1
 423.204101562 1384 l 1,23,-1
 410.51171875 1367 l 1,24,-1
 399.620117188 1374 l 1,25,26
 400.3125 1391 400.3125 1391 399.584960938 1408.5 c 128,-1,27
 398.856445312 1426 398.856445312 1426 379.815429688 1451 c 0,28,29
 377.815429688 1451 377.815429688 1451 371.974609375 1452 c 128,-1,30
 366.1328125 1453 366.1328125 1453 361.1328125 1453 c 0,31,32
 342.1328125 1453 342.1328125 1453 316.306640625 1432 c 128,-1,33
 290.48046875 1411 290.48046875 1411 264.52734375 1345 c 128,-1,34
 238.573242188 1279 238.573242188 1279 214.825195312 1148 c 1,35,36
 261.486328125 1209 261.486328125 1209 320.486328125 1209 c 0,37,38
 376.486328125 1209 376.486328125 1209 398.499023438 1127 c 128,-1,39
 420.51171875 1045 420.51171875 1045 397.704101562 901 c 0,40,41
 375.213867188 759 375.213867188 759 323.592773438 673 c 128,-1,42
 271.971679688 587 271.971679688 587 196.971679688 587 c 0,14,15
EndSplineSet
EndChar

StartChar: uni2077
Encoding: 8311 8311 523
Width: 367
VWidth: 2441
GlyphClass: 1
Flags: HW
LayerCount: 2
Fore
SplineSet
79.189453125 601 m 1,0,1
 150.55859375 818 150.55859375 818 217.58203125 1026.5 c 128,-1,2
 284.604492188 1235 284.604492188 1235 362.390625 1442 c 1,3,-1
 166.390625 1442 l 1,4,-1
 182.38671875 1543 l 1,5,-1
 485.38671875 1543 l 1,6,-1
 475.250976562 1479 l 1,7,8
 394.880859375 1262 394.880859375 1262 323.932617188 1044.5 c 128,-1,9
 252.984375 827 252.984375 827 182.189453125 601 c 1,10,-1
 79.189453125 601 l 1,0,1
EndSplineSet
EndChar

StartChar: uni2078
Encoding: 8312 8312 524
Width: 391
VWidth: 2441
GlyphClass: 1
Flags: HW
LayerCount: 2
Fore
SplineSet
212.176757812 683 m 0,0,1
 282.176757812 683 282.176757812 683 307.834960938 845 c 0,2,3
 331.1171875 992 331.1171875 992 264.987304688 1048 c 1,4,5
 188.434570312 994 188.434570312 994 165.626953125 850 c 0,6,7
 153.114257812 771 153.114257812 771 167.645507812 727 c 128,-1,8
 182.176757812 683 182.176757812 683 212.176757812 683 c 0,0,1
294.725585938 1160 m 1,9,10
 326.001953125 1187 326.001953125 1187 344.129882812 1232 c 128,-1,11
 362.256835938 1277 362.256835938 1277 370.334960938 1328 c 0,12,13
 379.520507812 1386 379.520507812 1386 370.72265625 1422 c 128,-1,14
 361.924804688 1458 361.924804688 1458 334.924804688 1458 c 128,-1,15
 307.924804688 1458 307.924804688 1458 288.959960938 1423.5 c 128,-1,16
 269.99609375 1389 269.99609375 1389 261.125976562 1333 c 0,17,18
 250.356445312 1265 250.356445312 1265 259.3125 1230 c 128,-1,19
 268.26953125 1195 268.26953125 1195 294.725585938 1160 c 1,9,10
193.971679688 587 m 0,20,21
 118.971679688 587 118.971679688 587 85.6630859375 654.5 c 128,-1,22
 52.353515625 722 52.353515625 722 70.5673828125 837 c 0,23,24
 100.34375 1025 100.34375 1025 211.96484375 1111 c 1,25,26
 180.508789062 1146 180.508789062 1146 171.640625 1200.5 c 128,-1,27
 162.772460938 1255 162.772460938 1255 173.54296875 1323 c 0,28,29
 190.490234375 1430 190.490234375 1430 237.467773438 1493 c 128,-1,30
 284.446289062 1556 284.446289062 1556 352.446289062 1556 c 0,31,32
 422.446289062 1556 422.446289062 1556 448.705078125 1494.5 c 128,-1,33
 474.96484375 1433 474.96484375 1433 458.651367188 1330 c 0,34,35
 447.880859375 1262 447.880859375 1262 420.482421875 1199.5 c 128,-1,36
 393.083007812 1137 393.083007812 1137 350.380859375 1101 c 1,37,38
 426.819335938 1028 426.819335938 1028 398.834960938 845 c 0,39,40
 379.987304688 726 379.987304688 726 326.479492188 656.5 c 128,-1,41
 272.971679688 587 272.971679688 587 193.971679688 587 c 0,20,21
EndSplineSet
EndChar

StartChar: uni2079
Encoding: 8313 8313 525
Width: 381
VWidth: 2441
GlyphClass: 1
Flags: HW
LayerCount: 2
Fore
SplineSet
222.713867188 1242 m 0,0,1
 208.775390625 1154 208.775390625 1154 221.27734375 1103.5 c 128,-1,2
 233.779296875 1053 233.779296875 1053 265.779296875 1053 c 0,3,4
 309.779296875 1053 309.779296875 1053 339.005859375 1086 c 1,5,6
 371.791015625 1293 371.791015625 1293 367.961914062 1373 c 128,-1,7
 364.1328125 1453 364.1328125 1453 324.1328125 1453 c 0,8,9
 294.1328125 1453 294.1328125 1453 267.451171875 1404.5 c 128,-1,10
 240.76953125 1356 240.76953125 1356 222.713867188 1242 c 0,0,1
167.971679688 587 m 1,11,12
 79.9716796875 587 79.9716796875 587 45.958984375 669 c 1,13,-1
 101.99609375 745 l 1,14,-1
 115.48046875 767 l 1,15,-1
 130.897460938 757 l 1,16,17
 133.204101562 740 133.204101562 740 140.51171875 723 c 128,-1,18
 147.819335938 706 147.819335938 706 174.384765625 678 c 1,19,20
 172.701171875 680 172.701171875 680 177.859375 681 c 0,21,22
 228.859375 681 228.859375 681 263.8515625 772.5 c 128,-1,23
 298.84375 864 298.84375 864 320.483398438 988 c 1,24,25
 286.478515625 956.969726562 286.478515625 956.969726562 247.984375 956.969726562 c 0,26,27
 246.78125 956.969726562 246.78125 956.969726562 245.57421875 957 c 0,28,29
 179.57421875 957 179.57421875 957 146.611328125 1033 c 128,-1,30
 113.6484375 1109 113.6484375 1109 134.713867188 1242 c 0,31,32
 159.421875 1398 159.421875 1398 216.958984375 1474 c 128,-1,33
 274.49609375 1550 274.49609375 1550 337.49609375 1550 c 0,34,35
 425.49609375 1550 425.49609375 1550 447.553710938 1452.5 c 128,-1,36
 469.611328125 1355 469.611328125 1355 437.142578125 1150 c 0,37,38
 388.834960938 845 388.834960938 845 326.298828125 718.5 c 128,-1,39
 263.763671875 592 263.763671875 592 167.971679688 587 c 1,11,12
EndSplineSet
EndChar

StartChar: fraction
Encoding: 8260 8260 526
Width: 512
VWidth: 2441
GlyphClass: 1
Flags: HW
LayerCount: 2
Fore
SplineSet
-10.3134765625 -103 m 1,0,-1
 -71.978515625 -63 l 1,1,-1
 574.216796875 1624 l 1,2,-1
 636.564453125 1582 l 1,3,-1
 -10.3134765625 -103 l 1,0,-1
EndSplineSet
EndChar

StartChar: onehalf
Encoding: 189 189 527
Width: 453
VWidth: 2441
GlyphClass: 1
Flags: HW
LayerCount: 2
Fore
SplineSet
125.07421875 -170 m 1,0,-1
 136.161132812 -100 l 1,1,2
 198.900390625 12 198.900390625 12 239.913085938 91 c 128,-1,3
 280.92578125 170 280.92578125 170 305.220703125 235 c 128,-1,4
 329.515625 300 329.515625 300 340.28515625 368 c 0,5,6
 342.537109375 379.809570312 342.537109375 379.809570312 344.232421875 390.512695312 c 0,0,0
 360.3359375 492.190429688 360.3359375 492.190429688 326.2421875 494 c 0,7,8
 307.2421875 494 307.2421875 494 292.969726562 476.5 c 128,-1,9
 278.698242188 459 278.698242188 459 257.145507812 405 c 1,10,-1
 209.629882812 427 l 1,11,12
 235.716796875 497 235.716796875 497 266.631835938 537.5 c 128,-1,13
 297.545898438 578 297.545898438 578 341.545898438 578 c 0,14,15
 435.545898438 578 435.545898438 578 402.96875 366 c 0,16,17
 384.913085938 252 384.913085938 252 336.336914062 150.5 c 128,-1,18
 287.760742188 49 287.760742188 49 215.37890625 -86 c 1,19,-1
 333.37890625 -86 l 1,20,-1
 320.07421875 -170 l 1,21,-1
 125.07421875 -170 l 1,0,-1
-12.3134765625 -103 m 1,22,-1
 -60.978515625 -63 l 1,23,-1
 512.216796875 1624 l 1,24,-1
 561.564453125 1582 l 1,25,-1
 -12.3134765625 -103 l 1,22,-1
112.822265625 927 m 1,26,-1
 209.595703125 1538 l 1,27,-1
 147.625976562 1494 l 1,28,-1
 147.98046875 1572 l 1,29,-1
 252.293945312 1675 l 1,30,-1
 295.293945312 1675 l 1,31,-1
 176.822265625 927 l 1,32,-1
 112.822265625 927 l 1,26,-1
EndSplineSet
EndChar

StartChar: onequarter
Encoding: 188 188 528
Width: 431
VWidth: 2441
GlyphClass: 1
Flags: HW
LayerCount: 2
Fore
SplineSet
193.729492188 93 m 1,0,-1
 260.729492188 93 l 1,1,-1
 299.850585938 340 l 1,2,-1
 193.729492188 93 l 1,0,-1
219.07421875 -170 m 1,3,-1
 247.108398438 7 l 1,4,-1
 120.108398438 7 l 1,5,-1
 132.145507812 83 l 1,6,-1
 351.229492188 576 l 1,7,-1
 397.229492188 576 l 1,8,-1
 320.729492188 93 l 1,9,-1
 350.729492188 93 l 1,10,-1
 336.791992188 5 l 1,11,-1
 306.791992188 5 l 1,12,-1
 279.07421875 -170 l 1,13,-1
 219.07421875 -170 l 1,3,-1
-26.3134765625 -103 m 1,14,-1
 -72.978515625 -63 l 1,15,-1
 493.216796875 1624 l 1,16,-1
 540.564453125 1582 l 1,17,-1
 -26.3134765625 -103 l 1,14,-1
99.822265625 927 m 1,18,-1
 196.595703125 1538 l 1,19,-1
 136.625976562 1494 l 1,20,-1
 136.98046875 1572 l 1,21,-1
 239.293945312 1675 l 1,22,-1
 281.293945312 1675 l 1,23,-1
 162.822265625 927 l 1,24,-1
 99.822265625 927 l 1,18,-1
EndSplineSet
EndChar

StartChar: threequarters
Encoding: 190 190 529
Width: 418
VWidth: 2441
GlyphClass: 1
Flags: HW
LayerCount: 2
Fore
SplineSet
249.729492188 93 m 1,0,-1
 288.850585938 340 l 1,1,-1
 184.729492188 93 l 1,2,-1
 249.729492188 93 l 1,0,-1
236.108398438 7 m 1,3,-1
 113.108398438 7 l 1,4,-1
 125.145507812 83 l 1,5,-1
 340.229492188 576 l 1,6,-1
 385.229492188 576 l 1,7,-1
 308.729492188 93 l 1,8,-1
 337.729492188 93 l 1,9,-1
 323.791992188 5 l 1,10,-1
 294.791992188 5 l 1,11,-1
 267.07421875 -170 l 1,12,-1
 208.07421875 -170 l 1,13,-1
 236.108398438 7 l 1,3,-1
-29.3134765625 -103 m 1,14,-1
 -74.978515625 -63 l 1,15,-1
 482.216796875 1624 l 1,16,-1
 528.564453125 1582 l 1,17,-1
 -29.3134765625 -103 l 1,14,-1
113.080078125 916 m 0,18,19
 80.080078125 916 80.080078125 916 62.27734375 942.5 c 128,-1,20
 44.474609375 969 44.474609375 969 35.126953125 1011 c 1,21,-1
 81.779296875 1053 l 1,22,-1
 98.3125 1069 l 1,23,-1
 101.204101562 1062 l 1,24,25
 88.8779296875 1041 88.8779296875 1041 98.126953125 1011 c 0,26,27
 106.434570312 994 106.434570312 994 122.434570312 994 c 0,28,29
 165.434570312 994 165.434570312 994 188.766601562 1135 c 0,30,31
 202.387695312 1221 202.387695312 1221 189.53515625 1253.5 c 128,-1,32
 179.469726562 1278.95214844 179.469726562 1278.95214844 151.880859375 1278.95214844 c 0,0,0
 144.241210938 1278.95214844 144.241210938 1278.95214844 135.256835938 1277 c 1,33,-1
 147.611328125 1355 l 1,34,35
 194.611328125 1355 194.611328125 1355 210.68359375 1396.5 c 128,-1,36
 226.756835938 1438 226.756835938 1438 235.625976562 1494 c 0,37,38
 252.256835938 1599 252.256835938 1599 219.256835938 1599 c 0,39,40
 195.256835938 1599 195.256835938 1599 171.38671875 1543 c 1,41,-1
 134.247070312 1580 l 1,42,43
 180.298828125 1677.00976562 180.298828125 1677.00976562 235.483398438 1677.00976562 c 0,0,0
 236.046875 1677.00976562 236.046875 1677.00976562 236.610351562 1677 c 0,44,45
 274.610351562 1677 274.610351562 1677 291.483398438 1632 c 128,-1,46
 308.356445312 1587 308.356445312 1587 293.151367188 1491 c 0,47,48
 283.96484375 1433 283.96484375 1433 266.99609375 1389 c 128,-1,49
 250.02734375 1345 250.02734375 1345 224.017578125 1326 c 1,50,51
 245.69140625 1305 245.69140625 1305 251.748046875 1258 c 128,-1,52
 257.803710938 1211 257.803710938 1211 245.291015625 1132 c 0,53,54
 228.661132812 1027 228.661132812 1027 193.370117188 971.5 c 128,-1,55
 158.080078125 916 158.080078125 916 113.080078125 916 c 0,18,19
EndSplineSet
EndChar

StartChar: uni2070.ss02
Encoding: 65566 -1 533
Width: 405
VWidth: 2441
GlyphClass: 1
Flags: HW
LayerCount: 2
Fore
SplineSet
216.176757812 683 m 0,0,1
 255.176757812 683 255.176757812 683 289.510742188 773.5 c 128,-1,2
 323.84375 864 323.84375 864 355.99609375 1067 c 0,3,4
 416.815429688 1451 416.815429688 1451 337.815429688 1451 c 0,5,6
 302.815429688 1451 302.815429688 1451 266.348632812 1356.5 c 128,-1,7
 229.880859375 1262 229.880859375 1262 198.99609375 1067 c 0,8,9
 166.84375 864 166.84375 864 175.510742188 773.5 c 128,-1,10
 184.176757812 683 184.176757812 683 216.176757812 683 c 0,0,1
200.337890625 583 m 0,11,12
 125.337890625 583 125.337890625 583 95.65625 695.5 c 128,-1,13
 65.974609375 808 65.974609375 808 106.99609375 1067 c 0,14,15
 146.909179688 1319 146.909179688 1319 212.702148438 1434.5 c 128,-1,16
 278.49609375 1550 278.49609375 1550 353.49609375 1550 c 0,17,18
 432.49609375 1550 432.49609375 1550 460.123046875 1434 c 128,-1,19
 487.750976562 1318 487.750976562 1318 447.99609375 1067 c 0,20,21
 406.974609375 808 406.974609375 808 343.15625 695.5 c 128,-1,22
 279.337890625 583 279.337890625 583 200.337890625 583 c 0,11,12
EndSplineSet
EndChar

StartChar: uni2070.zero
Encoding: 65570 -1 537
Width: 405
VWidth: 2441
GlyphClass: 1
Flags: HW
LayerCount: 2
Fore
SplineSet
278.51171875 1045 m 0,0,1
 259.51171875 1045 259.51171875 1045 249.466796875 1060.5 c 128,-1,2
 239.421875 1076 239.421875 1076 243.064453125 1099 c 0,3,4
 246.390625 1120 246.390625 1120 261.50390625 1136.5 c 128,-1,5
 276.6171875 1153 276.6171875 1153 295.6171875 1153 c 0,6,7
 312.6171875 1153 312.6171875 1153 323.583007812 1137 c 128,-1,8
 334.548828125 1121 334.548828125 1121 331.064453125 1099 c 0,9,10
 327.73828125 1078 327.73828125 1078 311.625 1061.5 c 128,-1,11
 295.51171875 1045 295.51171875 1045 278.51171875 1045 c 0,0,1
216.176757812 683 m 0,12,13
 255.176757812 683 255.176757812 683 289.510742188 773.5 c 128,-1,14
 323.84375 864 323.84375 864 355.99609375 1067 c 0,15,16
 416.815429688 1451 416.815429688 1451 337.815429688 1451 c 0,17,18
 302.815429688 1451 302.815429688 1451 266.348632812 1356.5 c 128,-1,19
 229.880859375 1262 229.880859375 1262 198.99609375 1067 c 0,20,21
 166.84375 864 166.84375 864 175.510742188 773.5 c 128,-1,22
 184.176757812 683 184.176757812 683 216.176757812 683 c 0,12,13
200.337890625 583 m 0,23,24
 125.337890625 583 125.337890625 583 95.65625 695.5 c 128,-1,25
 65.974609375 808 65.974609375 808 106.99609375 1067 c 0,26,27
 146.909179688 1319 146.909179688 1319 212.702148438 1434.5 c 128,-1,28
 278.49609375 1550 278.49609375 1550 353.49609375 1550 c 0,29,30
 432.49609375 1550 432.49609375 1550 460.123046875 1434 c 128,-1,31
 487.750976562 1318 487.750976562 1318 447.99609375 1067 c 0,32,33
 406.974609375 808 406.974609375 808 343.15625 695.5 c 128,-1,34
 279.337890625 583 279.337890625 583 200.337890625 583 c 0,23,24
EndSplineSet
EndChar

StartChar: period
Encoding: 46 46 538
Width: 240
VWidth: 2607
GlyphClass: 1
Flags: HW
LayerCount: 2
Fore
SplineSet
47.5400390625 136 m 128,-1,1
 10.5400390625 136 10.5400390625 136 -9.8125 168.5 c 128,-1,2
 -30.1650390625 201 -30.1650390625 201 -23.1962890625 245 c 128,-1,3
 -16.2265625 289 -16.2265625 289 14.2626953125 320.5 c 128,-1,4
 44.7509765625 352 44.7509765625 352 81.7509765625 352 c 128,-1,5
 118.750976562 352 118.750976562 352 139.182617188 320 c 128,-1,6
 159.614257812 288 159.614257812 288 152.803710938 245 c 0,7,8
 145.834960938 201 145.834960938 201 115.1875 168.5 c 128,-1,0
 84.5400390625 136 84.5400390625 136 47.5400390625 136 c 128,-1,1
EndSplineSet
EndChar

StartChar: comma
Encoding: 44 44 539
Width: 258
VWidth: 2607
GlyphClass: 1
Flags: HW
LayerCount: 2
Fore
SplineSet
-46.6455078125 -244 m 1,0,-1
 -92.568359375 -193 l 1,1,2
 -47.58984375 -130 -47.58984375 -130 -15.5078125 -69.5 c 128,-1,3
 16.57421875 -9 16.57421875 -9 23.7021484375 36 c 0,4,5
 29.2451171875 71 29.2451171875 71 17.6259765625 95.5 c 128,-1,6
 6.005859375 120 6.005859375 120 -4.400390625 149 c 128,-1,7
 -14.8076171875 178 -14.8076171875 178 -7.8388671875 222 c 0,8,9
 1.8232421875 283 1.8232421875 283 32.787109375 317.5 c 128,-1,10
 63.7509765625 352 63.7509765625 352 96.7509765625 352 c 0,11,12
 128.750976562 352 128.750976562 352 152.549804688 316 c 128,-1,13
 176.34765625 280 176.34765625 280 162.092773438 190 c 0,14,15
 146.571289062 92 146.571289062 92 93.6533203125 -8.5 c 128,-1,16
 40.736328125 -109 40.736328125 -109 -46.6455078125 -244 c 1,0,-1
EndSplineSet
EndChar

StartChar: colon
Encoding: 58 58 540
Width: 239
VWidth: 2716
GlyphClass: 1
Flags: HW
LayerCount: 2
Fore
SplineSet
63.8037109375 245 m 128,-1,1
 26.8037109375 245 26.8037109375 245 6.9521484375 277.5 c 128,-1,2
 -12.900390625 310 -12.900390625 310 -5.931640625 354 c 128,-1,3
 1.037109375 398 1.037109375 398 31.5263671875 429.5 c 128,-1,4
 62.015625 461 62.015625 461 98.015625 461 c 0,5,6
 135.015625 461 135.015625 461 155.447265625 429 c 128,-1,7
 175.87890625 397 175.87890625 397 169.068359375 354 c 0,8,9
 162.099609375 310 162.099609375 310 131.452148438 277.5 c 128,-1,0
 100.803710938 245 100.803710938 245 63.8037109375 245 c 128,-1,1
192.5703125 1058 m 128,-1,11
 155.5703125 1058 155.5703125 1058 135.717773438 1090.5 c 128,-1,12
 115.866210938 1123 115.866210938 1123 122.834960938 1167 c 128,-1,13
 129.803710938 1211 129.803710938 1211 160.29296875 1242.5 c 128,-1,14
 190.782226562 1274 190.782226562 1274 226.782226562 1274 c 0,15,16
 263.782226562 1274 263.782226562 1274 284.213867188 1242 c 128,-1,17
 304.645507812 1210 304.645507812 1210 297.834960938 1167 c 0,18,19
 290.866210938 1123 290.866210938 1123 260.217773438 1090.5 c 128,-1,10
 229.5703125 1058 229.5703125 1058 192.5703125 1058 c 128,-1,11
EndSplineSet
EndChar

StartChar: semicolon
Encoding: 59 59 541
Width: 260
VWidth: 2716
GlyphClass: 1
Flags: HW
LayerCount: 2
Fore
SplineSet
-29.3818359375 -135 m 1,0,-1
 -75.3046875 -84 l 1,1,2
 -30.326171875 -21 -30.326171875 -21 2.255859375 39.5 c 128,-1,3
 34.8388671875 100 34.8388671875 100 41.9658203125 145 c 0,4,5
 47.5087890625 180 47.5087890625 180 36.3896484375 204.5 c 128,-1,6
 25.2705078125 229 25.2705078125 229 14.36328125 258 c 128,-1,7
 3.4560546875 287 3.4560546875 287 10.4248046875 331 c 0,8,9
 20.0869140625 392 20.0869140625 392 51.55078125 426.5 c 128,-1,10
 83.015625 461 83.015625 461 114.015625 461 c 0,11,12
 146.015625 461 146.015625 461 170.813476562 425 c 128,-1,13
 195.611328125 389 195.611328125 389 181.357421875 299 c 0,14,15
 165.834960938 201 165.834960938 201 111.91796875 100.5 c 128,-1,16
 58 0 58 0 -29.3818359375 -135 c 1,0,-1
205.5703125 1058 m 128,-1,18
 168.5703125 1058 168.5703125 1058 148.717773438 1090.5 c 128,-1,19
 128.866210938 1123 128.866210938 1123 135.834960938 1167 c 128,-1,20
 142.803710938 1211 142.803710938 1211 173.29296875 1242.5 c 128,-1,21
 203.782226562 1274 203.782226562 1274 239.782226562 1274 c 0,22,23
 276.782226562 1274 276.782226562 1274 297.213867188 1242 c 128,-1,24
 317.645507812 1210 317.645507812 1210 310.834960938 1167 c 0,25,26
 303.866210938 1123 303.866210938 1123 273.217773438 1090.5 c 128,-1,17
 242.5703125 1058 242.5703125 1058 205.5703125 1058 c 128,-1,18
EndSplineSet
EndChar

StartChar: ellipsis
Encoding: 8230 8230 542
Width: 456
VWidth: 2441
GlyphClass: 1
Flags: HW
LayerCount: 2
Fore
SplineSet
-39.751953125 -30 m 128,-1,1
 -68.751953125 -30 -68.751953125 -30 -83.1044921875 2.5 c 128,-1,2
 -97.45703125 35 -97.45703125 35 -90.4873046875 79 c 128,-1,3
 -83.5185546875 123 -83.5185546875 123 -58.529296875 154.5 c 128,-1,4
 -33.5400390625 186 -33.5400390625 186 -5.5400390625 186 c 0,5,6
 23.4599609375 186 23.4599609375 186 37.8916015625 154 c 128,-1,7
 52.3232421875 122 52.3232421875 122 45.5126953125 79 c 0,8,9
 38.54296875 35 38.54296875 35 13.8955078125 2.5 c 128,-1,0
 -10.751953125 -30 -10.751953125 -30 -39.751953125 -30 c 128,-1,1
115.248046875 -30 m 128,-1,11
 86.248046875 -30 86.248046875 -30 71.8955078125 2.5 c 128,-1,12
 57.54296875 35 57.54296875 35 64.5126953125 79 c 128,-1,13
 71.4814453125 123 71.4814453125 123 96.470703125 154.5 c 128,-1,14
 121.459960938 186 121.459960938 186 149.459960938 186 c 0,15,16
 178.459960938 186 178.459960938 186 192.891601562 154 c 128,-1,17
 207.323242188 122 207.323242188 122 200.512695312 79 c 0,18,19
 193.54296875 35 193.54296875 35 168.895507812 2.5 c 128,-1,10
 144.248046875 -30 144.248046875 -30 115.248046875 -30 c 128,-1,11
272.248046875 -30 m 128,-1,21
 243.248046875 -30 243.248046875 -30 228.895507812 2.5 c 128,-1,22
 214.54296875 35 214.54296875 35 221.512695312 79 c 128,-1,23
 228.481445312 123 228.481445312 123 252.970703125 154.5 c 128,-1,24
 277.459960938 186 277.459960938 186 306.459960938 186 c 128,-1,25
 335.459960938 186 335.459960938 186 349.891601562 154 c 128,-1,26
 364.323242188 122 364.323242188 122 357.512695312 79 c 0,27,28
 350.54296875 35 350.54296875 35 325.895507812 2.5 c 128,-1,20
 301.248046875 -30 301.248046875 -30 272.248046875 -30 c 128,-1,21
EndSplineSet
EndChar

StartChar: exclam
Encoding: 33 33 543
Width: 240
VWidth: 2441
GlyphClass: 1
Flags: HW
LayerCount: 2
Fore
SplineSet
21.248046875 -30 m 128,-1,1
 -15.751953125 -30 -15.751953125 -30 -36.1044921875 2.5 c 128,-1,2
 -56.45703125 35 -56.45703125 35 -49.4873046875 79 c 128,-1,3
 -42.5185546875 123 -42.5185546875 123 -12.029296875 154.5 c 128,-1,4
 18.4599609375 186 18.4599609375 186 55.4599609375 186 c 128,-1,5
 92.4599609375 186 92.4599609375 186 112.891601562 154 c 128,-1,6
 133.323242188 122 133.323242188 122 126.512695312 79 c 0,7,8
 119.54296875 35 119.54296875 35 88.8955078125 2.5 c 128,-1,0
 58.248046875 -30 58.248046875 -30 21.248046875 -30 c 128,-1,1
61.916015625 473 m 1,9,-1
 185.259765625 1498 l 2,10,11
 185.912109375 1503.19140625 185.912109375 1503.19140625 186.705078125 1508.20214844 c 0,12,13
 195.236328125 1562.06347656 195.236328125 1562.06347656 220.123046875 1595 c 0,14,15
 247.325195312 1631 247.325195312 1631 284.325195312 1631 c 0,16,17
 319.325195312 1631 319.325195312 1631 337.202148438 1595.5 c 0,18,19
 352.479492188 1565.1640625 352.479492188 1565.1640625 341.94921875 1498.6796875 c 0,20,21
 340.157226562 1487.36328125 340.157226562 1487.36328125 337.6171875 1475 c 2,22,-1
 137.916015625 473 l 1,23,-1
 61.916015625 473 l 1,9,-1
EndSplineSet
EndChar

StartChar: question
Encoding: 63 63 545
Width: 512
VWidth: 2441
GlyphClass: 1
Flags: HW
LayerCount: 2
Fore
SplineSet
174.248046875 -30 m 128,-1,1
 138.248046875 -30 138.248046875 -30 118.895507812 2.5 c 128,-1,2
 99.54296875 35 99.54296875 35 106.512695312 79 c 128,-1,3
 113.481445312 123 113.481445312 123 143.470703125 154.5 c 128,-1,4
 173.459960938 186 173.459960938 186 208.459960938 186 c 0,5,6
 244.459960938 186 244.459960938 186 264.891601562 154 c 128,-1,7
 285.323242188 122 285.323242188 122 278.512695312 79 c 0,8,9
 271.54296875 35 271.54296875 35 240.895507812 2.5 c 128,-1,0
 210.248046875 -30 210.248046875 -30 174.248046875 -30 c 128,-1,1
200.46875 527 m 2,10,11
 217.890625 637 217.890625 637 245.294921875 709 c 128,-1,12
 272.698242188 781 272.698242188 781 305.013671875 833.5 c 128,-1,13
 337.329101562 886 337.329101562 886 368.90625 937 c 128,-1,14
 400.483398438 988 400.483398438 988 426.833007812 1056.5 c 128,-1,15
 453.182617188 1125 453.182617188 1125 469.8125 1230 c 0,16,17
 487.235351562 1340 487.235351562 1340 476.193359375 1415.5 c 128,-1,18
 465.151367188 1491 465.151367188 1491 406.151367188 1491 c 0,19,20
 337.151367188 1491 337.151367188 1491 273.3125 1391 c 1,21,22
 255.452148438 1354 255.452148438 1354 250.1015625 1336 c 128,-1,23
 244.750976562 1318 244.750976562 1318 251.741210938 1299 c 1,24,-1
 241.890625 1281 l 1,25,-1
 220.474609375 1291 l 1,26,-1
 155.303710938 1372 l 1,27,28
 215.151367188 1491 215.151367188 1491 279.68359375 1557.5 c 128,-1,29
 344.216796875 1624 344.216796875 1624 431.216796875 1624 c 0,30,31
 527.216796875 1624 527.216796875 1624 571.515625 1537.5 c 128,-1,32
 615.815429688 1451 615.815429688 1451 582.713867188 1242 c 0,33,34
 563.390625 1120 563.390625 1120 534.877929688 1041 c 128,-1,35
 506.366210938 962 506.366210938 962 474.99609375 906 c 128,-1,36
 443.626953125 850 443.626953125 850 411.708007812 800 c 128,-1,37
 379.788085938 750 379.788085938 750 353.651367188 686 c 128,-1,38
 327.514648438 622 327.514648438 622 312.46875 527 c 2,39,-1
 296.629882812 427 l 1,40,-1
 184.629882812 427 l 1,41,-1
 200.46875 527 l 2,10,11
EndSplineSet
EndChar

StartChar: periodcentered
Encoding: 183 183 547
Width: 240
VWidth: 2441
GlyphClass: 1
Flags: HW
LayerCount: 2
Fore
SplineSet
137.344726562 703 m 128,-1,1
 100.344726562 703 100.344726562 703 79.912109375 735 c 128,-1,2
 59.48046875 767 59.48046875 767 66.4501953125 811 c 128,-1,3
 73.4189453125 855 73.4189453125 855 103.908203125 886.5 c 128,-1,4
 134.396484375 918 134.396484375 918 171.396484375 918 c 128,-1,5
 208.396484375 918 208.396484375 918 228.908203125 886.5 c 128,-1,6
 249.418945312 855 249.418945312 855 242.450195312 811 c 128,-1,7
 235.48046875 767 235.48046875 767 204.912109375 735 c 128,-1,0
 174.344726562 703 174.344726562 703 137.344726562 703 c 128,-1,1
EndSplineSet
Substitution2: "Single Substitution lookup 11 subtable" periodcentered.loclCAT
Substitution2: "Single Substitution lookup 10 subtable" periodcentered.loclCAT
Substitution2: "'aalt' Access All Alternates in Latin lookup 0 subtable" periodcentered.loclCAT
EndChar

StartChar: bullet
Encoding: 8226 8226 548
Width: 292
VWidth: 2441
GlyphClass: 1
Flags: HW
LayerCount: 2
Fore
SplineSet
140.75390625 573 m 0,0,1
 94.75390625 573 94.75390625 573 68.564453125 616 c 128,-1,2
 42.375 659 42.375 659 51.2451171875 715 c 0,3,4
 60.90625 776 60.90625 776 103.479492188 817.5 c 128,-1,5
 146.051757812 859 146.051757812 859 186.051757812 859 c 0,6,7
 232.051757812 859 232.051757812 859 260.321289062 816.5 c 128,-1,8
 288.58984375 774 288.58984375 774 279.245117188 715 c 0,9,10
 270.375 659 270.375 659 230.064453125 616 c 128,-1,11
 189.75390625 573 189.75390625 573 140.75390625 573 c 0,0,1
EndSplineSet
EndChar

StartChar: asterisk
Encoding: 42 42 549
Width: 512
VWidth: 2441
GlyphClass: 1
Flags: HW
LayerCount: 2
Fore
SplineSet
90.515625 300 m 1,0,-1
 32.13671875 386 l 1,1,-1
 231.797851562 769 l 1,2,-1
 80.3876953125 899 l 1,3,-1
 137.819335938 1028 l 1,4,-1
 264.745117188 876 l 1,5,-1
 321.325195312 1309 l 1,6,-1
 421.325195312 1309 l 1,7,-1
 334.745117188 876 l 1,8,-1
 520.819335938 1028 l 1,9,-1
 528.387695312 899 l 1,10,-1
 325.797851562 769 l 1,11,-1
 412.13671875 386 l 1,12,-1
 326.990234375 303 l 1,13,-1
 265.750976562 674 l 1,14,-1
 90.515625 300 l 1,0,-1
EndSplineSet
Substitution2: "'ss01' Style Set 1 in Latin lookup 35 subtable" asterisk.ss01
Substitution2: "'salt' Stylistic Alternatives in Latin lookup 34 subtable" asterisk.ss01
Substitution2: "'aalt' Access All Alternates in Latin lookup 0 subtable" asterisk.ss01
EndChar

StartChar: uni2E12
Encoding: 11794 11794 550
Width: 218
VWidth: 2212
GlyphClass: 1
Flags: HW
LayerCount: 2
Fore
SplineSet
-100.962890625 -246 m 1,0,-1
 -84.173828125 -140 l 1,1,2
 -47.173828125 -140 -47.173828125 -140 -20.8291015625 -81 c 128,-1,3
 5.515625 -22 5.515625 -22 16.4443359375 47 c 0,4,5
 27.53125 117 27.53125 117 20.0341796875 177 c 128,-1,6
 12.537109375 237 12.537109375 237 -24.462890625 237 c 1,7,-1
 -8.1494140625 340 l 1,8,9
 54.8505859375 340 54.8505859375 340 89.263671875 270 c 128,-1,10
 123.676757812 200 123.676757812 200 99.126953125 45 c 0,11,12
 75.3701171875 -105 75.3701171875 -105 18.703125 -175.5 c 128,-1,13
 -37.962890625 -246 -37.962890625 -246 -100.962890625 -246 c 1,0,-1
EndSplineSet
EndChar

StartChar: numbersign
Encoding: 35 35 551
Width: 489
VWidth: 2441
GlyphClass: 1
Flags: HW
LayerCount: 2
Fore
SplineSet
184.229492188 576 m 1,0,-1
 278.229492188 576 l 1,1,-1
 364.54296875 1001 l 1,2,-1
 271.54296875 1001 l 1,3,-1
 184.229492188 576 l 1,0,-1
162.80078125 24 m 1,4,-1
 256.390625 476 l 1,5,-1
 163.390625 476 l 1,6,-1
 70.54296875 35 l 1,7,-1
 -3.931640625 32 l 1,8,-1
 86.5986328125 471 l 1,9,-1
 -1.4013671875 471 l 1,10,-1
 18.4375 571 l 1,11,-1
 107.4375 571 l 1,12,-1
 195.225585938 999 l 1,13,-1
 96.2255859375 999 l 1,14,-1
 114.380859375 1101 l 1,15,-1
 218.380859375 1101 l 1,16,-1
 304.219726562 1523 l 1,17,-1
 381.01171875 1528 l 1,18,-1
 294.172851562 1106 l 1,19,-1
 388.172851562 1106 l 1,20,-1
 473.5859375 1519 l 1,21,-1
 551.90234375 1521 l 1,22,-1
 465.96484375 1111 l 1,23,-1
 547.96484375 1111 l 1,24,-1
 525.334960938 1006 l 1,25,-1
 443.334960938 1006 l 1,26,-1
 355.337890625 583 l 1,27,-1
 446.337890625 583 l 1,28,-1
 425.658203125 484 l 1,29,-1
 335.658203125 484 l 1,30,-1
 242.54296875 35 l 1,31,-1
 162.80078125 24 l 1,4,-1
EndSplineSet
EndChar

StartChar: slash
Encoding: 47 47 552
Width: 512
VWidth: 2441
GlyphClass: 1
Flags: HW
LayerCount: 2
Fore
SplineSet
25.6865234375 -103 m 1,0,-1
 -70.869140625 -56 l 1,1,-1
 539.216796875 1624 l 1,2,-1
 634.98046875 1572 l 1,3,-1
 25.6865234375 -103 l 1,0,-1
EndSplineSet
Substitution2: "'frac' Diagonal Fractions in Latin lookup 23 subtable" fraction
Substitution2: "'aalt' Access All Alternates in Latin lookup 0 subtable" fraction
EndChar

StartChar: backslash
Encoding: 92 92 553
Width: 512
VWidth: 2441
GlyphClass: 1
Flags: HW
LayerCount: 2
Fore
SplineSet
265.686523438 -103 m 1,0,-1
 186.98046875 1572 l 1,1,-1
 299.216796875 1624 l 1,2,-1
 377.130859375 -56 l 1,3,-1
 265.686523438 -103 l 1,0,-1
EndSplineSet
EndChar

StartChar: asterisk.ss01
Encoding: 65572 -1 555
Width: 512
VWidth: 2441
GlyphClass: 1
Flags: HW
LayerCount: 2
Fore
SplineSet
113.797851562 447 m 1,0,-1
 55.2607421875 532 l 1,1,-1
 255.080078125 916 l 1,2,-1
 103.51171875 1045 l 1,3,-1
 160.943359375 1174 l 1,4,-1
 288.02734375 1023 l 1,5,-1
 344.607421875 1456 l 1,6,-1
 444.607421875 1456 l 1,7,-1
 358.02734375 1023 l 1,8,-1
 543.943359375 1174 l 1,9,-1
 551.51171875 1045 l 1,10,-1
 349.080078125 916 l 1,11,-1
 435.260742188 532 l 1,12,-1
 350.114257812 449 l 1,13,-1
 288.875 820 l 1,14,-1
 113.797851562 447 l 1,0,-1
EndSplineSet
EndChar

StartChar: parenleft
Encoding: 40 40 556
Width: 469
VWidth: 2449
GlyphClass: 1
Flags: HW
LayerCount: 2
Fore
SplineSet
253.037109375 -246 m 1,0,1
 168.083984375 -151 168.083984375 -151 112.92578125 9 c 128,-1,2
 57.7666015625 169 57.7666015625 169 43.181640625 370.5 c 128,-1,3
 28.595703125 572 28.595703125 572 62.96484375 789 c 128,-1,4
 97.3349609375 1006 97.3349609375 1006 173.95703125 1202.5 c 128,-1,5
 250.580078125 1399 250.580078125 1399 354.129882812 1554 c 128,-1,6
 457.678710938 1709 457.678710938 1709 570.409179688 1802 c 1,7,-1
 606.669921875 1690 l 1,8,9
 514.048828125 1604 514.048828125 1604 426.8203125 1460.5 c 128,-1,10
 339.592773438 1317 339.592773438 1317 273.716796875 1141 c 128,-1,11
 207.840820312 965 207.840820312 965 178.856445312 782 c 0,12,13
 149.713867188 598 149.713867188 598 159.997070312 423 c 128,-1,14
 170.279296875 248 170.279296875 248 213.234375 102.5 c 128,-1,15
 256.189453125 -43 256.189453125 -43 322.251953125 -131 c 1,16,-1
 253.037109375 -246 l 1,0,1
EndSplineSet
EndChar

StartChar: parenright
Encoding: 41 41 557
Width: 469
VWidth: 2449
GlyphClass: 1
Flags: HW
LayerCount: 2
Fore
SplineSet
-49.962890625 -246 m 1,0,1
 65.083984375 -151 65.083984375 -151 171.42578125 9 c 0,2,3
 277.766601562 169 277.766601562 169 355.602539062 370 c 0,4,5
 433.4375 571 433.4375 571 467.96484375 789 c 0,6,7
 502.334960938 1006 502.334960938 1006 488.377929688 1202 c 0,8,9
 474.580078125 1399 474.580078125 1399 420.129882812 1554 c 0,10,11
 364.678710938 1709 364.678710938 1709 283.409179688 1802 c 1,12,-1
 210.669921875 1690 l 1,13,14
 276.048828125 1604 276.048828125 1604 317.399414062 1461 c 0,15,16
 358.592773438 1317 358.592773438 1317 368.55859375 1140 c 0,17,18
 378.840820312 965 378.840820312 965 349.856445312 782 c 0,19,20
 320.713867188 598 320.713867188 598 254.997070312 423 c 0,21,22
 189.279296875 248 189.279296875 248 101.155273438 102 c 0,23,24
 12.189453125 -43 12.189453125 -43 -82.748046875 -131 c 1,25,-1
 -49.962890625 -246 l 1,0,1
EndSplineSet
EndChar

StartChar: braceleft
Encoding: 123 123 558
Width: 512
VWidth: 2486
GlyphClass: 1
Flags: HW
LayerCount: 2
Fore
SplineSet
310.381835938 -187 m 2,0,1
 223.381835938 -187 223.381835938 -187 166.004882812 -151.5 c 128,-1,2
 108.626953125 -116 108.626953125 -116 91.7783203125 -23.5 c 128,-1,3
 76.3935546875 60.9560546875 76.3935546875 60.9560546875 100.267578125 211.688476562 c 0,0,0
 102.541015625 226.043945312 102.541015625 226.043945312 105.170898438 241 c 2,4,-1
 148.81640625 485 l 2,5,6
 174.31640625 646 174.31640625 646 155.185546875 702 c 128,-1,7
 136.055664062 758 136.055664062 758 83.0556640625 758 c 2,8,-1
 58.0556640625 758 l 1,9,-1
 79.75390625 895 l 1,10,-1
 104.75390625 895 l 2,11,12
 160.75390625 895 160.75390625 895 197.915039062 956 c 128,-1,13
 235.077148438 1017 235.077148438 1017 257.092773438 1156 c 2,14,-1
 282.809570312 1331 l 2,15,16
 316.38671875 1543 316.38671875 1543 396.833984375 1650 c 128,-1,17
 477.28125 1757 477.28125 1757 587.28125 1757 c 2,18,-1
 664.28125 1757 l 1,19,-1
 643.69140625 1627 l 1,20,-1
 564.69140625 1627 l 2,21,22
 511.69140625 1627 511.69140625 1627 469.604492188 1557 c 128,-1,23
 427.517578125 1487 427.517578125 1487 407.244140625 1359 c 2,24,-1
 383.001953125 1187 l 2,25,26
 361.620117188 1052 361.620117188 1052 318.366210938 962 c 128,-1,27
 275.111328125 872 275.111328125 872 213.825195312 826 c 1,28,29
 259.282226562 791 259.282226562 791 273.473632812 697.5 c 128,-1,30
 287.6640625 604 287.6640625 604 262.956054688 448 c 2,31,-1
 228.487304688 243 l 2,32,33
 202.1953125 77 202.1953125 77 224.346679688 8.5 c 128,-1,34
 246.497070312 -60 246.497070312 -60 313.497070312 -60 c 2,35,-1
 374.497070312 -60 l 1,36,-1
 354.381835938 -187 l 1,37,-1
 310.381835938 -187 l 2,0,1
EndSplineSet
EndChar

StartChar: braceright
Encoding: 125 125 559
Width: 512
VWidth: 2486
GlyphClass: 1
Flags: HW
LayerCount: 2
Fore
SplineSet
-45.6181640625 -187 m 2,0,1
 41.3818359375 -187 41.3818359375 -187 109.92578125 -152 c 0,2,3
 178.626953125 -116 178.626953125 -116 225.357421875 -23 c 0,4,5
 266.89453125 59.6669921875 266.89453125 59.6669921875 289.749023438 203.962890625 c 0,0,0
 292.60546875 222 292.60546875 222 295.170898438 241 c 2,1,-1
 328.81640625 485 l 2,2,3
 354.31640625 646 354.31640625 646 392.185546875 702 c 0,4,5
 429.055664062 758 429.055664062 758 481.055664062 758 c 2,6,-1
 506.055664062 758 l 1,7,-1
 527.75390625 895 l 1,8,-1
 502.75390625 895 l 2,9,10
 446.75390625 895 446.75390625 895 429.415039062 956 c 0,11,12
 411.077148438 1017 411.077148438 1017 433.092773438 1156 c 2,13,-1
 462.809570312 1331 l 2,14,15
 496.38671875 1543 496.38671875 1543 450.493164062 1651 c 0,16,17
 403.28125 1757 403.28125 1757 293.28125 1757 c 2,18,-1
 216.28125 1757 l 1,19,-1
 195.69140625 1627 l 1,20,-1
 274.69140625 1627 l 2,21,22
 327.69140625 1627 327.69140625 1627 347.762695312 1558 c 0,23,24
 367.833984375 1489 367.833984375 1489 347.244140625 1359 c 2,25,-1
 317.001953125 1187 l 2,26,27
 295.620117188 1052 295.620117188 1052 310.524414062 963 c 0,28,29
 326.111328125 872 326.111328125 872 371.825195312 826 c 1,30,31
 315.282226562 791 315.282226562 791 270.552734375 698 c 0,32,33
 228.469726562 609.875 228.469726562 609.875 205.881835938 467.2578125 c 0,0,0
 204.375 457.75 204.375 457.75 202.956054688 448 c 2,1,-1
 172.487304688 243 l 2,2,3
 146.1953125 77 146.1953125 77 102.266601562 8 c 0,4,5
 58.4970703125 -60 58.4970703125 -60 -8.5029296875 -60 c 2,6,-1
 -69.5029296875 -60 l 1,7,-1
 -89.6181640625 -187 l 1,8,-1
 -45.6181640625 -187 l 2,0,1
EndSplineSet
EndChar

StartChar: bracketleft
Encoding: 91 91 560
Width: 437
VWidth: 2516
GlyphClass: 1
Flags: HW
LayerCount: 2
Fore
SplineSet
-84.490234375 -142 m 1,0,-1
 208.99609375 1711 l 1,1,-1
 579.99609375 1711 l 1,2,-1
 558.138671875 1573 l 1,3,-1
 309.138671875 1573 l 1,4,-1
 57.94140625 -13 l 1,5,-1
 308.94140625 -13 l 1,6,-1
 288.509765625 -142 l 1,7,-1
 -84.490234375 -142 l 1,0,-1
EndSplineSet
EndChar

StartChar: bracketright
Encoding: 93 93 561
Width: 437
VWidth: 2516
GlyphClass: 1
Flags: HW
LayerCount: 2
Fore
SplineSet
288.509765625 -142 m 1,0,-1
 581.99609375 1711 l 1,1,-1
 210.99609375 1711 l 1,2,-1
 189.138671875 1573 l 1,3,-1
 439.138671875 1573 l 1,4,-1
 187.94140625 -13 l 1,5,-1
 -64.05859375 -13 l 1,6,-1
 -84.490234375 -142 l 1,7,-1
 288.509765625 -142 l 1,0,-1
EndSplineSet
EndChar

StartChar: hyphen
Encoding: 45 45 562
Width: 405
VWidth: 2441
GlyphClass: 1
Flags: HW
LayerCount: 2
Fore
SplineSet
50.1357421875 708 m 1,0,-1
 72.626953125 850 l 1,1,-1
 413.626953125 850 l 1,2,-1
 391.135742188 708 l 1,3,-1
 50.1357421875 708 l 1,0,-1
EndSplineSet
EndChar

StartChar: endash
Encoding: 8211 8211 564
Width: 503
VWidth: 2441
GlyphClass: 1
Flags: HW
LayerCount: 2
Fore
SplineSet
50.1357421875 708 m 1,0,-1
 72.626953125 850 l 1,1,-1
 511.626953125 850 l 1,2,-1
 489.135742188 708 l 1,3,-1
 50.1357421875 708 l 1,0,-1
EndSplineSet
EndChar

StartChar: emdash
Encoding: 8212 8212 565
Width: 440
VWidth: 2441
GlyphClass: 1
Flags: HW
LayerCount: 2
Fore
SplineSet
3.1357421875 708 m 1,0,-1
 25.626953125 850 l 1,1,-1
 473.626953125 850 l 1,2,-1
 451.135742188 708 l 1,3,-1
 3.1357421875 708 l 1,0,-1
EndSplineSet
EndChar

StartChar: underscore
Encoding: 95 95 569
Width: 512
VWidth: 2441
GlyphClass: 1
Flags: HW
LayerCount: 2
Fore
SplineSet
-92.2509765625 -191 m 1,0,-1
 -70.552734375 -54 l 1,1,-1
 377.447265625 -54 l 1,2,-1
 355.749023438 -191 l 1,3,-1
 -92.2509765625 -191 l 1,0,-1
EndSplineSet
EndChar

StartChar: quotedblleft
Encoding: 8220 8220 572
Width: 512
VWidth: 2441
GlyphClass: 1
Flags: HW
LayerCount: 2
Fore
SplineSet
322.762695312 1558 m 1,0,-1
 369.685546875 1507 l 1,1,2
 258.778320312 1375 258.778320312 1375 238.772460938 1255 c 0,3,4
 233.229492188 1220 233.229492188 1220 247.82421875 1198.5 c 128,-1,5
 262.418945312 1177 262.418945312 1177 275.538085938 1152.5 c 128,-1,6
 288.657226562 1128 288.657226562 1128 281.688476562 1084 c 0,7,8
 273.135742188 1030 273.135742188 1030 244.750976562 996 c 128,-1,9
 216.366210938 962 216.366210938 962 183.366210938 962 c 0,10,11
 146.366210938 962 146.366210938 962 125.176757812 1005 c 128,-1,12
 103.987304688 1048 103.987304688 1048 115.07421875 1118 c 0,13,14
 130.595703125 1216 130.595703125 1216 178.48828125 1319.5 c 128,-1,15
 226.380859375 1423 226.380859375 1423 322.762695312 1558 c 1,0,-1
579.762695312 1558 m 1,16,-1
 624.685546875 1507 l 1,17,18
 513.778320312 1375 513.778320312 1375 494.772460938 1255 c 0,19,20
 489.229492188 1220 489.229492188 1220 504.32421875 1198.5 c 128,-1,21
 519.418945312 1177 519.418945312 1177 532.038085938 1152.5 c 128,-1,22
 544.657226562 1128 544.657226562 1128 537.688476562 1084 c 0,23,24
 529.135742188 1030 529.135742188 1030 500.250976562 996 c 128,-1,25
 471.366210938 962 471.366210938 962 438.366210938 962 c 0,26,27
 401.366210938 962 401.366210938 962 380.176757812 1005 c 128,-1,28
 358.987304688 1048 358.987304688 1048 370.07421875 1118 c 0,29,30
 385.595703125 1216 385.595703125 1216 434.48828125 1319.5 c 128,-1,31
 483.380859375 1423 483.380859375 1423 579.762695312 1558 c 1,16,-1
EndSplineSet
EndChar

StartChar: quoteleft
Encoding: 8216 8216 574
Width: 257
VWidth: 2441
GlyphClass: 1
Flags: HW
LayerCount: 2
Fore
SplineSet
323.762695312 1558 m 1,0,-1
 369.685546875 1507 l 1,1,2
 258.995117188 1376.43457031 258.995117188 1376.43457031 240.174804688 1257.61035156 c 0,0,0
 234.219726562 1220.01269531 234.219726562 1220.01269531 248.82421875 1198.5 c 128,-1,5
 263.418945312 1177 263.418945312 1177 277.038085938 1152.5 c 128,-1,6
 290.657226562 1128 290.657226562 1128 283.688476562 1084 c 0,7,8
 275.135742188 1030 275.135742188 1030 246.750976562 996 c 128,-1,9
 218.366210938 962 218.366210938 962 183.366210938 962 c 0,10,11
 146.366210938 962 146.366210938 962 125.176757812 1005 c 128,-1,12
 103.987304688 1048 103.987304688 1048 115.07421875 1118 c 0,13,14
 130.595703125 1216 130.595703125 1216 178.98828125 1319.5 c 128,-1,15
 227.380859375 1423 227.380859375 1423 323.762695312 1558 c 1,0,-1
EndSplineSet
EndChar

StartChar: quoteright
Encoding: 8217 8217 575
Width: 257
VWidth: 2441
GlyphClass: 1
Flags: HW
LayerCount: 2
Fore
SplineSet
144.366210938 962 m 1,0,-1
 98.443359375 1013 l 1,1,2
 210.350585938 1145 210.350585938 1145 229.356445312 1265 c 0,3,4
 234.899414062 1300 234.899414062 1300 220.725585938 1321 c 128,-1,5
 206.551757812 1342 206.551757812 1342 192.169921875 1368 c 128,-1,6
 177.788085938 1394 177.788085938 1394 184.28125 1435 c 0,7,8
 193.151367188 1491 193.151367188 1491 221.95703125 1524.5 c 128,-1,9
 250.762695312 1558 250.762695312 1558 284.762695312 1558 c 0,10,11
 321.762695312 1558 321.762695312 1558 342.952148438 1515 c 128,-1,12
 364.141601562 1472 364.141601562 1472 353.0546875 1402 c 0,13,14
 337.533203125 1304 337.533203125 1304 289.140625 1200.5 c 128,-1,15
 240.748046875 1097 240.748046875 1097 144.366210938 962 c 1,0,-1
EndSplineSet
EndChar

StartChar: guillemotleft
Encoding: 171 171 576
Width: 512
VWidth: 2441
GlyphClass: 1
Flags: HW
LayerCount: 2
Fore
SplineSet
342.599609375 149 m 1,0,-1
 231.853515625 561 l 1,1,-1
 240.723632812 617 l 1,2,-1
 465.583007812 976 l 1,3,-1
 517.745117188 876 l 1,4,-1
 335.288085938 589 l 1,5,-1
 425.12109375 247 l 1,6,-1
 342.599609375 149 l 1,0,-1
139.599609375 149 m 1,7,-1
 26.853515625 561 l 1,8,-1
 35.7236328125 617 l 1,9,-1
 263.583007812 976 l 1,10,-1
 312.745117188 876 l 1,11,-1
 133.288085938 589 l 1,12,-1
 223.12109375 247 l 1,13,-1
 139.599609375 149 l 1,7,-1
EndSplineSet
EndChar

StartChar: guilsinglleft
Encoding: 8249 8249 578
Width: 330
VWidth: 2441
GlyphClass: 1
Flags: HW
LayerCount: 2
Fore
SplineSet
153.599609375 149 m 1,0,-1
 26.853515625 561 l 1,1,-1
 35.7236328125 617 l 1,2,-1
 277.583007812 976 l 1,3,-1
 333.537109375 881 l 1,4,-1
 136.288085938 589 l 1,5,-1
 242.329101562 242 l 1,6,-1
 153.599609375 149 l 1,0,-1
EndSplineSet
EndChar

StartChar: guilsinglright
Encoding: 8250 8250 579
Width: 330
VWidth: 2441
GlyphClass: 1
Flags: HW
LayerCount: 2
Fore
SplineSet
34.599609375 149 m 1,0,-1
 -23.6708984375 242 l 1,1,-1
 192.288085938 589 l 1,2,-1
 84.537109375 881 l 1,3,-1
 173.583007812 976 l 1,4,-1
 301.723632812 617 l 1,5,-1
 292.853515625 561 l 1,6,-1
 34.599609375 149 l 1,0,-1
EndSplineSet
EndChar

StartChar: quotedbl
Encoding: 34 34 580
Width: 400
VWidth: 2441
GlyphClass: 1
Flags: HW
LayerCount: 2
Fore
SplineSet
195.216796875 1624 m 1,0,-1
 317.216796875 1624 l 1,1,2
 293.93359375 1477 293.93359375 1477 277.99609375 1389 c 0,3,4
 263.05859375 1301 263.05859375 1301 250.5546875 1241 c 0,5,6
 237.051757812 1181 237.051757812 1181 223.499023438 1127 c 0,7,8
 209.788085938 1072 209.788085938 1072 193.434570312 994 c 1,9,-1
 119.434570312 994 l 1,10,11
 126.946289062 1073 126.946289062 1073 130.499023438 1127 c 0,12,13
 134.209960938 1182 134.209960938 1182 140.396484375 1240 c 0,14,15
 145.583007812 1298 145.583007812 1298 158.837890625 1388 c 0,16,17
 171.93359375 1477 171.93359375 1477 195.216796875 1624 c 1,0,-1
410.216796875 1624 m 1,18,-1
 531.216796875 1624 l 1,19,20
 507.93359375 1477 507.93359375 1477 492.99609375 1389 c 0,21,22
 478.05859375 1301 478.05859375 1301 464.5546875 1241 c 0,23,24
 451.051757812 1181 451.051757812 1181 438.499023438 1127 c 0,25,26
 424.788085938 1072 424.788085938 1072 407.434570312 994 c 1,27,-1
 333.434570312 994 l 1,28,29
 340.946289062 1073 340.946289062 1073 345.499023438 1127 c 0,30,31
 349.209960938 1182 349.209960938 1182 355.396484375 1240 c 0,32,33
 360.583007812 1298 360.583007812 1298 373.837890625 1388 c 0,34,35
 386.93359375 1477 386.93359375 1477 410.216796875 1624 c 1,18,-1
EndSplineSet
Substitution2: "'ss03' Style Set 3 in Latin lookup 37 subtable" quotedbl.ss03
Substitution2: "'aalt' Access All Alternates in Latin lookup 0 subtable" quotedbl.ss03
EndChar

